Sans_opsz9.ufo
<glyph name="exclam" format="2">
	<unicode hex="0021"/>
	<advance width="325"/>
	<outline>
		<contour>
			<point x="125" y="367" type="line"/>
			<point x="128" y="177" type="line"/>
			<point x="128" y="177" type="line"/>
			<point x="198" y="177" type="line"/>
			<point x="198" y="177" type="line"/>
			<point x="201" y="367" type="line"/>
			<point x="206" y="694" type="line"/>
			<point x="206" y="694" type="line"/>
			<point x="120" y="694" type="line"/>
			<point x="120" y="694" type="line"/>
		</contour>
		<contour>
			<point x="120" y="0" type="line"/>
			<point x="120" y="0" type="line"/>
			<point x="206" y="0" type="line"/>
			<point x="206" y="0" type="line"/>
			<point x="206" y="86" type="line"/>
			<point x="206" y="86" type="line"/>
			<point x="120" y="86" type="line"/>
			<point x="120" y="86" type="line"/>
		</contour>
	</outline>
</glyph>
<glyph name="numbersign" format="2">
	<unicode hex="0023"/>
	<advance width="1712"/>
	<outline>
		<contour>
			<point x="1064" y="248" type="line"/>
			<point x="1522" y="248" type="line" smooth="yes"/>
			<point x="1552" y="248"/>
			<point x="1596" y="248"/>
			<point x="1596" y="292" type="curve" smooth="yes"/>
			<point x="1596" y="334"/>
			<point x="1558" y="334"/>
			<point x="1530" y="334" type="curve" smooth="yes"/>
			<point x="1090" y="334" type="line"/>
			<point x="1180" y="668" type="line"/>
			<point x="1530" y="668" type="line" smooth="yes"/>
			<point x="1558" y="668"/>
			<point x="1596" y="668"/>
			<point x="1596" y="710" type="curve" smooth="yes"/>
			<point x="1596" y="754"/>
			<point x="1552" y="754"/>
			<point x="1522" y="754" type="curve" smooth="yes"/>
			<point x="1206" y="754" type="line"/>
			<point x="1360" y="1308" type="line"/>
			<point x="1368" y="1332"/>
			<point x="1368" y="1336"/>
			<point x="1368" y="1344" type="curve" smooth="yes"/>
			<point x="1368" y="1370"/>
			<point x="1350" y="1388"/>
			<point x="1324" y="1388" type="curve" smooth="yes"/>
			<point x="1294" y="1388"/>
			<point x="1286" y="1364"/>
			<point x="1280" y="1340" type="curve" smooth="yes"/>
			<point x="1116" y="754" type="line"/>
			<point x="736" y="754" type="line"/>
			<point x="890" y="1308" type="line"/>
			<point x="898" y="1332"/>
			<point x="898" y="1336"/>
			<point x="898" y="1344" type="curve" smooth="yes"/>
			<point x="898" y="1370"/>
			<point x="880" y="1388"/>
			<point x="854" y="1388" type="curve" smooth="yes"/>
			<point x="824" y="1388"/>
			<point x="816" y="1364"/>
			<point x="810" y="1340" type="curve" smooth="yes"/>
			<point x="646" y="754" type="line"/>
			<point x="188" y="754" type="line" smooth="yes"/>
			<point x="158" y="754"/>
			<point x="114" y="754"/>
			<point x="114" y="710" type="curve" smooth="yes"/>
			<point x="114" y="668"/>
			<point x="154" y="668"/>
			<point x="180" y="668" type="curve" smooth="yes"/>
			<point x="620" y="668" type="line"/>
			<point x="530" y="334" type="line"/>
			<point x="180" y="334" type="line" smooth="yes"/>
			<point x="154" y="334"/>
			<point x="114" y="334"/>
			<point x="114" y="292" type="curve" smooth="yes"/>
			<point x="114" y="248"/>
			<point x="158" y="248"/>
			<point x="188" y="248" type="curve" smooth="yes"/>
			<point x="504" y="248" type="line"/>
			<point x="350" y="-308" type="line"/>
			<point x="342" y="-332"/>
			<point x="342" y="-336"/>
			<point x="342" y="-344" type="curve" smooth="yes"/>
			<point x="342" y="-370"/>
			<point x="360" y="-388"/>
			<point x="386" y="-388" type="curve" smooth="yes"/>
			<point x="416" y="-388"/>
			<point x="424" y="-364"/>
			<point x="430" y="-340" type="curve" smooth="yes"/>
			<point x="594" y="248" type="line"/>
			<point x="974" y="248" type="line"/>
			<point x="820" y="-308" type="line"/>
			<point x="812" y="-332"/>
			<point x="812" y="-336"/>
			<point x="812" y="-344" type="curve" smooth="yes"/>
			<point x="812" y="-370"/>
			<point x="830" y="-388"/>
			<point x="856" y="-388" type="curve" smooth="yes"/>
			<point x="886" y="-388"/>
			<point x="894" y="-364"/>
			<point x="900" y="-340" type="curve" smooth="yes"/>
		</contour>
		<contour>
			<point x="620" y="334" type="line"/>
			<point x="710" y="668" type="line"/>
			<point x="1090" y="668" type="line"/>
			<point x="1000" y="334" type="line"/>
		</contour>
	</outline>
</glyph>
<glyph name="dollar" format="2">
	<unicode hex="0024"/>
	<advance width="1026"/>
	<outline>
		<contour>
			<point x="576" y="1272" type="line"/>
			<point x="694" y="1260"/>
			<point x="778" y="1216"/>
			<point x="852" y="1158" type="curve"/>
			<point x="852" y="1158"/>
			<point x="852" y="1158"/>
			<point x="852" y="1158" type="curve"/>
			<point x="852" y="1158"/>
			<point x="852" y="1158"/>
			<point x="852" y="1158" type="curve"/>
			<point x="878" y="1296" type="line"/>
			<point x="878" y="1296"/>
			<point x="878" y="1296"/>
			<point x="878" y="1296" type="curve"/>
			<point x="770" y="1374"/>
			<point x="674" y="1400"/>
			<point x="576" y="1408" type="curve"/>
			<point x="576" y="1500" type="line"/>
			<point x="576" y="1500"/>
			<point x="576" y="1500"/>
			<point x="576" y="1500" type="curve"/>
			<point x="452" y="1500" type="line"/>
			<point x="452" y="1500"/>
			<point x="452" y="1500"/>
			<point x="452" y="1500" type="curve"/>
			<point x="452" y="1406" type="line"/>
			<point x="260" y="1376"/>
			<point x="114" y="1216"/>
			<point x="114" y="1022" type="curve" smooth="yes"/>
			<point x="114" y="888"/>
			<point x="196" y="690"/>
			<point x="452" y="638" type="curve"/>
			<point x="452" y="118" type="line"/>
			<point x="284" y="134"/>
			<point x="166" y="220"/>
			<point x="118" y="262" type="curve"/>
			<point x="118" y="262"/>
			<point x="118" y="262"/>
			<point x="118" y="262" type="curve"/>
			<point x="118" y="262"/>
			<point x="118" y="262"/>
			<point x="118" y="262" type="curve"/>
			<point x="109" y="214"/>
			<point x="101" y="166"/>
			<point x="92" y="118" type="curve"/>
			<point x="92" y="118"/>
			<point x="92" y="118"/>
			<point x="92" y="118" type="curve"/>
			<point x="218" y="24"/>
			<point x="348" y="-10"/>
			<point x="452" y="-20" type="curve"/>
			<point x="452" y="-112" type="line"/>
			<point x="452" y="-112"/>
			<point x="452" y="-112"/>
			<point x="452" y="-112" type="curve"/>
			<point x="576" y="-112" type="line"/>
			<point x="576" y="-112"/>
			<point x="576" y="-112"/>
			<point x="576" y="-112" type="curve"/>
			<point x="576" y="-16" type="line"/>
			<point x="786" y="20"/>
			<point x="912" y="204"/>
			<point x="912" y="394" type="curve" smooth="yes"/>
			<point x="912" y="552"/>
			<point x="816" y="756"/>
			<point x="576" y="804" type="curve"/>
		</contour>
		<contour>
			<point x="452" y="836" type="line"/>
			<point x="336" y="864"/>
			<point x="270" y="956"/>
			<point x="270" y="1052" type="curve" smooth="yes"/>
			<point x="270" y="1126"/>
			<point x="316" y="1234"/>
			<point x="452" y="1266" type="curve"/>
		</contour>
		<contour>
			<point x="576" y="608" type="line"/>
			<point x="680" y="580"/>
			<point x="756" y="482"/>
			<point x="756" y="366" type="curve" smooth="yes"/>
			<point x="756" y="264"/>
			<point x="696" y="158"/>
			<point x="576" y="122" type="curve"/>
		</contour>
	</outline>
</glyph>
<glyph name="percent" format="2">
	<unicode hex="0025"/>
	<advance width="1712"/>
	<outline>
		<contour>
			<point x="404" y="-112" type="curve" smooth="yes"/>
			<point x="428" y="-112"/>
			<point x="438" y="-94"/>
			<point x="448" y="-78" type="curve" smooth="yes"/>
			<point x="1342" y="1420" type="line" smooth="yes"/>
			<point x="1356" y="1442"/>
			<point x="1356" y="1452"/>
			<point x="1356" y="1456" type="curve" smooth="yes"/>
			<point x="1356" y="1484"/>
			<point x="1332" y="1500"/>
			<point x="1314" y="1500" type="curve" smooth="yes"/>
			<point x="1288" y="1500"/>
			<point x="1278" y="1482"/>
			<point x="1268" y="1466" type="curve" smooth="yes"/>
			<point x="378" y="-28" type="line" smooth="yes"/>
			<point x="362" y="-54"/>
			<point x="360" y="-58"/>
			<point x="360" y="-68" type="curve" smooth="yes"/>
			<point x="360" y="-94"/>
			<point x="380" y="-112"/>
		</contour>
		<contour>
			<point x="402" y="824" type="curve" smooth="yes"/>
			<point x="376" y="824"/>
			<point x="272" y="834"/>
			<point x="272" y="1096" type="curve" smooth="yes"/>
			<point x="272" y="1356"/>
			<point x="372" y="1370"/>
			<point x="402" y="1370" type="curve" smooth="yes"/>
			<point x="480" y="1370"/>
			<point x="538" y="1242"/>
			<point x="538" y="1098" type="curve" smooth="yes"/>
			<point x="538" y="946"/>
			<point x="478" y="824"/>
		</contour>
		<contour>
			<point x="402" y="694" type="curve" smooth="yes"/>
			<point x="550" y="694"/>
			<point x="684" y="866"/>
			<point x="684" y="1096" type="curve" smooth="yes"/>
			<point x="684" y="1332"/>
			<point x="548" y="1500"/>
			<point x="402" y="1500" type="curve" smooth="yes"/>
			<point x="252" y="1500"/>
			<point x="114" y="1330"/>
			<point x="114" y="1098" type="curve" smooth="yes"/>
			<point x="114" y="860"/>
			<point x="254" y="694"/>
		</contour>
		<contour>
			<point x="1314" y="18" type="curve" smooth="yes"/>
			<point x="1288" y="18"/>
			<point x="1184" y="28"/>
			<point x="1184" y="290" type="curve" smooth="yes"/>
			<point x="1184" y="550"/>
			<point x="1284" y="564"/>
			<point x="1314" y="564" type="curve" smooth="yes"/>
			<point x="1392" y="564"/>
			<point x="1450" y="436"/>
			<point x="1450" y="292" type="curve" smooth="yes"/>
			<point x="1450" y="140"/>
			<point x="1390" y="18"/>
		</contour>
		<contour>
			<point x="1314" y="-112" type="curve" smooth="yes"/>
			<point x="1462" y="-112"/>
			<point x="1596" y="60"/>
			<point x="1596" y="290" type="curve" smooth="yes"/>
			<point x="1596" y="526"/>
			<point x="1460" y="694"/>
			<point x="1314" y="694" type="curve" smooth="yes"/>
			<point x="1164" y="694"/>
			<point x="1026" y="524"/>
			<point x="1026" y="292" type="curve" smooth="yes"/>
			<point x="1026" y="54"/>
			<point x="1166" y="-112"/>
		</contour>
	</outline>
</glyph>
<glyph name="parenleft" format="2">
	<unicode hex="0028"/>
	<advance width="798"/>
	<outline>
		<contour>
			<point x="162" y="502" type="curve" smooth="yes"/>
			<point x="162" y="26"/>
			<point x="328" y="-308"/>
			<point x="554" y="-498" type="curve"/>
			<point x="554" y="-498"/>
			<point x="554" y="-498"/>
			<point x="554" y="-498" type="curve"/>
			<point x="684" y="-498" type="line"/>
			<point x="684" y="-498"/>
			<point x="684" y="-498"/>
			<point x="684" y="-498" type="curve"/>
			<point x="684" y="-498"/>
			<point x="684" y="-498"/>
			<point x="684" y="-498" type="curve"/>
			<point x="576" y="-388"/>
			<point x="328" y="-132"/>
			<point x="328" y="500" type="curve" smooth="yes"/>
			<point x="328" y="1134"/>
			<point x="576" y="1388"/>
			<point x="684" y="1500" type="curve"/>
			<point x="684" y="1500"/>
			<point x="684" y="1500"/>
			<point x="684" y="1500" type="curve"/>
			<point x="684" y="1500"/>
			<point x="684" y="1500"/>
			<point x="684" y="1500" type="curve"/>
			<point x="554" y="1500" type="line"/>
			<point x="554" y="1500"/>
			<point x="554" y="1500"/>
			<point x="554" y="1500" type="curve"/>
			<point x="318" y="1302"/>
			<point x="162" y="960"/>
		</contour>
	</outline>
</glyph>
<glyph name="parenright" format="2">
	<unicode hex="0029"/>
	<advance width="798"/>
	<outline>
		<contour>
			<point x="636" y="502" type="curve" smooth="yes"/>
			<point x="636" y="960"/>
			<point x="480" y="1302"/>
			<point x="244" y="1500" type="curve"/>
			<point x="244" y="1500"/>
			<point x="244" y="1500"/>
			<point x="244" y="1500" type="curve"/>
			<point x="114" y="1500" type="line"/>
			<point x="114" y="1500"/>
			<point x="114" y="1500"/>
			<point x="114" y="1500" type="curve"/>
			<point x="114" y="1500"/>
			<point x="114" y="1500"/>
			<point x="114" y="1500" type="curve"/>
			<point x="222" y="1388"/>
			<point x="470" y="1134"/>
			<point x="470" y="500" type="curve" smooth="yes"/>
			<point x="470" y="-132"/>
			<point x="222" y="-388"/>
			<point x="114" y="-498" type="curve"/>
			<point x="114" y="-498"/>
			<point x="114" y="-498"/>
			<point x="114" y="-498" type="curve"/>
			<point x="114" y="-498"/>
			<point x="114" y="-498"/>
			<point x="114" y="-498" type="curve"/>
			<point x="244" y="-498" type="line"/>
			<point x="244" y="-498"/>
			<point x="244" y="-498"/>
			<point x="244" y="-498" type="curve"/>
			<point x="470" y="-308"/>
			<point x="636" y="26"/>
		</contour>
	</outline>
</glyph>
<glyph name="asterisk" format="2">
	<unicode hex="002A"/>
	<advance width="1026"/>
	<outline>
		<contour>
			<point x="512" y="612" type="curve" smooth="yes"/>
			<point x="550" y="612"/>
			<point x="586" y="638"/>
			<point x="586" y="684" type="curve"/>
			<point x="580" y="775"/>
			<point x="574" y="866"/>
			<point x="568" y="958" type="curve"/>
			<point x="770" y="820" type="line" smooth="yes"/>
			<point x="800" y="798"/>
			<point x="804" y="798"/>
			<point x="822" y="798" type="curve" smooth="yes"/>
			<point x="860" y="798"/>
			<point x="894" y="828"/>
			<point x="894" y="872" type="curve" smooth="yes"/>
			<point x="894" y="916"/>
			<point x="870" y="928"/>
			<point x="846" y="940" type="curve" smooth="yes"/>
			<point x="620" y="1056" type="line"/>
			<point x="844" y="1170" type="line" smooth="yes"/>
			<point x="866" y="1182"/>
			<point x="894" y="1196"/>
			<point x="894" y="1240" type="curve" smooth="yes"/>
			<point x="894" y="1284"/>
			<point x="860" y="1314"/>
			<point x="822" y="1314" type="curve" smooth="yes"/>
			<point x="802" y="1314"/>
			<point x="794" y="1310"/>
			<point x="770" y="1294" type="curve" smooth="yes"/>
			<point x="568" y="1154" type="line"/>
			<point x="574" y="1245"/>
			<point x="580" y="1336"/>
			<point x="586" y="1428" type="curve"/>
			<point x="586" y="1478"/>
			<point x="544" y="1500"/>
			<point x="514" y="1500" type="curve" smooth="yes"/>
			<point x="476" y="1500"/>
			<point x="440" y="1474"/>
			<point x="440" y="1428" type="curve"/>
			<point x="446" y="1337"/>
			<point x="452" y="1246"/>
			<point x="458" y="1154" type="curve"/>
			<point x="256" y="1292" type="line" smooth="yes"/>
			<point x="226" y="1314"/>
			<point x="222" y="1314"/>
			<point x="204" y="1314" type="curve" smooth="yes"/>
			<point x="166" y="1314"/>
			<point x="132" y="1284"/>
			<point x="132" y="1240" type="curve" smooth="yes"/>
			<point x="132" y="1196"/>
			<point x="156" y="1184"/>
			<point x="180" y="1172" type="curve" smooth="yes"/>
			<point x="406" y="1056" type="line"/>
			<point x="182" y="942" type="line" smooth="yes"/>
			<point x="160" y="930"/>
			<point x="132" y="916"/>
			<point x="132" y="872" type="curve" smooth="yes"/>
			<point x="132" y="828"/>
			<point x="166" y="798"/>
			<point x="204" y="798" type="curve" smooth="yes"/>
			<point x="224" y="798"/>
			<point x="228" y="798"/>
			<point x="268" y="826" type="curve" smooth="yes"/>
			<point x="458" y="958" type="line"/>
			<point x="452" y="867"/>
			<point x="446" y="776"/>
			<point x="440" y="684" type="curve"/>
			<point x="440" y="634"/>
			<point x="482" y="612"/>
		</contour>
	</outline>
</glyph>
<glyph name="comma" format="2">
	<unicode hex="002C"/>
	<advance width="285"/>
	<outline>
		<contour>
			<point x="125" y="0" type="line"/>
			<point x="98" y="-127" type="line"/>
			<point x="98" y="-127"/>
			<point x="98" y="-127"/>
			<point x="98" y="-127" type="curve"/>
			<point x="98" y="-127"/>
			<point x="98" y="-127"/>
			<point x="98" y="-127" type="curve"/>
			<point x="141" y="-127" type="line"/>
			<point x="141" y="-127"/>
			<point x="141" y="-127"/>
			<point x="141" y="-127" type="curve"/>
			<point x="155.652" y="-84.376"/>
			<point x="170.304" y="-41.752"/>
			<point x="185" y="1" type="curve"/>
			<point x="185" y="1"/>
			<point x="185" y="1"/>
			<point x="185" y="1" type="curve"/>
			<point x="185" y="86" type="line"/>
			<point x="185" y="86"/>
			<point x="185" y="86"/>
			<point x="185" y="86" type="curve"/>
			<point x="99" y="86" type="line"/>
			<point x="99" y="86"/>
			<point x="99" y="86"/>
			<point x="99" y="86" type="curve"/>
			<point x="99" y="0" type="line"/>
			<point x="99" y="0"/>
			<point x="99" y="0"/>
			<point x="99" y="0" type="curve"/>
		</contour>
	</outline>
</glyph>
<glyph name="hyphen" format="2">
	<unicode hex="002D"/>
	<advance width="342"/>
	<outline>
		<contour>
			<point x="285" y="191" type="line"/>
			<point x="285" y="253" type="line"/>
			<point x="11" y="253" type="line"/>
			<point x="11" y="191" type="line"/>
		</contour>
	</outline>
</glyph>
<glyph name="period" format="2">
  <advance width="285"/>
  <unicode hex="002E"/>
  <outline>
    <contour>
      <point x="185" y="86" type="line"/>
      <point x="99" y="86" type="line"/>
      <point x="99" y="0" type="line"/>
      <point x="185" y="0" type="line"/>
    </contour>
  </outline>
</glyph>
<glyph name="zero" format="2">
	<unicode hex="0030"/>
	<advance width="513"/>
	<outline>
		<contour>
			<point x="256" y="-22" type="curve" smooth="yes"/>
			<point x="314" y="-22"/>
			<point x="386" y="2"/>
			<point x="429" y="85" type="curve" smooth="yes"/>
			<point x="467" y="158"/>
			<point x="472" y="245"/>
			<point x="472" y="325" type="curve" smooth="yes"/>
			<point x="472" y="420"/>
			<point x="465" y="508"/>
			<point x="418" y="587" type="curve" smooth="yes"/>
			<point x="385" y="642"/>
			<point x="323" y="676"/>
			<point x="257" y="676" type="curve" smooth="yes"/>
			<point x="207" y="676"/>
			<point x="136" y="657"/>
			<point x="91" y="579" type="curve" smooth="yes"/>
			<point x="44" y="500"/>
			<point x="41" y="394"/>
			<point x="41" y="325" type="curve" smooth="yes"/>
			<point x="41" y="275"/>
			<point x="41" y="161"/>
			<point x="86" y="80" type="curve" smooth="yes"/>
			<point x="136" y="-8"/>
			<point x="212" y="-22"/>
		</contour>
		<contour>
			<point x="257" y="43" type="curve" smooth="yes"/>
			<point x="198" y="43"/>
			<point x="165" y="82"/>
			<point x="147" y="134" type="curve" smooth="yes"/>
			<point x="124" y="199"/>
			<point x="124" y="285"/>
			<point x="124" y="337" type="curve" smooth="yes"/>
			<point x="124" y="400"/>
			<point x="124" y="451"/>
			<point x="139" y="503" type="curve" smooth="yes"/>
			<point x="158" y="572"/>
			<point x="199" y="611"/>
			<point x="256" y="611" type="curve" smooth="yes"/>
			<point x="320" y="611"/>
			<point x="353" y="569"/>
			<point x="371" y="515" type="curve" smooth="yes"/>
			<point x="389" y="457"/>
			<point x="389" y="385"/>
			<point x="389" y="337" type="curve" smooth="yes"/>
			<point x="389" y="269"/>
			<point x="389" y="200"/>
			<point x="366" y="135" type="curve" smooth="yes"/>
			<point x="343" y="66"/>
			<point x="296" y="43"/>
		</contour>
	</outline>
</glyph>
<glyph name="one" format="2">
	<unicode hex="0031"/>
	<advance width="1026"/>
	<outline>
		<contour>
			<point x="448" y="124" type="line"/>
			<point x="192" y="124" type="line"/>
			<point x="192" y="124"/>
			<point x="192" y="124"/>
			<point x="192" y="124" type="curve"/>
			<point x="192" y="0" type="line"/>
			<point x="192" y="0"/>
			<point x="192" y="0"/>
			<point x="192" y="0" type="curve"/>
			<point x="874" y="0" type="line"/>
			<point x="874" y="0"/>
			<point x="874" y="0"/>
			<point x="874" y="0" type="curve"/>
			<point x="874" y="124" type="line"/>
			<point x="874" y="124"/>
			<point x="874" y="124"/>
			<point x="874" y="124" type="curve"/>
			<point x="618" y="124" type="line"/>
			<point x="618" y="1352" type="line"/>
			<point x="618" y="1352"/>
			<point x="618" y="1352"/>
			<point x="618" y="1352" type="curve"/>
			<point x="576" y="1352" type="line"/>
			<point x="576" y="1352"/>
			<point x="576" y="1352"/>
			<point x="576" y="1352" type="curve"/>
			<point x="442" y="1222"/>
			<point x="250" y="1222"/>
			<point x="180" y="1222" type="curve"/>
			<point x="180" y="1222"/>
			<point x="180" y="1222"/>
			<point x="180" y="1222" type="curve"/>
			<point x="180" y="1098" type="line"/>
			<point x="180" y="1098"/>
			<point x="180" y="1098"/>
			<point x="180" y="1098" type="curve"/>
			<point x="236" y="1098"/>
			<point x="338" y="1098"/>
			<point x="448" y="1144" type="curve"/>
		</contour>
	</outline>
</glyph>
<glyph name="two" format="2">
	<unicode hex="0032"/>
	<advance width="513"/>
	<outline>
		<contour>
			<point x="374" y="458" type="curve" smooth="yes"/>
			<point x="374" y="367"/>
			<point x="309" y="310"/>
			<point x="236" y="243" type="curve" smooth="yes"/>
			<point x="173" y="186"/>
			<point x="113" y="126"/>
			<point x="51" y="68" type="curve"/>
			<point x="51" y="68"/>
			<point x="51" y="68"/>
			<point x="51" y="68" type="curve"/>
			<point x="51" y="0" type="line"/>
			<point x="51" y="0"/>
			<point x="51" y="0"/>
			<point x="51" y="0" type="curve"/>
			<point x="462" y="0" type="line"/>
			<point x="462" y="0"/>
			<point x="462" y="0"/>
			<point x="462" y="0" type="curve"/>
			<point x="462" y="75" type="line"/>
			<point x="462" y="75"/>
			<point x="462" y="75"/>
			<point x="462" y="75" type="curve"/>
			<point x="399.396" y="75"/>
			<point x="336.792" y="75"/>
			<point x="274" y="75" type="curve" smooth="yes"/>
			<point x="262" y="75"/>
			<point x="250" y="74"/>
			<point x="128" y="74" type="curve"/>
			<point x="158" y="103"/>
			<point x="261" y="197"/>
			<point x="292" y="223" type="curve" smooth="yes"/>
			<point x="397" y="309"/>
			<point x="462" y="363"/>
			<point x="462" y="460" type="curve" smooth="yes"/>
			<point x="462" y="575"/>
			<point x="379" y="676"/>
			<point x="243" y="676" type="curve" smooth="yes"/>
			<point x="184" y="676"/>
			<point x="139" y="657"/>
			<point x="104" y="624" type="curve" smooth="yes"/>
			<point x="77" y="597"/>
			<point x="57" y="560"/>
			<point x="43" y="516" type="curve"/>
			<point x="89" y="458" type="line"/>
			<point x="89" y="458"/>
			<point x="89" y="458"/>
			<point x="89" y="458" type="curve"/>
			<point x="89" y="458"/>
			<point x="89" y="458"/>
			<point x="89" y="458" type="curve"/>
			<point x="115" y="575"/>
			<point x="167" y="608"/>
			<point x="229" y="608" type="curve" smooth="yes"/>
			<point x="318" y="608"/>
			<point x="374" y="540"/>
		</contour>
	</outline>
</glyph>
<glyph name="three" format="2">
	<unicode hex="0033"/>
	<advance width="1026"/>
	<outline>
		<contour>
			<point x="506" y="-44" type="curve" smooth="yes"/>
			<point x="758" y="-44"/>
			<point x="940" y="152"/>
			<point x="940" y="362" type="curve" smooth="yes"/>
			<point x="940" y="520"/>
			<point x="824" y="652"/>
			<point x="660" y="706" type="curve"/>
			<point x="800" y="778"/>
			<point x="884" y="908"/>
			<point x="884" y="1046" type="curve" smooth="yes"/>
			<point x="884" y="1218"/>
			<point x="714" y="1352"/>
			<point x="508" y="1352" type="curve" smooth="yes"/>
			<point x="340" y="1352"/>
			<point x="198" y="1266"/>
			<point x="114" y="1140" type="curve"/>
			<point x="114" y="1140"/>
			<point x="114" y="1140"/>
			<point x="114" y="1140" type="curve"/>
			<point x="192" y="1026" type="line"/>
			<point x="192" y="1026"/>
			<point x="192" y="1026"/>
			<point x="192" y="1026" type="curve"/>
			<point x="192" y="1026"/>
			<point x="192" y="1026"/>
			<point x="192" y="1026" type="curve"/>
			<point x="280" y="1200"/>
			<point x="432" y="1228"/>
			<point x="506" y="1228" type="curve" smooth="yes"/>
			<point x="608" y="1228"/>
			<point x="708" y="1172"/>
			<point x="708" y="1046" type="curve" smooth="yes"/>
			<point x="708" y="972"/>
			<point x="666" y="800"/>
			<point x="450" y="780" type="curve" smooth="yes"/>
			<point x="412" y="776"/>
			<point x="380" y="774"/>
			<point x="342" y="772" type="curve"/>
			<point x="342" y="772"/>
			<point x="342" y="772"/>
			<point x="342" y="772" type="curve"/>
			<point x="342" y="642" type="line"/>
			<point x="342" y="642"/>
			<point x="342" y="642"/>
			<point x="342" y="642" type="curve"/>
			<point x="492" y="642" type="line" smooth="yes"/>
			<point x="686" y="642"/>
			<point x="748" y="484"/>
			<point x="748" y="364" type="curve" smooth="yes"/>
			<point x="748" y="206"/>
			<point x="654" y="86"/>
			<point x="502" y="86" type="curve" smooth="yes"/>
			<point x="338" y="86"/>
			<point x="186" y="176"/>
			<point x="110" y="284" type="curve"/>
			<point x="110" y="284"/>
			<point x="110" y="284"/>
			<point x="110" y="284" type="curve"/>
			<point x="110" y="284"/>
			<point x="110" y="284"/>
			<point x="110" y="284" type="curve"/>
			<point x="86" y="156" type="line"/>
			<point x="86" y="156"/>
			<point x="86" y="156"/>
			<point x="86" y="156" type="curve"/>
			<point x="184" y="38"/>
			<point x="336" y="-44"/>
		</contour>
	</outline>
</glyph>
<glyph name="four" format="2">
	<unicode hex="0034"/>
	<advance width="1026"/>
	<outline>
		<contour>
			<point x="600" y="334" type="line"/>
			<point x="600" y="0" type="line"/>
			<point x="600" y="0"/>
			<point x="600" y="0"/>
			<point x="600" y="0" type="curve"/>
			<point x="768" y="0" type="line"/>
			<point x="768" y="0"/>
			<point x="768" y="0"/>
			<point x="768" y="0" type="curve"/>
			<point x="768" y="334" type="line"/>
			<point x="968" y="334" type="line"/>
			<point x="968" y="334"/>
			<point x="968" y="334"/>
			<point x="968" y="334" type="curve"/>
			<point x="968" y="464" type="line"/>
			<point x="968" y="464"/>
			<point x="968" y="464"/>
			<point x="968" y="464" type="curve"/>
			<point x="768" y="464" type="line"/>
			<point x="768" y="1308" type="line"/>
			<point x="768" y="1308"/>
			<point x="768" y="1308"/>
			<point x="768" y="1308" type="curve"/>
			<point x="574" y="1308" type="line"/>
			<point x="574" y="1308"/>
			<point x="574" y="1308"/>
			<point x="574" y="1308" type="curve"/>
			<point x="58" y="464" type="line"/>
			<point x="58" y="464"/>
			<point x="58" y="464"/>
			<point x="58" y="464" type="curve"/>
			<point x="58" y="334" type="line"/>
			<point x="58" y="334"/>
			<point x="58" y="334"/>
			<point x="58" y="334" type="curve"/>
		</contour>
		<contour>
			<point x="224" y="464" type="line"/>
			<point x="320" y="622"/>
			<point x="422" y="794"/>
			<point x="498" y="936" type="curve" smooth="yes"/>
			<point x="566" y="1064"/>
			<point x="612" y="1168"/>
			<point x="612" y="1216" type="curve"/>
			<point x="612" y="464" type="line"/>
		</contour>
	</outline>
</glyph>
<glyph name="five" format="2">
	<unicode hex="0035"/>
	<advance width="513"/>
	<outline>
		<contour>
			<point x="158" y="586" type="line"/>
			<point x="427" y="586" type="line"/>
			<point x="427" y="654" type="line"/>
			<point x="81" y="654" type="line"/>
			<point x="81" y="282" type="line"/>
			<point x="153" y="282" type="line"/>
			<point x="185" y="356"/>
			<point x="246" y="361"/>
			<point x="265" y="361" type="curve" smooth="yes"/>
			<point x="306" y="361"/>
			<point x="366" y="330"/>
			<point x="366" y="204" type="curve" smooth="yes"/>
			<point x="366" y="82"/>
			<point x="294" y="43"/>
			<point x="234" y="43" type="curve" smooth="yes"/>
			<point x="182" y="43"/>
			<point x="114" y="68"/>
			<point x="75" y="135" type="curve"/>
			<point x="39" y="76" type="line"/>
			<point x="55" y="54"/>
			<point x="122" y="-22"/>
			<point x="235" y="-22" type="curve" smooth="yes"/>
			<point x="360" y="-22"/>
			<point x="462" y="78"/>
			<point x="462" y="203" type="curve" smooth="yes"/>
			<point x="462" y="327"/>
			<point x="373" y="426"/>
			<point x="267" y="426" type="curve" smooth="yes"/>
			<point x="254" y="426"/>
			<point x="205" y="426"/>
			<point x="158" y="386" type="curve"/>
		</contour>
	</outline>
</glyph>
<glyph name="six" format="2">
	<unicode hex="0036"/>
	<advance width="513"/>
	<outline>
		<contour>
			<point x="43" y="321" type="curve" smooth="yes"/>
			<point x="43" y="47"/>
			<point x="164" y="-22"/>
			<point x="258" y="-22" type="curve" smooth="yes"/>
			<point x="319" y="-22"/>
			<point x="363" y="0"/>
			<point x="403" y="45" type="curve" smooth="yes"/>
			<point x="451" y="99"/>
			<point x="470" y="144"/>
			<point x="470" y="223" type="curve" smooth="yes"/>
			<point x="470" y="364"/>
			<point x="393" y="463"/>
			<point x="306" y="463" type="curve" smooth="yes"/>
			<point x="268" y="463"/>
			<point x="194" y="452"/>
			<point x="132" y="381" type="curve"/>
			<point x="136" y="426"/>
			<point x="145" y="468"/>
			<point x="160" y="503" type="curve" smooth="yes"/>
			<point x="192" y="572"/>
			<point x="247" y="614"/>
			<point x="318" y="614" type="curve" smooth="yes"/>
			<point x="338" y="614"/>
			<point x="375" y="613"/>
			<point x="426" y="593" type="curve"/>
			<point x="426" y="593"/>
			<point x="426" y="593"/>
			<point x="426" y="593" type="curve"/>
			<point x="426" y="593"/>
			<point x="426" y="593"/>
			<point x="426" y="593" type="curve"/>
			<point x="426" y="656" type="line"/>
			<point x="426" y="656"/>
			<point x="426" y="656"/>
			<point x="426" y="656" type="curve"/>
			<point x="378" y="674"/>
			<point x="339" y="676"/>
			<point x="317" y="676" type="curve" smooth="yes"/>
			<point x="173" y="676"/>
			<point x="43" y="536"/>
		</contour>
		<contour>
			<point x="258" y="43" type="curve" smooth="yes"/>
			<point x="151" y="43"/>
			<point x="133" y="186"/>
			<point x="133" y="219" type="curve" smooth="yes"/>
			<point x="133" y="227"/>
			<point x="133" y="228"/>
			<point x="133" y="233" type="curve" smooth="yes"/>
			<point x="133" y="326"/>
			<point x="182" y="398"/>
			<point x="263" y="398" type="curve" smooth="yes"/>
			<point x="301" y="398"/>
			<point x="335" y="384"/>
			<point x="361" y="337" type="curve" smooth="yes"/>
			<point x="381" y="301"/>
			<point x="383" y="269"/>
			<point x="383" y="223" type="curve" smooth="yes"/>
			<point x="383" y="184"/>
			<point x="383" y="143"/>
			<point x="357" y="100" type="curve" smooth="yes"/>
			<point x="338" y="70"/>
			<point x="310" y="43"/>
		</contour>
	</outline>
</glyph>
<glyph name="seven" format="2">
	<unicode hex="0037"/>
	<advance width="513"/>
	<outline>
		<contour>
			<point x="398" y="580" type="line"/>
			<point x="242" y="416"/>
			<point x="155" y="215"/>
			<point x="155" y="-11" type="curve"/>
			<point x="155" y="-11"/>
			<point x="155" y="-11"/>
			<point x="155" y="-11" type="curve"/>
			<point x="245" y="-11" type="line"/>
			<point x="245" y="-11"/>
			<point x="245" y="-11"/>
			<point x="245" y="-11" type="curve"/>
			<point x="245" y="247"/>
			<point x="355" y="458"/>
			<point x="470" y="585" type="curve"/>
			<point x="470" y="585"/>
			<point x="470" y="585"/>
			<point x="470" y="585" type="curve"/>
			<point x="470" y="654" type="line"/>
			<point x="470" y="654"/>
			<point x="470" y="654"/>
			<point x="470" y="654" type="curve"/>
			<point x="376.76" y="654"/>
			<point x="283.52" y="654"/>
			<point x="190" y="654" type="curve"/>
			<point x="43" y="654" type="line"/>
			<point x="43" y="654"/>
			<point x="43" y="654"/>
			<point x="43" y="654" type="curve"/>
			<point x="43" y="579" type="line"/>
			<point x="43" y="579"/>
			<point x="43" y="579"/>
			<point x="43" y="579" type="curve"/>
			<point x="131" y="579"/>
			<point x="216" y="580"/>
			<point x="275" y="580" type="curve" smooth="yes"/>
		</contour>
	</outline>
</glyph>
<glyph name="eight" format="2">
	<unicode hex="0038"/>
	<advance width="1026"/>
	<outline>
		<contour>
			<point x="660" y="708" type="curve"/>
			<point x="786" y="744"/>
			<point x="912" y="852"/>
			<point x="912" y="1002" type="curve" smooth="yes"/>
			<point x="912" y="1186"/>
			<point x="740" y="1352"/>
			<point x="514" y="1352" type="curve" smooth="yes"/>
			<point x="280" y="1352"/>
			<point x="114" y="1182"/>
			<point x="114" y="1002" type="curve" smooth="yes"/>
			<point x="114" y="852"/>
			<point x="240" y="744"/>
			<point x="366" y="708" type="curve"/>
			<point x="154" y="632"/>
			<point x="86" y="480"/>
			<point x="86" y="362" type="curve" smooth="yes"/>
			<point x="86" y="142"/>
			<point x="276" y="-44"/>
			<point x="512" y="-44" type="curve" smooth="yes"/>
			<point x="756" y="-44"/>
			<point x="940" y="146"/>
			<point x="940" y="362" type="curve" smooth="yes"/>
			<point x="940" y="488"/>
			<point x="864" y="634"/>
		</contour>
		<contour>
			<point x="512" y="772" type="curve" smooth="yes"/>
			<point x="356" y="772"/>
			<point x="262" y="868"/>
			<point x="262" y="1000" type="curve" smooth="yes"/>
			<point x="262" y="1134"/>
			<point x="358" y="1228"/>
			<point x="512" y="1228" type="curve" smooth="yes"/>
			<point x="676" y="1228"/>
			<point x="764" y="1128"/>
			<point x="764" y="1000" type="curve" smooth="yes"/>
			<point x="764" y="876"/>
			<point x="678" y="772"/>
		</contour>
		<contour>
			<point x="514" y="86" type="curve" smooth="yes"/>
			<point x="372" y="86"/>
			<point x="258" y="182"/>
			<point x="258" y="362" type="curve" smooth="yes"/>
			<point x="258" y="576"/>
			<point x="410" y="642"/>
			<point x="512" y="642" type="curve" smooth="yes"/>
			<point x="626" y="642"/>
			<point x="768" y="568"/>
			<point x="768" y="362" type="curve" smooth="yes"/>
			<point x="768" y="176"/>
			<point x="646" y="86"/>
		</contour>
	</outline>
</glyph>
<glyph name="nine" format="2">
	<unicode hex="0039"/>
	<advance width="1026"/>
	<outline>
		<contour>
			<point x="422" y="-44" type="curve" smooth="yes"/>
			<point x="690" y="-44"/>
			<point x="940" y="234"/>
			<point x="940" y="668" type="curve" smooth="yes"/>
			<point x="940" y="1212"/>
			<point x="706" y="1352"/>
			<point x="520" y="1352" type="curve" smooth="yes"/>
			<point x="406" y="1352"/>
			<point x="308" y="1314"/>
			<point x="218" y="1216" type="curve" smooth="yes"/>
			<point x="120" y="1106"/>
			<point x="86" y="1014"/>
			<point x="86" y="864" type="curve" smooth="yes"/>
			<point x="86" y="726"/>
			<point x="112" y="630"/>
			<point x="180" y="528" type="curve" smooth="yes"/>
			<point x="250" y="420"/>
			<point x="318" y="382"/>
			<point x="414" y="382" type="curve" smooth="yes"/>
			<point x="586" y="382"/>
			<point x="708" y="482"/>
			<point x="762" y="548" type="curve"/>
			<point x="757" y="487"/>
			<point x="747" y="433"/>
			<point x="734" y="386" type="curve" smooth="yes"/>
			<point x="671" y="158"/>
			<point x="531" y="86"/>
			<point x="422" y="86" type="curve" smooth="yes"/>
			<point x="366" y="86"/>
			<point x="290" y="98"/>
			<point x="214" y="162" type="curve"/>
			<point x="214" y="162"/>
			<point x="214" y="162"/>
			<point x="214" y="162" type="curve"/>
			<point x="214" y="162"/>
			<point x="214" y="162"/>
			<point x="214" y="162" type="curve"/>
			<point x="192" y="125"/>
			<point x="170" y="87"/>
			<point x="148" y="50" type="curve"/>
			<point x="148" y="50"/>
			<point x="148" y="50"/>
			<point x="148" y="50" type="curve"/>
			<point x="238" y="-22"/>
			<point x="328" y="-44"/>
		</contour>
		<contour>
			<point x="500" y="512" type="curve" smooth="yes"/>
			<point x="392" y="512"/>
			<point x="344" y="570"/>
			<point x="312" y="620" type="curve" smooth="yes"/>
			<point x="262" y="700"/>
			<point x="260" y="780"/>
			<point x="260" y="864" type="curve" smooth="yes"/>
			<point x="260" y="950"/>
			<point x="262" y="1036"/>
			<point x="326" y="1124" type="curve" smooth="yes"/>
			<point x="350" y="1158"/>
			<point x="402" y="1228"/>
			<point x="520" y="1228" type="curve" smooth="yes"/>
			<point x="728" y="1228"/>
			<point x="754" y="938"/>
			<point x="756" y="866" type="curve"/>
			<point x="758" y="854"/>
			<point x="758" y="834"/>
			<point x="758" y="820" type="curve" smooth="yes"/>
			<point x="758" y="656"/>
			<point x="656" y="512"/>
		</contour>
	</outline>
</glyph>
<glyph name="colon" format="2">
	<unicode hex="003A"/>
	<advance width="285"/>
	<outline>
		<contour>
			<point x="185" y="444" type="line"/>
			<point x="99" y="444" type="line"/>
			<point x="99" y="358" type="line"/>
			<point x="185" y="358" type="line"/>
		</contour>
		<contour>
			<point x="99" y="86" type="line"/>
			<point x="99" y="0" type="line"/>
			<point x="185" y="0" type="line"/>
			<point x="185" y="86" type="line"/>
		</contour>
	</outline>
</glyph>
<glyph name="semicolon" format="2">
	<unicode hex="003B"/>
	<advance width="285"/>
	<outline>
		<contour>
			<point x="185" y="444" type="line"/>
			<point x="185" y="444"/>
			<point x="185" y="444"/>
			<point x="185" y="444" type="curve"/>
			<point x="99" y="444" type="line"/>
			<point x="99" y="444"/>
			<point x="99" y="444"/>
			<point x="99" y="444" type="curve"/>
			<point x="99" y="358" type="line"/>
			<point x="99" y="358"/>
			<point x="99" y="358"/>
			<point x="99" y="358" type="curve"/>
			<point x="185" y="358" type="line"/>
			<point x="185" y="358"/>
			<point x="185" y="358"/>
			<point x="185" y="358" type="curve"/>
		</contour>
		<contour>
			<point x="125" y="0" type="line"/>
			<point x="98" y="-127" type="line"/>
			<point x="98" y="-127"/>
			<point x="98" y="-127"/>
			<point x="98" y="-127" type="curve"/>
			<point x="98" y="-127"/>
			<point x="98" y="-127"/>
			<point x="98" y="-127" type="curve"/>
			<point x="141" y="-127" type="line"/>
			<point x="141" y="-127"/>
			<point x="141" y="-127"/>
			<point x="141" y="-127" type="curve"/>
			<point x="155.652" y="-84.376"/>
			<point x="170.304" y="-41.752"/>
			<point x="185" y="1" type="curve"/>
			<point x="185" y="1"/>
			<point x="185" y="1"/>
			<point x="185" y="1" type="curve"/>
			<point x="185" y="86" type="line"/>
			<point x="185" y="86"/>
			<point x="185" y="86"/>
			<point x="185" y="86" type="curve"/>
			<point x="99" y="86" type="line"/>
			<point x="99" y="86"/>
			<point x="99" y="86"/>
			<point x="99" y="86" type="curve"/>
			<point x="99" y="0" type="line"/>
			<point x="99" y="0"/>
			<point x="99" y="0"/>
			<point x="99" y="0" type="curve"/>
		</contour>
	</outline>
</glyph>
<glyph name="equal" format="2">
	<unicode hex="003D"/>
	<advance width="1598"/>
	<outline>
		<contour>
			<point x="1416" y="668" type="line" smooth="yes"/>
			<point x="1444" y="668"/>
			<point x="1482" y="668"/>
			<point x="1482" y="710" type="curve" smooth="yes"/>
			<point x="1482" y="754"/>
			<point x="1438" y="754"/>
			<point x="1408" y="754" type="curve" smooth="yes"/>
			<point x="188" y="754" type="line" smooth="yes"/>
			<point x="158" y="754"/>
			<point x="114" y="754"/>
			<point x="114" y="710" type="curve" smooth="yes"/>
			<point x="114" y="668"/>
			<point x="154" y="668"/>
			<point x="180" y="668" type="curve" smooth="yes"/>
		</contour>
		<contour>
			<point x="1408" y="248" type="line" smooth="yes"/>
			<point x="1438" y="248"/>
			<point x="1482" y="248"/>
			<point x="1482" y="292" type="curve" smooth="yes"/>
			<point x="1482" y="334"/>
			<point x="1444" y="334"/>
			<point x="1416" y="334" type="curve" smooth="yes"/>
			<point x="180" y="334" type="line" smooth="yes"/>
			<point x="154" y="334"/>
			<point x="114" y="334"/>
			<point x="114" y="292" type="curve" smooth="yes"/>
			<point x="114" y="248"/>
			<point x="158" y="248"/>
			<point x="188" y="248" type="curve" smooth="yes"/>
		</contour>
	</outline>
</glyph>
<glyph name="question" format="2">
	<unicode hex="003F"/>
	<advance width="970"/>
	<outline>
		<contour>
			<point x="526" y="460" type="line" smooth="yes"/>
			<point x="526" y="592"/>
			<point x="588" y="734"/>
			<point x="744" y="862" type="curve" smooth="yes"/>
			<point x="774" y="888"/>
			<point x="854" y="954"/>
			<point x="854" y="1098" type="curve" smooth="yes"/>
			<point x="854" y="1244"/>
			<point x="764" y="1410"/>
			<point x="460" y="1410" type="curve" smooth="yes"/>
			<point x="368" y="1410"/>
			<point x="246" y="1392"/>
			<point x="114" y="1304" type="curve"/>
			<point x="114" y="1304"/>
			<point x="114" y="1304"/>
			<point x="114" y="1304" type="curve"/>
			<point x="162" y="1170" type="line"/>
			<point x="162" y="1170"/>
			<point x="162" y="1170"/>
			<point x="162" y="1170" type="curve"/>
			<point x="162" y="1170"/>
			<point x="162" y="1170"/>
			<point x="162" y="1170" type="curve"/>
			<point x="250" y="1246"/>
			<point x="354" y="1280"/>
			<point x="462" y="1280" type="curve" smooth="yes"/>
			<point x="558" y="1280"/>
			<point x="688" y="1264"/>
			<point x="688" y="1100" type="curve" smooth="yes"/>
			<point x="688" y="1012"/>
			<point x="644" y="978"/>
			<point x="616" y="954" type="curve" smooth="yes"/>
			<point x="406" y="780"/>
			<point x="386" y="550"/>
			<point x="386" y="418" type="curve" smooth="yes"/>
			<point x="386" y="397"/>
			<point x="386" y="375"/>
			<point x="386" y="354" type="curve"/>
			<point x="386" y="354"/>
			<point x="386" y="354"/>
			<point x="386" y="354" type="curve"/>
			<point x="526" y="354" type="line"/>
			<point x="526" y="354"/>
			<point x="526" y="354"/>
			<point x="526" y="354" type="curve"/>
		</contour>
		<contour>
			<point x="370" y="0" type="line"/>
			<point x="370" y="0"/>
			<point x="370" y="0"/>
			<point x="370" y="0" type="curve"/>
			<point x="542" y="0" type="line"/>
			<point x="542" y="0"/>
			<point x="542" y="0"/>
			<point x="542" y="0" type="curve"/>
			<point x="542" y="172" type="line"/>
			<point x="542" y="172"/>
			<point x="542" y="172"/>
			<point x="542" y="172" type="curve"/>
			<point x="370" y="172" type="line"/>
			<point x="370" y="172"/>
			<point x="370" y="172"/>
			<point x="370" y="172" type="curve"/>
		</contour>
	</outline>
</glyph>
<glyph name="at" format="2">
	<unicode hex="0040"/>
	<advance width="685"/>
	<outline>
		<contour>
			<point x="575" y="87" type="line" smooth="yes"/>
			<point x="559" y="87"/>
			<point x="557" y="87"/>
			<point x="549" y="83" type="curve"/>
			<point x="491" y="60"/>
			<point x="438" y="54"/>
			<point x="402" y="54" type="curve" smooth="yes"/>
			<point x="249" y="54"/>
			<point x="136" y="189"/>
			<point x="136" y="347" type="curve" smooth="yes"/>
			<point x="136" y="517"/>
			<point x="262" y="640"/>
			<point x="397" y="640" type="curve" smooth="yes"/>
			<point x="451" y="640"/>
			<point x="498" y="609"/>
			<point x="519" y="553" type="curve"/>
			<point x="486" y="571"/>
			<point x="455" y="575"/>
			<point x="437" y="575" type="curve" smooth="yes"/>
			<point x="334" y="575"/>
			<point x="246" y="476"/>
			<point x="246" y="347" type="curve" smooth="yes"/>
			<point x="246" y="218"/>
			<point x="334" y="119"/>
			<point x="437" y="119" type="curve" smooth="yes"/>
			<point x="508" y="119"/>
			<point x="627" y="179"/>
			<point x="627" y="361" type="curve" smooth="yes"/>
			<point x="627" y="452"/>
			<point x="625" y="705"/>
			<point x="398" y="705" type="curve" smooth="yes"/>
			<point x="215" y="705"/>
			<point x="57" y="549"/>
			<point x="57" y="347" type="curve" smooth="yes"/>
			<point x="57" y="147"/>
			<point x="212" y="-11"/>
			<point x="399" y="-11" type="curve" smooth="yes"/>
			<point x="506" y="-11"/>
			<point x="587" y="43"/>
			<point x="627" y="87" type="curve"/>
		</contour>
		<contour>
			<point x="436" y="184" type="curve" smooth="yes"/>
			<point x="378" y="184"/>
			<point x="325" y="252"/>
			<point x="325" y="347" type="curve" smooth="yes"/>
			<point x="325" y="442"/>
			<point x="378" y="510"/>
			<point x="436" y="510" type="curve" smooth="yes"/>
			<point x="497" y="510"/>
			<point x="548" y="439"/>
			<point x="548" y="347" type="curve" smooth="yes"/>
			<point x="548" y="255"/>
			<point x="497" y="184"/>
		</contour>
	</outline>
</glyph>
<glyph name="A" format="2">
	<unicode hex="0041"/>
	<advance width="1372"/>
	<outline>
		<contour>
			<point x="368" y="398" type="line"/>
			<point x="962" y="398" type="line"/>
			<point x="1116" y="0" type="line"/>
			<point x="1116" y="0"/>
			<point x="1116" y="0"/>
			<point x="1116" y="0" type="curve"/>
			<point x="1314" y="0" type="line"/>
			<point x="1314" y="0"/>
			<point x="1314" y="0"/>
			<point x="1314" y="0" type="curve"/>
			<point x="1314" y="0"/>
			<point x="1314" y="0"/>
			<point x="1314" y="0" type="curve"/>
			<point x="778" y="1388" type="line"/>
			<point x="778" y="1388"/>
			<point x="778" y="1388"/>
			<point x="778" y="1388" type="curve"/>
			<point x="594" y="1388" type="line"/>
			<point x="594" y="1388"/>
			<point x="594" y="1388"/>
			<point x="594" y="1388" type="curve"/>
			<point x="58" y="0" type="line"/>
			<point x="58" y="0"/>
			<point x="58" y="0"/>
			<point x="58" y="0" type="curve"/>
			<point x="58" y="0"/>
			<point x="58" y="0"/>
			<point x="58" y="0" type="curve"/>
			<point x="216" y="0" type="line"/>
			<point x="216" y="0"/>
			<point x="216" y="0"/>
			<point x="216" y="0" type="curve"/>
		</contour>
		<contour>
			<point x="416" y="516" type="line"/>
			<point x="576" y="980" type="line" smooth="yes"/>
			<point x="606" y="1066"/>
			<point x="634" y="1154"/>
			<point x="664" y="1240" type="curve"/>
			<point x="664" y="1240" type="line"/>
			<point x="694" y="1154"/>
			<point x="724" y="1066"/>
			<point x="754" y="980" type="curve" smooth="yes"/>
			<point x="914" y="516" type="line"/>
		</contour>
	</outline>
</glyph>
<glyph name="B" format="2">
	<unicode hex="0042"/>
	<advance width="1370"/>
	<outline>
		<contour>
			<point x="196" y="1388" type="line"/>
			<point x="196" y="1388"/>
			<point x="196" y="1388"/>
			<point x="196" y="1388" type="curve"/>
			<point x="196" y="0" type="line"/>
			<point x="196" y="0"/>
			<point x="196" y="0"/>
			<point x="196" y="0" type="curve"/>
			<point x="744" y="0" type="line" smooth="yes"/>
			<point x="1044" y="0"/>
			<point x="1256" y="184"/>
			<point x="1256" y="376" type="curve" smooth="yes"/>
			<point x="1256" y="554"/>
			<point x="1074" y="694"/>
			<point x="860" y="726" type="curve"/>
			<point x="1058" y="776"/>
			<point x="1198" y="894"/>
			<point x="1198" y="1040" type="curve" smooth="yes"/>
			<point x="1198" y="1224"/>
			<point x="976" y="1388"/>
			<point x="690" y="1388" type="curve" smooth="yes"/>
		</contour>
		<contour>
			<point x="376" y="786" type="line"/>
			<point x="376" y="1270" type="line"/>
			<point x="632" y="1270" type="line" smooth="yes"/>
			<point x="836" y="1270"/>
			<point x="1030" y="1176"/>
			<point x="1030" y="1036" type="curve" smooth="yes"/>
			<point x="1030" y="920"/>
			<point x="888" y="786"/>
			<point x="610" y="786" type="curve" smooth="yes"/>
		</contour>
		<contour>
			<point x="376" y="118" type="line"/>
			<point x="376" y="656" type="line"/>
			<point x="670" y="656" type="line" smooth="yes"/>
			<point x="882" y="656"/>
			<point x="1082" y="536"/>
			<point x="1082" y="378" type="curve" smooth="yes"/>
			<point x="1082" y="236"/>
			<point x="908" y="118"/>
			<point x="686" y="118" type="curve" smooth="yes"/>
		</contour>
	</outline>
</glyph>
<glyph name="C" format="2">
  <advance width="657"/>
  <unicode hex="0043"/>
  <outline>
    <contour>
      <point x="598" y="119" type="line"/>
      <point x="539" y="73"/>
      <point x="483" y="58"/>
      <point x="400" y="58" type="curve" smooth="yes"/>
      <point x="251" y="58"/>
      <point x="162" y="211"/>
      <point x="162" y="345" type="curve" smooth="yes"/>
      <point x="162" y="493"/>
      <point x="255" y="637"/>
      <point x="400" y="637" type="curve" smooth="yes"/>
      <point x="469" y="637"/>
      <point x="530" y="619"/>
      <point x="578" y="583" type="curve"/>
      <point x="594" y="671" type="line"/>
      <point x="542" y="693"/>
      <point x="477" y="705"/>
      <point x="408" y="705" type="curve" smooth="yes"/>
      <point x="210" y="705"/>
      <point x="66" y="544"/>
      <point x="66" y="347" type="curve" smooth="yes"/>
      <point x="66" y="156"/>
      <point x="206" y="-11"/>
      <point x="407" y="-11" type="curve" smooth="yes"/>
      <point x="500" y="-11"/>
      <point x="537" y="4"/>
      <point x="605" y="45" type="curve"/>
    </contour>
  </outline>
</glyph>
<glyph name="D" format="2">
	<unicode hex="0044"/>
	<advance width="1486"/>
	<outline>
		<contour>
			<point x="740" y="0" type="line" smooth="yes"/>
			<point x="1088" y="0"/>
			<point x="1370" y="304"/>
			<point x="1370" y="682" type="curve" smooth="yes"/>
			<point x="1370" y="1074"/>
			<point x="1088" y="1388"/>
			<point x="740" y="1388" type="curve" smooth="yes"/>
			<point x="194" y="1388" type="line"/>
			<point x="194" y="1388"/>
			<point x="194" y="1388"/>
			<point x="194" y="1388" type="curve"/>
			<point x="194" y="0" type="line"/>
			<point x="194" y="0"/>
			<point x="194" y="0"/>
			<point x="194" y="0" type="curve"/>
		</contour>
		<contour>
			<point x="380" y="118" type="line"/>
			<point x="380" y="1270" type="line"/>
			<point x="688" y="1270" type="line" smooth="yes"/>
			<point x="964" y="1270"/>
			<point x="1184" y="1044"/>
			<point x="1184" y="682" type="curve" smooth="yes"/>
			<point x="1184" y="332"/>
			<point x="962" y="118"/>
			<point x="690" y="118" type="curve" smooth="yes"/>
		</contour>
	</outline>
</glyph>
<glyph name="E" format="2">
	<unicode hex="0045"/>
	<advance width="617"/>
	<outline>
		<contour>
			<point x="191" y="76" type="line"/>
			<point x="191" y="327" type="line"/>
			<point x="530" y="327" type="line"/>
			<point x="530" y="327"/>
			<point x="530" y="327"/>
			<point x="530" y="327" type="curve"/>
			<point x="530" y="392" type="line"/>
			<point x="530" y="392"/>
			<point x="530" y="392"/>
			<point x="530" y="392" type="curve"/>
			<point x="191" y="392" type="line"/>
			<point x="191" y="621" type="line"/>
			<point x="559" y="621" type="line"/>
			<point x="559" y="621"/>
			<point x="559" y="621"/>
			<point x="559" y="621" type="curve"/>
			<point x="559" y="691" type="line"/>
			<point x="559" y="691"/>
			<point x="559" y="691"/>
			<point x="559" y="691" type="curve"/>
			<point x="95" y="691" type="line"/>
			<point x="95" y="691"/>
			<point x="95" y="691"/>
			<point x="95" y="691" type="curve"/>
			<point x="95" y="0" type="line"/>
			<point x="95" y="0"/>
			<point x="95" y="0"/>
			<point x="95" y="0" type="curve"/>
			<point x="573" y="0" type="line"/>
			<point x="573" y="0"/>
			<point x="573" y="0"/>
			<point x="573" y="0" type="curve"/>
			<point x="573" y="76" type="line"/>
			<point x="573" y="76"/>
			<point x="573" y="76"/>
			<point x="573" y="76" type="curve"/>
		</contour>
	</outline>
</glyph>
<glyph name="F" format="2">
	<unicode hex="0046"/>
	<advance width="1176"/>
	<outline>
		<contour>
			<point x="382" y="626" type="line"/>
			<point x="1004" y="626" type="line"/>
			<point x="1004" y="626"/>
			<point x="1004" y="626"/>
			<point x="1004" y="626" type="curve"/>
			<point x="1004" y="756" type="line"/>
			<point x="1004" y="756"/>
			<point x="1004" y="756"/>
			<point x="1004" y="756" type="curve"/>
			<point x="382" y="756" type="line"/>
			<point x="382" y="1242" type="line"/>
			<point x="1090" y="1242" type="line"/>
			<point x="1090" y="1242"/>
			<point x="1090" y="1242"/>
			<point x="1090" y="1242" type="curve"/>
			<point x="1090" y="1382" type="line"/>
			<point x="1090" y="1382"/>
			<point x="1090" y="1382"/>
			<point x="1090" y="1382" type="curve"/>
			<point x="190" y="1382" type="line"/>
			<point x="190" y="1382"/>
			<point x="190" y="1382"/>
			<point x="190" y="1382" type="curve"/>
			<point x="190" y="0" type="line"/>
			<point x="190" y="0"/>
			<point x="190" y="0"/>
			<point x="190" y="0" type="curve"/>
			<point x="382" y="0" type="line"/>
			<point x="382" y="0"/>
			<point x="382" y="0"/>
			<point x="382" y="0" type="curve"/>
		</contour>
	</outline>
</glyph>
<glyph name="G" format="2">
	<unicode hex="0047"/>
	<advance width="1370"/>
	<outline>
		<contour>
			<point x="132" y="696" type="curve" smooth="yes"/>
			<point x="132" y="322"/>
			<point x="410" y="-22"/>
			<point x="796" y="-22" type="curve" smooth="yes"/>
			<point x="954" y="-22"/>
			<point x="1090" y="14"/>
			<point x="1232" y="76" type="curve"/>
			<point x="1232" y="598" type="line"/>
			<point x="1232" y="598"/>
			<point x="1232" y="598"/>
			<point x="1232" y="598" type="curve"/>
			<point x="800" y="598" type="line"/>
			<point x="800" y="598"/>
			<point x="800" y="598"/>
			<point x="800" y="598" type="curve"/>
			<point x="800" y="466" type="line"/>
			<point x="800" y="466"/>
			<point x="800" y="466"/>
			<point x="800" y="466" type="curve"/>
			<point x="1064" y="466" type="line"/>
			<point x="1064" y="154" type="line"/>
			<point x="980" y="136"/>
			<point x="894" y="116"/>
			<point x="806" y="116" type="curve" smooth="yes"/>
			<point x="500" y="116"/>
			<point x="324" y="420"/>
			<point x="324" y="696" type="curve" smooth="yes"/>
			<point x="324" y="978"/>
			<point x="502" y="1274"/>
			<point x="810" y="1274" type="curve" smooth="yes"/>
			<point x="954" y="1274"/>
			<point x="1094" y="1220"/>
			<point x="1184" y="1138" type="curve"/>
			<point x="1184" y="1138"/>
			<point x="1184" y="1138"/>
			<point x="1184" y="1138" type="curve"/>
			<point x="1184" y="1138"/>
			<point x="1184" y="1138"/>
			<point x="1184" y="1138" type="curve"/>
			<point x="1216" y="1312" type="line"/>
			<point x="1216" y="1312"/>
			<point x="1216" y="1312"/>
			<point x="1216" y="1312" type="curve"/>
			<point x="1124" y="1368"/>
			<point x="974" y="1410"/>
			<point x="796" y="1410" type="curve" smooth="yes"/>
			<point x="410" y="1410"/>
			<point x="132" y="1066"/>
		</contour>
	</outline>
</glyph>
<glyph name="H" format="2">
	<unicode hex="0048"/>
	<advance width="726"/>
	<outline>
		<contour>
			<point x="191" y="328" type="line"/>
			<point x="535" y="328" type="line"/>
			<point x="535" y="0" type="line"/>
			<point x="535" y="0"/>
			<point x="535" y="0"/>
			<point x="535" y="0" type="curve"/>
			<point x="631" y="0" type="line"/>
			<point x="631" y="0"/>
			<point x="631" y="0"/>
			<point x="631" y="0" type="curve"/>
			<point x="631" y="694" type="line"/>
			<point x="631" y="694"/>
			<point x="631" y="694"/>
			<point x="631" y="694" type="curve"/>
			<point x="535" y="694" type="line"/>
			<point x="535" y="694"/>
			<point x="535" y="694"/>
			<point x="535" y="694" type="curve"/>
			<point x="535" y="393" type="line"/>
			<point x="191" y="393" type="line"/>
			<point x="191" y="694" type="line"/>
			<point x="191" y="694"/>
			<point x="191" y="694"/>
			<point x="191" y="694" type="curve"/>
			<point x="95" y="694" type="line"/>
			<point x="95" y="694"/>
			<point x="95" y="694"/>
			<point x="95" y="694" type="curve"/>
			<point x="95" y="0" type="line"/>
			<point x="95" y="0"/>
			<point x="95" y="0"/>
			<point x="95" y="0" type="curve"/>
			<point x="191" y="0" type="line"/>
			<point x="191" y="0"/>
			<point x="191" y="0"/>
			<point x="191" y="0" type="curve"/>
		</contour>
	</outline>
</glyph>
<glyph name="J" format="2">
	<unicode hex="004A"/>
	<advance width="486"/>
	<outline>
		<contour>
			<point x="219" y="-22" type="curve" smooth="yes"/>
			<point x="322" y="-22"/>
			<point x="399" y="33"/>
			<point x="399" y="149" type="curve" smooth="yes"/>
			<point x="399" y="694" type="line"/>
			<point x="399" y="694"/>
			<point x="399" y="694"/>
			<point x="399" y="694" type="curve"/>
			<point x="306" y="694" type="line"/>
			<point x="306" y="694"/>
			<point x="306" y="694"/>
			<point x="306" y="694" type="curve"/>
			<point x="306" y="152" type="line" smooth="yes"/>
			<point x="306" y="135"/>
			<point x="306" y="43"/>
			<point x="187" y="43" type="curve" smooth="yes"/>
			<point x="134" y="43"/>
			<point x="86" y="69"/>
			<point x="57" y="100" type="curve"/>
			<point x="57" y="100"/>
			<point x="57" y="100"/>
			<point x="57" y="100" type="curve"/>
			<point x="57" y="100"/>
			<point x="57" y="100"/>
			<point x="57" y="100" type="curve"/>
			<point x="52.338" y="73.36"/>
			<point x="47.676" y="46.72"/>
			<point x="43" y="20" type="curve"/>
			<point x="43" y="20"/>
			<point x="43" y="20"/>
			<point x="43" y="20" type="curve"/>
			<point x="115" y="-16"/>
			<point x="180" y="-22"/>
		</contour>
	</outline>
</glyph>
<glyph name="K" format="2">
	<unicode hex="004B"/>
	<advance width="715"/>
	<outline>
		<contour>
			<point x="382" y="420" type="line"/>
			<point x="656" y="694" type="line"/>
			<point x="656" y="694"/>
			<point x="656" y="694"/>
			<point x="656" y="694" type="curve"/>
			<point x="656" y="694"/>
			<point x="656" y="694"/>
			<point x="656" y="694" type="curve"/>
			<point x="558" y="694" type="line"/>
			<point x="558" y="694"/>
			<point x="558" y="694"/>
			<point x="558" y="694" type="curve"/>
			<point x="189" y="326" type="line"/>
			<point x="189" y="694" type="line"/>
			<point x="189" y="694"/>
			<point x="189" y="694"/>
			<point x="189" y="694" type="curve"/>
			<point x="98" y="694" type="line"/>
			<point x="98" y="694"/>
			<point x="98" y="694"/>
			<point x="98" y="694" type="curve"/>
			<point x="98" y="0" type="line"/>
			<point x="98" y="0"/>
			<point x="98" y="0"/>
			<point x="98" y="0" type="curve"/>
			<point x="189" y="0" type="line"/>
			<point x="189" y="0"/>
			<point x="189" y="0"/>
			<point x="189" y="0" type="curve"/>
			<point x="189" y="228" type="line"/>
			<point x="323" y="361" type="line"/>
			<point x="572" y="0" type="line"/>
			<point x="572" y="0"/>
			<point x="572" y="0"/>
			<point x="572" y="0" type="curve"/>
			<point x="671" y="0" type="line"/>
			<point x="671" y="0"/>
			<point x="671" y="0"/>
			<point x="671" y="0" type="curve"/>
		</contour>
	</outline>
</glyph>
<glyph name="L" format="2">
	<unicode hex="004C"/>
	<advance width="1120"/>
	<outline>
		<contour>
			<point x="382" y="138" type="line"/>
			<point x="382" y="1388" type="line"/>
			<point x="382" y="1388"/>
			<point x="382" y="1388"/>
			<point x="382" y="1388" type="curve"/>
			<point x="190" y="1388" type="line"/>
			<point x="190" y="1388"/>
			<point x="190" y="1388"/>
			<point x="190" y="1388" type="curve"/>
			<point x="190" y="0" type="line"/>
			<point x="190" y="0"/>
			<point x="190" y="0"/>
			<point x="190" y="0" type="curve"/>
			<point x="1032" y="0" type="line"/>
			<point x="1032" y="0"/>
			<point x="1032" y="0"/>
			<point x="1032" y="0" type="curve"/>
			<point x="1032" y="138" type="line"/>
			<point x="1032" y="138"/>
			<point x="1032" y="138"/>
			<point x="1032" y="138" type="curve"/>
		</contour>
	</outline>
</glyph>
<glyph name="M" format="2">
  <advance width="898"/>
  <unicode hex="004D"/>
  <outline>
    <contour>
      <point x="102" y="0" type="line"/>
      <point x="184" y="0" type="line"/>
      <point x="184" y="616" type="line"/>
      <point x="185" y="616" type="line"/>
      <point x="197" y="565"/>
      <point x="255" y="416"/>
      <point x="266" y="388" type="curve" smooth="yes"/>
      <point x="409" y="22" type="line"/>
      <point x="485" y="22" type="line"/>
      <point x="623" y="374" type="line" smooth="yes"/>
      <point x="638" y="411"/>
      <point x="699" y="569"/>
      <point x="712" y="616" type="curve"/>
      <point x="713" y="616" type="line"/>
      <point x="713" y="0" type="line"/>
      <point x="795" y="0" type="line"/>
      <point x="795" y="694" type="line"/>
      <point x="675" y="694" type="line"/>
      <point x="541" y="352" type="line" smooth="yes"/>
      <point x="515" y="285"/>
      <point x="461" y="147"/>
      <point x="449" y="98" type="curve"/>
      <point x="448" y="98" type="line"/>
      <point x="438" y="139"/>
      <point x="392" y="260"/>
      <point x="373" y="308" type="curve" smooth="yes"/>
      <point x="222" y="694" type="line"/>
      <point x="102" y="694" type="line"/>
    </contour>
  </outline>
</glyph>
<glyph name="N" format="2">
  <advance width="726"/>
  <unicode hex="004E"/>
  <outline>
    <contour>
      <point x="98" y="0" type="line"/>
      <point x="180" y="0" type="line"/>
      <point x="180" y="616" type="line"/>
      <point x="181" y="616" type="line"/>
      <point x="205" y="569"/>
      <point x="229" y="522"/>
      <point x="253" y="475" type="curve" smooth="yes"/>
      <point x="496" y="0" type="line"/>
      <point x="628" y="0" type="line"/>
      <point x="628" y="694" type="line"/>
      <point x="546" y="694" type="line"/>
      <point x="546" y="78" type="line"/>
      <point x="545" y="78" type="line"/>
      <point x="523" y="120"/>
      <point x="502" y="163"/>
      <point x="480" y="205" type="curve" smooth="yes"/>
      <point x="230" y="694" type="line"/>
      <point x="98" y="694" type="line"/>
    </contour>
  </outline>
</glyph>
<glyph name="O" format="2">
	<unicode hex="004F"/>
	<advance width="1518"/>
	<outline>
		<contour>
			<point x="1402" y="688" type="curve" smooth="yes"/>
			<point x="1402" y="1110"/>
			<point x="1104" y="1432"/>
			<point x="758" y="1432" type="curve" smooth="yes"/>
			<point x="412" y="1432"/>
			<point x="114" y="1110"/>
			<point x="114" y="688" type="curve" smooth="yes"/>
			<point x="114" y="272"/>
			<point x="414" y="-44"/>
			<point x="758" y="-44" type="curve" smooth="yes"/>
			<point x="1104" y="-44"/>
			<point x="1402" y="272"/>
		</contour>
		<contour>
			<point x="758" y="96" type="curve" smooth="yes"/>
			<point x="520" y="96"/>
			<point x="306" y="342"/>
			<point x="306" y="718" type="curve" smooth="yes"/>
			<point x="306" y="1084"/>
			<point x="530" y="1296"/>
			<point x="758" y="1296" type="curve" smooth="yes"/>
			<point x="986" y="1296"/>
			<point x="1210" y="1082"/>
			<point x="1210" y="718" type="curve" smooth="yes"/>
			<point x="1210" y="342"/>
			<point x="996" y="96"/>
		</contour>
	</outline>
</glyph>
<glyph name="P" format="2">
	<unicode hex="0050"/>
	<advance width="657"/>
	<outline>
		<contour>
			<point x="193" y="285" type="line"/>
			<point x="356" y="285" type="line" smooth="yes"/>
			<point x="497" y="285"/>
			<point x="599" y="382"/>
			<point x="599" y="491" type="curve" smooth="yes"/>
			<point x="599" y="597"/>
			<point x="498" y="694"/>
			<point x="356" y="694" type="curve" smooth="yes"/>
			<point x="97" y="694" type="line"/>
			<point x="97" y="694"/>
			<point x="97" y="694"/>
			<point x="97" y="694" type="curve"/>
			<point x="97" y="0" type="line"/>
			<point x="97" y="0"/>
			<point x="97" y="0"/>
			<point x="97" y="0" type="curve"/>
			<point x="193" y="0" type="line"/>
			<point x="193" y="0"/>
			<point x="193" y="0"/>
			<point x="193" y="0" type="curve"/>
		</contour>
		<contour>
			<point x="332" y="635" type="line" smooth="yes"/>
			<point x="447" y="635"/>
			<point x="512" y="571"/>
			<point x="512" y="491" type="curve" smooth="yes"/>
			<point x="512" y="411"/>
			<point x="448" y="347"/>
			<point x="332" y="347" type="curve" smooth="yes"/>
			<point x="190" y="347" type="line"/>
			<point x="190" y="635" type="line"/>
		</contour>
	</outline>
</glyph>
<glyph name="Q" format="2">
	<unicode hex="0051"/>
	<advance width="759"/>
	<outline>
		<contour>
			<point x="57" y="344" type="curve" smooth="yes"/>
			<point x="57" y="136"/>
			<point x="207" y="-22"/>
			<point x="379" y="-22" type="curve" smooth="yes"/>
			<point x="410" y="-22"/>
			<point x="449" y="-15"/>
			<point x="475" y="-6" type="curve"/>
			<point x="503.305" y="-46.293"/>
			<point x="531.61" y="-86.586"/>
			<point x="560" y="-127" type="curve"/>
			<point x="560" y="-127"/>
			<point x="560" y="-127"/>
			<point x="560" y="-127" type="curve"/>
			<point x="672" y="-127" type="line"/>
			<point x="672" y="-127"/>
			<point x="672" y="-127"/>
			<point x="672" y="-127" type="curve"/>
			<point x="672" y="-127"/>
			<point x="672" y="-127"/>
			<point x="672" y="-127" type="curve"/>
			<point x="549" y="33" type="line"/>
			<point x="638" y="96"/>
			<point x="701" y="209"/>
			<point x="701" y="344" type="curve" smooth="yes"/>
			<point x="701" y="555"/>
			<point x="552" y="716"/>
			<point x="379" y="716" type="curve" smooth="yes"/>
			<point x="206" y="716"/>
			<point x="57" y="555"/>
		</contour>
		<contour>
			<point x="150" y="345" type="curve" smooth="yes"/>
			<point x="150" y="529"/>
			<point x="259" y="648"/>
			<point x="379" y="648" type="curve" smooth="yes"/>
			<point x="499" y="648"/>
			<point x="608" y="528"/>
			<point x="608" y="345" type="curve" smooth="yes"/>
			<point x="608" y="216"/>
			<point x="554" y="132"/>
			<point x="504" y="93" type="curve"/>
			<point x="426" y="194" type="line"/>
			<point x="426" y="194"/>
			<point x="426" y="194"/>
			<point x="426" y="194" type="curve"/>
			<point x="332" y="194" type="line"/>
			<point x="332" y="194"/>
			<point x="332" y="194"/>
			<point x="332" y="194" type="curve"/>
			<point x="364.967" y="147.047"/>
			<point x="397.934" y="100.094"/>
			<point x="431" y="53" type="curve"/>
			<point x="431" y="53"/>
			<point x="431" y="53"/>
			<point x="431" y="53" type="curve"/>
			<point x="414" y="48"/>
			<point x="397" y="46"/>
			<point x="379" y="46" type="curve" smooth="yes"/>
			<point x="262" y="46"/>
			<point x="150" y="158"/>
		</contour>
	</outline>
</glyph>
<glyph name="R" format="2">
  <advance width="665"/>
  <unicode hex="0052"/>
  <outline>
    <contour>
      <point x="434" y="325" type="line"/>
      <point x="536" y="353"/>
      <point x="608" y="425"/>
      <point x="608" y="507" type="curve" smooth="yes"/>
      <point x="608" y="610"/>
      <point x="492" y="694"/>
      <point x="349" y="694" type="curve" smooth="yes"/>
      <point x="97" y="694" type="line"/>
      <point x="97" y="0" type="line"/>
      <point x="190" y="0" type="line"/>
      <point x="190" y="315" type="line"/>
      <point x="350" y="315" type="line"/>
      <point x="540" y="0" type="line"/>
      <point x="636" y="0" type="line"/>
    </contour>
    <contour>
      <point x="190" y="380" type="line"/>
      <point x="190" y="635" type="line"/>
      <point x="337" y="635" type="line" smooth="yes"/>
      <point x="453" y="635"/>
      <point x="521" y="579"/>
      <point x="521" y="507" type="curve" smooth="yes"/>
      <point x="521" y="442"/>
      <point x="460" y="380"/>
      <point x="337" y="380" type="curve" smooth="yes"/>
    </contour>
  </outline>
</glyph>
<glyph name="S" format="2">
	<unicode hex="0053"/>
	<advance width="1140"/>
	<outline>
		<contour>
			<point x="856" y="360" type="curve" smooth="yes"/>
			<point x="856" y="228"/>
			<point x="742" y="104"/>
			<point x="564" y="104" type="curve" smooth="yes"/>
			<point x="402" y="104"/>
			<point x="250" y="166"/>
			<point x="124" y="268" type="curve"/>
			<point x="124" y="268"/>
			<point x="124" y="268"/>
			<point x="124" y="268" type="curve"/>
			<point x="124" y="268"/>
			<point x="124" y="268"/>
			<point x="124" y="268" type="curve"/>
			<point x="92" y="94" type="line"/>
			<point x="92" y="94"/>
			<point x="92" y="94"/>
			<point x="92" y="94" type="curve"/>
			<point x="288" y="-28"/>
			<point x="470" y="-44"/>
			<point x="564" y="-44" type="curve" smooth="yes"/>
			<point x="838" y="-44"/>
			<point x="1026" y="160"/>
			<point x="1026" y="382" type="curve" smooth="yes"/>
			<point x="1026" y="500"/>
			<point x="974" y="598"/>
			<point x="904" y="668" type="curve" smooth="yes"/>
			<point x="842" y="732"/>
			<point x="762" y="774"/>
			<point x="690" y="792" type="curve" smooth="yes"/>
			<point x="622" y="808"/>
			<point x="556" y="824"/>
			<point x="488" y="840" type="curve" smooth="yes"/>
			<point x="386" y="864"/>
			<point x="284" y="944"/>
			<point x="284" y="1060" type="curve" smooth="yes"/>
			<point x="284" y="1174"/>
			<point x="394" y="1290"/>
			<point x="576" y="1290" type="curve" smooth="yes"/>
			<point x="720" y="1290"/>
			<point x="820" y="1248"/>
			<point x="924" y="1160" type="curve"/>
			<point x="924" y="1160"/>
			<point x="924" y="1160"/>
			<point x="924" y="1160" type="curve"/>
			<point x="924" y="1160"/>
			<point x="924" y="1160"/>
			<point x="924" y="1160" type="curve"/>
			<point x="956" y="1334" type="line"/>
			<point x="956" y="1334"/>
			<point x="956" y="1334"/>
			<point x="956" y="1334" type="curve"/>
			<point x="856" y="1384"/>
			<point x="760" y="1432"/>
			<point x="578" y="1432" type="curve" smooth="yes"/>
			<point x="294" y="1432"/>
			<point x="114" y="1234"/>
			<point x="114" y="1034" type="curve" smooth="yes"/>
			<point x="114" y="984"/>
			<point x="124" y="904"/>
			<point x="192" y="812" type="curve" smooth="yes"/>
			<point x="284" y="692"/>
			<point x="414" y="662"/>
			<point x="496" y="642" type="curve" smooth="yes"/>
			<point x="524" y="634"/>
			<point x="648" y="604"/>
			<point x="664" y="600" type="curve" smooth="yes"/>
			<point x="758" y="572"/>
			<point x="856" y="484"/>
		</contour>
	</outline>
</glyph>
<glyph name="T" format="2">
	<unicode hex="0054"/>
	<advance width="702"/>
	<outline>
		<contour>
			<point x="303" y="618" type="line"/>
			<point x="303" y="0" type="line"/>
			<point x="303" y="0"/>
			<point x="303" y="0"/>
			<point x="303" y="0" type="curve"/>
			<point x="399" y="0" type="line"/>
			<point x="399" y="0"/>
			<point x="399" y="0"/>
			<point x="399" y="0" type="curve"/>
			<point x="399" y="618" type="line"/>
			<point x="487.245" y="618"/>
			<point x="575.49" y="618"/>
			<point x="664" y="618" type="curve"/>
			<point x="664" y="618"/>
			<point x="664" y="618"/>
			<point x="664" y="618" type="curve"/>
			<point x="664" y="688" type="line"/>
			<point x="664" y="688"/>
			<point x="664" y="688"/>
			<point x="664" y="688" type="curve"/>
			<point x="37" y="688" type="line"/>
			<point x="37" y="688"/>
			<point x="37" y="688"/>
			<point x="37" y="688" type="curve"/>
			<point x="37" y="618" type="line"/>
			<point x="37" y="618"/>
			<point x="37" y="618"/>
			<point x="37" y="618" type="curve"/>
		</contour>
	</outline>
</glyph>
<glyph name="U" format="2">
	<unicode hex="0055"/>
	<advance width="1412"/>
	<outline>
		<contour>
			<point x="712" y="-44" type="curve" smooth="yes"/>
			<point x="988" y="-44"/>
			<point x="1222" y="176"/>
			<point x="1222" y="466" type="curve" smooth="yes"/>
			<point x="1222" y="1388" type="line"/>
			<point x="1222" y="1388"/>
			<point x="1222" y="1388"/>
			<point x="1222" y="1388" type="curve"/>
			<point x="1056" y="1388" type="line"/>
			<point x="1056" y="1388"/>
			<point x="1056" y="1388"/>
			<point x="1056" y="1388" type="curve"/>
			<point x="1056" y="466" type="line" smooth="yes"/>
			<point x="1056" y="198"/>
			<point x="882" y="74"/>
			<point x="714" y="74" type="curve" smooth="yes"/>
			<point x="548" y="74"/>
			<point x="382" y="198"/>
			<point x="382" y="464" type="curve" smooth="yes"/>
			<point x="382" y="1388" type="line"/>
			<point x="382" y="1388"/>
			<point x="382" y="1388"/>
			<point x="382" y="1388" type="curve"/>
			<point x="190" y="1388" type="line"/>
			<point x="190" y="1388"/>
			<point x="190" y="1388"/>
			<point x="190" y="1388" type="curve"/>
			<point x="190" y="468" type="line" smooth="yes"/>
			<point x="190" y="170"/>
			<point x="436" y="-44"/>
		</contour>
	</outline>
</glyph>
<glyph name="V" format="2">
	<unicode hex="0056"/>
	<advance width="686"/>
	<outline>
		<contour>
			<point x="237" y="388" type="curve" smooth="yes"/>
			<point x="115" y="694" type="line"/>
			<point x="115" y="694"/>
			<point x="115" y="694"/>
			<point x="115" y="694" type="curve"/>
			<point x="14" y="694" type="line"/>
			<point x="14" y="694"/>
			<point x="14" y="694"/>
			<point x="14" y="694" type="curve"/>
			<point x="14" y="694"/>
			<point x="14" y="694"/>
			<point x="14" y="694" type="curve"/>
			<point x="295" y="0" type="line"/>
			<point x="295" y="0"/>
			<point x="295" y="0"/>
			<point x="295" y="0" type="curve"/>
			<point x="391" y="0" type="line"/>
			<point x="391" y="0"/>
			<point x="391" y="0"/>
			<point x="391" y="0" type="curve"/>
			<point x="672" y="694" type="line"/>
			<point x="672" y="694"/>
			<point x="672" y="694"/>
			<point x="672" y="694" type="curve"/>
			<point x="672" y="694"/>
			<point x="672" y="694"/>
			<point x="672" y="694" type="curve"/>
			<point x="589" y="694" type="line"/>
			<point x="589" y="694"/>
			<point x="589" y="694"/>
			<point x="589" y="694" type="curve"/>
			<point x="547.375" y="590.104"/>
			<point x="505.75" y="486.208"/>
			<point x="464" y="382" type="curve" smooth="yes"/>
			<point x="453" y="355"/>
			<point x="365" y="135"/>
			<point x="352" y="76" type="curve"/>
			<point x="351" y="76" type="line"/>
			<point x="341" y="129"/>
			<point x="262" y="325"/>
		</contour>
	</outline>
</glyph>
<glyph name="W" format="2">
	<unicode hex="0057"/>
	<advance width="1944"/>
	<outline>
		<contour>
			<point x="906" y="992" type="line" smooth="yes"/>
			<point x="954" y="1162"/>
			<point x="964" y="1224"/>
			<point x="964" y="1232" type="curve"/>
			<point x="966" y="1232" type="line"/>
			<point x="978" y="1122"/>
			<point x="1088" y="752"/>
			<point x="1130" y="614" type="curve" smooth="yes"/>
			<point x="1314" y="0" type="line"/>
			<point x="1314" y="0"/>
			<point x="1314" y="0"/>
			<point x="1314" y="0" type="curve"/>
			<point x="1494" y="0" type="line"/>
			<point x="1494" y="0"/>
			<point x="1494" y="0"/>
			<point x="1494" y="0" type="curve"/>
			<point x="1914" y="1388" type="line"/>
			<point x="1914" y="1388"/>
			<point x="1914" y="1388"/>
			<point x="1914" y="1388" type="curve"/>
			<point x="1914" y="1388"/>
			<point x="1914" y="1388"/>
			<point x="1914" y="1388" type="curve"/>
			<point x="1760" y="1388" type="line"/>
			<point x="1760" y="1388"/>
			<point x="1760" y="1388"/>
			<point x="1760" y="1388" type="curve"/>
			<point x="1568" y="740" type="line" smooth="yes"/>
			<point x="1528" y="608"/>
			<point x="1428" y="270"/>
			<point x="1414" y="154" type="curve"/>
			<point x="1414" y="154" type="line"/>
			<point x="1410" y="178"/>
			<point x="1380" y="318"/>
			<point x="1342" y="448" type="curve" smooth="yes"/>
			<point x="1064" y="1388" type="line"/>
			<point x="1064" y="1388"/>
			<point x="1064" y="1388"/>
			<point x="1064" y="1388" type="curve"/>
			<point x="896" y="1388" type="line"/>
			<point x="896" y="1388"/>
			<point x="896" y="1388"/>
			<point x="896" y="1388" type="curve"/>
			<point x="726" y="816" type="line" smooth="yes"/>
			<point x="686" y="682"/>
			<point x="568" y="282"/>
			<point x="556" y="158" type="curve"/>
			<point x="554" y="156" type="line"/>
			<point x="538" y="284"/>
			<point x="432" y="650"/>
			<point x="384" y="812" type="curve" smooth="yes"/>
			<point x="212" y="1388" type="line"/>
			<point x="212" y="1388"/>
			<point x="212" y="1388"/>
			<point x="212" y="1388" type="curve"/>
			<point x="28" y="1388" type="line"/>
			<point x="28" y="1388"/>
			<point x="28" y="1388"/>
			<point x="28" y="1388" type="curve"/>
			<point x="28" y="1388"/>
			<point x="28" y="1388"/>
			<point x="28" y="1388" type="curve"/>
			<point x="448" y="0" type="line"/>
			<point x="448" y="0"/>
			<point x="448" y="0"/>
			<point x="448" y="0" type="curve"/>
			<point x="616" y="0" type="line"/>
			<point x="616" y="0"/>
			<point x="616" y="0"/>
			<point x="616" y="0" type="curve"/>
		</contour>
	</outline>
</glyph>
<glyph name="X" format="2">
	<unicode hex="0058"/>
	<advance width="1372"/>
	<outline>
		<contour>
			<point x="764" y="732" type="line"/>
			<point x="1258" y="1388" type="line"/>
			<point x="1258" y="1388"/>
			<point x="1258" y="1388"/>
			<point x="1258" y="1388" type="curve"/>
			<point x="1258" y="1388"/>
			<point x="1258" y="1388"/>
			<point x="1258" y="1388" type="curve"/>
			<point x="1052" y="1388" type="line"/>
			<point x="1052" y="1388"/>
			<point x="1052" y="1388"/>
			<point x="1052" y="1388" type="curve"/>
			<point x="672" y="872" type="line"/>
			<point x="284" y="1388" type="line"/>
			<point x="284" y="1388"/>
			<point x="284" y="1388"/>
			<point x="284" y="1388" type="curve"/>
			<point x="58" y="1388" type="line"/>
			<point x="58" y="1388"/>
			<point x="58" y="1388"/>
			<point x="58" y="1388" type="curve"/>
			<point x="58" y="1388"/>
			<point x="58" y="1388"/>
			<point x="58" y="1388" type="curve"/>
			<point x="578" y="732" type="line"/>
			<point x="28" y="0" type="line"/>
			<point x="28" y="0"/>
			<point x="28" y="0"/>
			<point x="28" y="0" type="curve"/>
			<point x="28" y="0"/>
			<point x="28" y="0"/>
			<point x="28" y="0" type="curve"/>
			<point x="234" y="0" type="line"/>
			<point x="234" y="0"/>
			<point x="234" y="0"/>
			<point x="234" y="0" type="curve"/>
			<point x="672" y="606" type="line"/>
			<point x="1118" y="0" type="line"/>
			<point x="1118" y="0"/>
			<point x="1118" y="0"/>
			<point x="1118" y="0" type="curve"/>
			<point x="1344" y="0" type="line"/>
			<point x="1344" y="0"/>
			<point x="1344" y="0"/>
			<point x="1344" y="0" type="curve"/>
			<point x="1344" y="0"/>
			<point x="1344" y="0"/>
			<point x="1344" y="0" type="curve"/>
		</contour>
	</outline>
</glyph>
<glyph name="Y" format="2">
	<unicode hex="0059"/>
	<advance width="1372"/>
	<outline>
		<contour>
			<point x="594" y="556" type="line"/>
			<point x="594" y="0" type="line"/>
			<point x="594" y="0"/>
			<point x="594" y="0"/>
			<point x="594" y="0" type="curve"/>
			<point x="780" y="0" type="line"/>
			<point x="780" y="0"/>
			<point x="780" y="0"/>
			<point x="780" y="0" type="curve"/>
			<point x="780" y="556" type="line"/>
			<point x="1366" y="1388" type="line"/>
			<point x="1366" y="1388"/>
			<point x="1366" y="1388"/>
			<point x="1366" y="1388" type="curve"/>
			<point x="1366" y="1388"/>
			<point x="1366" y="1388"/>
			<point x="1366" y="1388" type="curve"/>
			<point x="1178" y="1388" type="line"/>
			<point x="1178" y="1388"/>
			<point x="1178" y="1388"/>
			<point x="1178" y="1388" type="curve"/>
			<point x="848" y="916" type="line" smooth="yes"/>
			<point x="800" y="846"/>
			<point x="754" y="776"/>
			<point x="706" y="706" type="curve"/>
			<point x="662" y="770"/>
			<point x="620" y="836"/>
			<point x="576" y="900" type="curve" smooth="yes"/>
			<point x="234" y="1388" type="line"/>
			<point x="234" y="1388"/>
			<point x="234" y="1388"/>
			<point x="234" y="1388" type="curve"/>
			<point x="6" y="1388" type="line"/>
			<point x="6" y="1388"/>
			<point x="6" y="1388"/>
			<point x="6" y="1388" type="curve"/>
			<point x="6" y="1388"/>
			<point x="6" y="1388"/>
			<point x="6" y="1388" type="curve"/>
		</contour>
	</outline>
</glyph>
<glyph name="Z" format="2">
	<unicode hex="005A"/>
	<advance width="1256"/>
	<outline>
		<contour>
			<point x="894" y="1258" type="curve"/>
			<point x="114" y="90" type="line"/>
			<point x="114" y="90"/>
			<point x="114" y="90"/>
			<point x="114" y="90" type="curve"/>
			<point x="114" y="0" type="line"/>
			<point x="114" y="0"/>
			<point x="114" y="0"/>
			<point x="114" y="0" type="curve"/>
			<point x="1152" y="0" type="line"/>
			<point x="1152" y="0"/>
			<point x="1152" y="0"/>
			<point x="1152" y="0" type="curve"/>
			<point x="1152" y="140" type="line"/>
			<point x="1152" y="140"/>
			<point x="1152" y="140"/>
			<point x="1152" y="140" type="curve"/>
			<point x="956" y="140" type="line" smooth="yes"/>
			<point x="778" y="140"/>
			<point x="596" y="136"/>
			<point x="360" y="136" type="curve"/>
			<point x="1140" y="1302" type="line"/>
			<point x="1140" y="1302"/>
			<point x="1140" y="1302"/>
			<point x="1140" y="1302" type="curve"/>
			<point x="1140" y="1388" type="line"/>
			<point x="1140" y="1388"/>
			<point x="1140" y="1388"/>
			<point x="1140" y="1388" type="curve"/>
			<point x="142" y="1388" type="line"/>
			<point x="142" y="1388"/>
			<point x="142" y="1388"/>
			<point x="142" y="1388" type="curve"/>
			<point x="142" y="1254" type="line"/>
			<point x="142" y="1254"/>
			<point x="142" y="1254"/>
			<point x="142" y="1254" type="curve"/>
			<point x="204" y="1254"/>
			<point x="266" y="1254"/>
			<point x="328" y="1254" type="curve" smooth="yes"/>
			<point x="500" y="1254"/>
			<point x="674" y="1256"/>
		</contour>
	</outline>
</glyph>
<glyph name="bracketleft" format="2">
	<unicode hex="005B"/>
	<advance width="298"/>
	<outline>
		<contour>
			<point x="276" y="-250" type="line"/>
			<point x="276" y="-185" type="line"/>
			<point x="180" y="-185" type="line"/>
			<point x="180" y="685" type="line"/>
			<point x="276" y="685" type="line"/>
			<point x="276" y="750" type="line"/>
			<point x="103" y="750" type="line"/>
			<point x="103" y="-250" type="line"/>
		</contour>
	</outline>
</glyph>
<glyph name="bracketright" format="2">
	<unicode hex="005D"/>
	<advance width="596"/>
	<outline>
		<contour>
			<point x="236" y="1370" type="line"/>
			<point x="236" y="-370" type="line"/>
			<point x="44" y="-370" type="line"/>
			<point x="44" y="-370"/>
			<point x="44" y="-370"/>
			<point x="44" y="-370" type="curve"/>
			<point x="44" y="-500" type="line"/>
			<point x="44" y="-500"/>
			<point x="44" y="-500"/>
			<point x="44" y="-500" type="curve"/>
			<point x="390" y="-500" type="line"/>
			<point x="390" y="-500"/>
			<point x="390" y="-500"/>
			<point x="390" y="-500" type="curve"/>
			<point x="390" y="1500" type="line"/>
			<point x="390" y="1500"/>
			<point x="390" y="1500"/>
			<point x="390" y="1500" type="curve"/>
			<point x="44" y="1500" type="line"/>
			<point x="44" y="1500"/>
			<point x="44" y="1500"/>
			<point x="44" y="1500" type="curve"/>
			<point x="44" y="1370" type="line"/>
			<point x="44" y="1370"/>
			<point x="44" y="1370"/>
			<point x="44" y="1370" type="curve"/>
		</contour>
	</outline>
</glyph>
<glyph name="grave" format="2">
	<unicode hex="0060"/>
	<advance width="513"/>
	<outline>
		<contour>
			<point x="238" y="527" type="line"/>
			<point x="238" y="527"/>
			<point x="238" y="527"/>
			<point x="238" y="527" type="curve"/>
			<point x="303" y="527" type="line"/>
			<point x="303" y="527"/>
			<point x="303" y="527"/>
			<point x="303" y="527" type="curve"/>
			<point x="303" y="527"/>
			<point x="303" y="527"/>
			<point x="303" y="527" type="curve"/>
			<point x="169" y="694" type="line"/>
			<point x="169" y="694"/>
			<point x="169" y="694"/>
			<point x="169" y="694" type="curve"/>
			<point x="86" y="694" type="line"/>
			<point x="86" y="694"/>
			<point x="86" y="694"/>
			<point x="86" y="694" type="curve"/>
			<point x="86" y="694"/>
			<point x="86" y="694"/>
			<point x="86" y="694" type="curve"/>
		</contour>
	</outline>
</glyph>
<glyph name="a" format="2">
	<unicode hex="0061"/>
	<advance width="986"/>
	<outline>
		<contour>
			<point x="824" y="578" type="line" smooth="yes"/>
			<point x="824" y="776"/>
			<point x="678" y="922"/>
			<point x="480" y="922" type="curve" smooth="yes"/>
			<point x="350" y="922"/>
			<point x="254" y="888"/>
			<point x="158" y="834" type="curve"/>
			<point x="158" y="834"/>
			<point x="158" y="834"/>
			<point x="158" y="834" type="curve"/>
			<point x="162" y="787"/>
			<point x="166" y="739"/>
			<point x="170" y="692" type="curve"/>
			<point x="170" y="692"/>
			<point x="170" y="692"/>
			<point x="170" y="692" type="curve"/>
			<point x="170" y="692"/>
			<point x="170" y="692"/>
			<point x="170" y="692" type="curve"/>
			<point x="270" y="766"/>
			<point x="368" y="796"/>
			<point x="478" y="796" type="curve" smooth="yes"/>
			<point x="590" y="796"/>
			<point x="658" y="706"/>
			<point x="658" y="576" type="curve" smooth="yes"/>
			<point x="658" y="492" type="line"/>
			<point x="314" y="484"/>
			<point x="88" y="394"/>
			<point x="88" y="232" type="curve" smooth="yes"/>
			<point x="88" y="138"/>
			<point x="150" y="-22"/>
			<point x="324" y="-22" type="curve" smooth="yes"/>
			<point x="364" y="-22"/>
			<point x="538" y="-18"/>
			<point x="664" y="76" type="curve"/>
			<point x="664" y="0" type="line"/>
			<point x="664" y="0"/>
			<point x="664" y="0"/>
			<point x="664" y="0" type="curve"/>
			<point x="824" y="0" type="line"/>
			<point x="824" y="0"/>
			<point x="824" y="0"/>
			<point x="824" y="0" type="curve"/>
		</contour>
		<contour>
			<point x="658" y="280" type="line" smooth="yes"/>
			<point x="658" y="238"/>
			<point x="658" y="188"/>
			<point x="586" y="146" type="curve" smooth="yes"/>
			<point x="536" y="116"/>
			<point x="470" y="108"/>
			<point x="430" y="108" type="curve" smooth="yes"/>
			<point x="328" y="108"/>
			<point x="242" y="156"/>
			<point x="242" y="236" type="curve" smooth="yes"/>
			<point x="242" y="378"/>
			<point x="632" y="384"/>
			<point x="658" y="384" type="curve"/>
		</contour>
	</outline>
</glyph>
<glyph name="b" format="2">
	<unicode hex="0062"/>
	<advance width="530"/>
	<outline>
		<contour>
			<point x="494" y="223" type="curve" smooth="yes"/>
			<point x="494" y="344"/>
			<point x="428" y="455"/>
			<point x="330" y="455" type="curve" smooth="yes"/>
			<point x="303" y="455"/>
			<point x="231" y="450"/>
			<point x="163" y="397" type="curve"/>
			<point x="163" y="694" type="line"/>
			<point x="163" y="694"/>
			<point x="163" y="694"/>
			<point x="163" y="694" type="curve"/>
			<point x="83" y="694" type="line"/>
			<point x="83" y="694"/>
			<point x="83" y="694"/>
			<point x="83" y="694" type="curve"/>
			<point x="83" y="0" type="line"/>
			<point x="83" y="0"/>
			<point x="83" y="0"/>
			<point x="83" y="0" type="curve"/>
			<point x="166" y="0" type="line"/>
			<point x="166" y="0"/>
			<point x="166" y="0"/>
			<point x="166" y="0" type="curve"/>
			<point x="166" y="47" type="line"/>
			<point x="179" y="33"/>
			<point x="230" y="-11"/>
			<point x="304" y="-11" type="curve" smooth="yes"/>
			<point x="408" y="-11"/>
			<point x="494" y="90"/>
		</contour>
		<contour>
			<point x="166" y="334" type="line"/>
			<point x="174.0556" y="345.27784"/>
			<point x="188.1678511936" y="360.5934474624"/>
			<point x="208.3367535808" y="372.3572731542" type="curve" smooth="yes"/>
			<point x="225.7235311936" y="382.498381344"/>
			<point x="247.61128" y="390"/>
			<point x="274" y="390" type="curve" smooth="yes"/>
			<point x="334" y="390"/>
			<point x="411" y="348"/>
			<point x="411" y="223" type="curve" smooth="yes"/>
			<point x="411" y="94"/>
			<point x="325" y="54"/>
			<point x="264" y="54" type="curve" smooth="yes"/>
			<point x="241.14304" y="54"/>
			<point x="222.750294286" y="60.7600959188"/>
			<point x="208.3206815897" y="69.8616620267" type="curve" smooth="yes"/>
			<point x="182.3470555104" y="86.2446848976"/>
			<point x="169.2143" y="110.21426"/>
			<point x="166" y="116" type="curve"/>
		</contour>
	</outline>
</glyph>
<glyph name="c" format="2">
	<unicode hex="0063"/>
	<advance width="912"/>
	<outline>
		<contour>
			<point x="72" y="444" type="curve" smooth="yes"/>
			<point x="72" y="196"/>
			<point x="258" y="-22"/>
			<point x="518" y="-22" type="curve" smooth="yes"/>
			<point x="658" y="-22"/>
			<point x="764" y="20"/>
			<point x="854" y="74" type="curve"/>
			<point x="854" y="74"/>
			<point x="854" y="74"/>
			<point x="854" y="74" type="curve"/>
			<point x="850" y="121"/>
			<point x="846" y="169"/>
			<point x="842" y="216" type="curve"/>
			<point x="842" y="216"/>
			<point x="842" y="216"/>
			<point x="842" y="216" type="curve"/>
			<point x="842" y="216"/>
			<point x="842" y="216"/>
			<point x="842" y="216" type="curve"/>
			<point x="746" y="150"/>
			<point x="640" y="114"/>
			<point x="520" y="114" type="curve" smooth="yes"/>
			<point x="350" y="114"/>
			<point x="238" y="256"/>
			<point x="238" y="446" type="curve" smooth="yes"/>
			<point x="238" y="600"/>
			<point x="314" y="786"/>
			<point x="528" y="786" type="curve" smooth="yes"/>
			<point x="654" y="786"/>
			<point x="718" y="762"/>
			<point x="818" y="694" type="curve"/>
			<point x="818" y="694"/>
			<point x="818" y="694"/>
			<point x="818" y="694" type="curve"/>
			<point x="818" y="694"/>
			<point x="818" y="694"/>
			<point x="818" y="694" type="curve"/>
			<point x="827" y="741"/>
			<point x="835" y="787"/>
			<point x="844" y="834" type="curve"/>
			<point x="844" y="834"/>
			<point x="844" y="834"/>
			<point x="844" y="834" type="curve"/>
			<point x="732" y="898"/>
			<point x="670" y="922"/>
			<point x="526" y="922" type="curve" smooth="yes"/>
			<point x="242" y="922"/>
			<point x="72" y="682"/>
		</contour>
	</outline>
</glyph>
<glyph name="d" format="2">
	<unicode hex="0064"/>
	<advance width="1060"/>
	<outline>
		<contour>
			<point x="72" y="444" type="curve" smooth="yes"/>
			<point x="72" y="186"/>
			<point x="226" y="-22"/>
			<point x="422" y="-22" type="curve" smooth="yes"/>
			<point x="482" y="-22"/>
			<point x="608" y="-8"/>
			<point x="728" y="104" type="curve"/>
			<point x="728" y="0" type="line"/>
			<point x="728" y="0"/>
			<point x="728" y="0"/>
			<point x="728" y="0" type="curve"/>
			<point x="894" y="0" type="line"/>
			<point x="894" y="0"/>
			<point x="894" y="0"/>
			<point x="894" y="0" type="curve"/>
			<point x="894" y="1388" type="line"/>
			<point x="894" y="1388"/>
			<point x="894" y="1388"/>
			<point x="894" y="1388" type="curve"/>
			<point x="734" y="1388" type="line"/>
			<point x="734" y="1388"/>
			<point x="734" y="1388"/>
			<point x="734" y="1388" type="curve"/>
			<point x="734" y="800" type="line"/>
			<point x="622" y="894"/>
			<point x="494" y="910"/>
			<point x="430" y="910" type="curve" smooth="yes"/>
			<point x="228" y="910"/>
			<point x="72" y="700"/>
		</contour>
		<contour>
			<point x="728" y="282" type="line" smooth="yes"/>
			<point x="728" y="244"/>
			<point x="728" y="240"/>
			<point x="706" y="212" type="curve" smooth="yes"/>
			<point x="652" y="140"/>
			<point x="584" y="108"/>
			<point x="512" y="108" type="curve" smooth="yes"/>
			<point x="382" y="108"/>
			<point x="238" y="202"/>
			<point x="238" y="442" type="curve" smooth="yes"/>
			<point x="238" y="698"/>
			<point x="408" y="780"/>
			<point x="534" y="780" type="curve" smooth="yes"/>
			<point x="626" y="780"/>
			<point x="690" y="728"/>
			<point x="728" y="676" type="curve"/>
		</contour>
	</outline>
</glyph>
<glyph name="e" format="2">
	<unicode hex="0065"/>
	<advance width="456"/>
	<outline>
		<contour>
			<point x="35" y="226" type="curve" smooth="yes"/>
			<point x="35" y="94"/>
			<point x="133" y="-11"/>
			<point x="258" y="-11" type="curve" smooth="yes"/>
			<point x="306" y="-11"/>
			<point x="364" y="1"/>
			<point x="422" y="38" type="curve"/>
			<point x="422" y="38"/>
			<point x="422" y="38"/>
			<point x="422" y="38" type="curve"/>
			<point x="420.002" y="60.977"/>
			<point x="418.004" y="83.954"/>
			<point x="416" y="107" type="curve"/>
			<point x="416" y="107"/>
			<point x="416" y="107"/>
			<point x="416" y="107" type="curve"/>
			<point x="416" y="107"/>
			<point x="416" y="107"/>
			<point x="416" y="107" type="curve"/>
			<point x="353" y="62"/>
			<point x="294" y="54"/>
			<point x="259" y="54" type="curve" smooth="yes"/>
			<point x="176" y="54"/>
			<point x="112" y="127"/>
			<point x="109" y="219" type="curve"/>
			<point x="427" y="219" type="line"/>
			<point x="427" y="219"/>
			<point x="427" y="219"/>
			<point x="427" y="219" type="curve"/>
			<point x="427" y="250"/>
			<point x="426" y="326"/>
			<point x="387" y="386" type="curve" smooth="yes"/>
			<point x="345" y="449"/>
			<point x="281" y="461"/>
			<point x="243" y="461" type="curve" smooth="yes"/>
			<point x="127" y="461"/>
			<point x="35" y="354"/>
		</contour>
		<contour>
			<point x="115" y="278" type="line"/>
			<point x="131" y="342"/>
			<point x="180" y="396"/>
			<point x="243" y="396" type="curve" smooth="yes"/>
			<point x="280" y="396"/>
			<point x="348" y="379"/>
			<point x="367" y="278" type="curve"/>
		</contour>
	</outline>
</glyph>
<glyph name="f" format="2">
	<unicode hex="0066"/>
	<advance width="314"/>
	<outline>
		<contour>
			<point x="103" y="444" type="line"/>
			<point x="28" y="444" type="line"/>
			<point x="28" y="444"/>
			<point x="28" y="444"/>
			<point x="28" y="444" type="curve"/>
			<point x="28" y="382" type="line"/>
			<point x="28" y="382"/>
			<point x="28" y="382"/>
			<point x="28" y="382" type="curve"/>
			<point x="103" y="382" type="line"/>
			<point x="103" y="0" type="line"/>
			<point x="103" y="0"/>
			<point x="103" y="0"/>
			<point x="103" y="0" type="curve"/>
			<point x="183" y="0" type="line"/>
			<point x="183" y="0"/>
			<point x="183" y="0"/>
			<point x="183" y="0" type="curve"/>
			<point x="183" y="382" type="line"/>
			<point x="294" y="382" type="line"/>
			<point x="294" y="382"/>
			<point x="294" y="382"/>
			<point x="294" y="382" type="curve"/>
			<point x="294" y="444" type="line"/>
			<point x="294" y="444"/>
			<point x="294" y="444"/>
			<point x="294" y="444" type="curve"/>
			<point x="180" y="444" type="line"/>
			<point x="180" y="560" type="line" smooth="yes"/>
			<point x="180" y="632"/>
			<point x="245" y="640"/>
			<point x="273" y="640" type="curve" smooth="yes"/>
			<point x="282" y="640"/>
			<point x="315" y="640"/>
			<point x="356" y="623" type="curve"/>
			<point x="356" y="623"/>
			<point x="356" y="623"/>
			<point x="356" y="623" type="curve"/>
			<point x="356" y="623"/>
			<point x="356" y="623"/>
			<point x="356" y="623" type="curve"/>
			<point x="356" y="694" type="line"/>
			<point x="356" y="694"/>
			<point x="356" y="694"/>
			<point x="356" y="694" type="curve"/>
			<point x="344" y="697"/>
			<point x="312" y="705"/>
			<point x="274" y="705" type="curve" smooth="yes"/>
			<point x="177" y="705"/>
			<point x="103" y="632"/>
			<point x="103" y="532" type="curve" smooth="yes"/>
		</contour>
	</outline>
</glyph>
<glyph name="g" format="2">
	<unicode hex="0067"/>
	<advance width="1026"/>
	<outline>
		<contour>
			<point x="58" y="-142" type="curve" smooth="yes"/>
			<point x="58" y="-288"/>
			<point x="254" y="-412"/>
			<point x="512" y="-412" type="curve" smooth="yes"/>
			<point x="770" y="-412"/>
			<point x="968" y="-290"/>
			<point x="968" y="-140" type="curve" smooth="yes"/>
			<point x="968" y="138"/>
			<point x="636" y="142"/>
			<point x="548" y="142" type="curve" smooth="yes"/>
			<point x="364" y="142" type="line" smooth="yes"/>
			<point x="338" y="142"/>
			<point x="248" y="142"/>
			<point x="248" y="246" type="curve" smooth="yes"/>
			<point x="248" y="286"/>
			<point x="256" y="298"/>
			<point x="266" y="314" type="curve"/>
			<point x="320" y="278"/>
			<point x="388" y="256"/>
			<point x="456" y="256" type="curve" smooth="yes"/>
			<point x="640" y="256"/>
			<point x="786" y="406"/>
			<point x="786" y="582" type="curve" smooth="yes"/>
			<point x="786" y="684"/>
			<point x="734" y="764"/>
			<point x="722" y="776" type="curve"/>
			<point x="760" y="786"/>
			<point x="902" y="788"/>
			<point x="998" y="776" type="curve"/>
			<point x="998" y="776"/>
			<point x="998" y="776"/>
			<point x="998" y="776" type="curve"/>
			<point x="998" y="776"/>
			<point x="998" y="776"/>
			<point x="998" y="776" type="curve"/>
			<point x="990" y="821"/>
			<point x="982" y="865"/>
			<point x="974" y="910" type="curve"/>
			<point x="974" y="910"/>
			<point x="974" y="910"/>
			<point x="974" y="910" type="curve"/>
			<point x="936" y="910"/>
			<point x="802" y="910"/>
			<point x="654" y="846" type="curve"/>
			<point x="624" y="868"/>
			<point x="550" y="910"/>
			<point x="456" y="910" type="curve" smooth="yes"/>
			<point x="272" y="910"/>
			<point x="126" y="760"/>
			<point x="126" y="584" type="curve" smooth="yes"/>
			<point x="126" y="534"/>
			<point x="138" y="460"/>
			<point x="194" y="382" type="curve"/>
			<point x="156" y="332"/>
			<point x="136" y="272"/>
			<point x="136" y="216" type="curve" smooth="yes"/>
			<point x="136" y="160"/>
			<point x="156" y="104"/>
			<point x="186" y="66" type="curve"/>
			<point x="82" y="0"/>
			<point x="58" y="-86"/>
		</contour>
		<contour>
			<point x="456" y="376" type="curve" smooth="yes"/>
			<point x="364" y="376"/>
			<point x="274" y="434"/>
			<point x="274" y="582" type="curve" smooth="yes"/>
			<point x="274" y="744"/>
			<point x="376" y="790"/>
			<point x="456" y="790" type="curve" smooth="yes"/>
			<point x="548" y="790"/>
			<point x="638" y="732"/>
			<point x="638" y="584" type="curve" smooth="yes"/>
			<point x="638" y="422"/>
			<point x="536" y="376"/>
		</contour>
		<contour>
			<point x="548" y="-10" type="line" smooth="yes"/>
			<point x="590" y="-10"/>
			<point x="820" y="-10"/>
			<point x="820" y="-142" type="curve" smooth="yes"/>
			<point x="820" y="-230"/>
			<point x="674" y="-292"/>
			<point x="514" y="-292" type="curve" smooth="yes"/>
			<point x="358" y="-292"/>
			<point x="206" y="-234"/>
			<point x="206" y="-140" type="curve" smooth="yes"/>
			<point x="206" y="-136"/>
			<point x="206" y="-10"/>
			<point x="360" y="-10" type="curve" smooth="yes"/>
		</contour>
	</outline>
</glyph>
<glyph name="h" format="2">
	<unicode hex="0068"/>
	<advance width="530"/>
	<outline>
		<contour>
			<point x="449" y="297" type="line" smooth="yes"/>
			<point x="449" y="371"/>
			<point x="429" y="455"/>
			<point x="308" y="455" type="curve" smooth="yes"/>
			<point x="251" y="455"/>
			<point x="197" y="428"/>
			<point x="161" y="383" type="curve"/>
			<point x="161" y="383" type="line"/>
			<point x="161" y="694" type="line"/>
			<point x="161" y="694"/>
			<point x="161" y="694"/>
			<point x="161" y="694" type="curve"/>
			<point x="81" y="694" type="line"/>
			<point x="81" y="694"/>
			<point x="81" y="694"/>
			<point x="81" y="694" type="curve"/>
			<point x="81" y="0" type="line"/>
			<point x="81" y="0"/>
			<point x="81" y="0"/>
			<point x="81" y="0" type="curve"/>
			<point x="164" y="0" type="line"/>
			<point x="164" y="0"/>
			<point x="164" y="0"/>
			<point x="164" y="0" type="curve"/>
			<point x="164" y="244" type="line" smooth="yes"/>
			<point x="164" y="310"/>
			<point x="190" y="390"/>
			<point x="266" y="390" type="curve" smooth="yes"/>
			<point x="366" y="390"/>
			<point x="366" y="319"/>
			<point x="366" y="290" type="curve" smooth="yes"/>
			<point x="366" y="0" type="line"/>
			<point x="366" y="0"/>
			<point x="366" y="0"/>
			<point x="366" y="0" type="curve"/>
			<point x="449" y="0" type="line"/>
			<point x="449" y="0"/>
			<point x="449" y="0"/>
			<point x="449" y="0" type="curve"/>
		</contour>
	</outline>
</glyph>
<glyph name="i" format="2">
	<unicode hex="0069"/>
	<advance width="490"/>
	<outline>
		<contour>
			<point x="148" y="1368" type="curve"/>
			<point x="148" y="1176" type="line"/>
			<point x="148" y="1176"/>
			<point x="148" y="1176"/>
			<point x="148" y="1176" type="curve"/>
			<point x="340" y="1176" type="line"/>
			<point x="340" y="1176"/>
			<point x="340" y="1176"/>
			<point x="340" y="1176" type="curve"/>
			<point x="340" y="1368" type="line"/>
			<point x="340" y="1368"/>
			<point x="340" y="1368"/>
			<point x="340" y="1368" type="curve"/>
			<point x="148" y="1368" type="line"/>
			<point x="148" y="1368"/>
			<point x="148" y="1368"/>
		</contour>
		<contour>
			<point x="164" y="888" type="curve"/>
			<point x="164" y="0" type="line"/>
			<point x="164" y="0"/>
			<point x="164" y="0"/>
			<point x="164" y="0" type="curve"/>
			<point x="324" y="0" type="line"/>
			<point x="324" y="0"/>
			<point x="324" y="0"/>
			<point x="324" y="0" type="curve"/>
			<point x="324" y="888" type="line"/>
			<point x="324" y="888"/>
			<point x="324" y="888"/>
			<point x="324" y="888" type="curve"/>
			<point x="164" y="888" type="line"/>
			<point x="164" y="888"/>
			<point x="164" y="888"/>
		</contour>
	</outline>
</glyph>
<glyph name="k" format="2">
	<unicode hex="006B"/>
	<advance width="502"/>
	<outline>
		<contour>
			<point x="289" y="272" type="line"/>
			<point x="461" y="444" type="line"/>
			<point x="461" y="444"/>
			<point x="461" y="444"/>
			<point x="461" y="444" type="curve"/>
			<point x="461" y="444"/>
			<point x="461" y="444"/>
			<point x="461" y="444" type="curve"/>
			<point x="366" y="444" type="line"/>
			<point x="366" y="444"/>
			<point x="366" y="444"/>
			<point x="366" y="444" type="curve"/>
			<point x="161" y="238" type="line"/>
			<point x="161" y="694" type="line"/>
			<point x="161" y="694"/>
			<point x="161" y="694"/>
			<point x="161" y="694" type="curve"/>
			<point x="85" y="694" type="line"/>
			<point x="85" y="694"/>
			<point x="85" y="694"/>
			<point x="85" y="694" type="curve"/>
			<point x="85" y="0" type="line"/>
			<point x="85" y="0"/>
			<point x="85" y="0"/>
			<point x="85" y="0" type="curve"/>
			<point x="158" y="0" type="line"/>
			<point x="158" y="0"/>
			<point x="158" y="0"/>
			<point x="158" y="0" type="curve"/>
			<point x="158" y="142" type="line"/>
			<point x="239" y="222" type="line"/>
			<point x="398" y="0" type="line"/>
			<point x="398" y="0"/>
			<point x="398" y="0"/>
			<point x="398" y="0" type="curve"/>
			<point x="484" y="0" type="line"/>
			<point x="484" y="0"/>
			<point x="484" y="0"/>
			<point x="484" y="0" type="curve"/>
			<point x="484" y="0"/>
			<point x="484" y="0"/>
			<point x="484" y="0" type="curve"/>
		</contour>
	</outline>
</glyph>
<glyph name="m" format="2">
	<unicode hex="006D"/>
	<advance width="1632"/>
	<outline>
		<contour>
			<point x="1468" y="594" type="line" smooth="yes"/>
			<point x="1468" y="742"/>
			<point x="1428" y="910"/>
			<point x="1186" y="910" type="curve" smooth="yes"/>
			<point x="1018" y="910"/>
			<point x="924" y="808"/>
			<point x="876" y="746" type="curve"/>
			<point x="862" y="786"/>
			<point x="820" y="910"/>
			<point x="616" y="910" type="curve" smooth="yes"/>
			<point x="458" y="910"/>
			<point x="362" y="818"/>
			<point x="316" y="758" type="curve"/>
			<point x="316" y="758" type="line"/>
			<point x="316" y="900" type="line"/>
			<point x="316" y="900"/>
			<point x="316" y="900"/>
			<point x="316" y="900" type="curve"/>
			<point x="162" y="900" type="line"/>
			<point x="162" y="900"/>
			<point x="162" y="900"/>
			<point x="162" y="900" type="curve"/>
			<point x="162" y="0" type="line"/>
			<point x="162" y="0"/>
			<point x="162" y="0"/>
			<point x="162" y="0" type="curve"/>
			<point x="328" y="0" type="line"/>
			<point x="328" y="0"/>
			<point x="328" y="0"/>
			<point x="328" y="0" type="curve"/>
			<point x="328" y="488" type="line" smooth="yes"/>
			<point x="328" y="620"/>
			<point x="380" y="780"/>
			<point x="532" y="780" type="curve" smooth="yes"/>
			<point x="732" y="780"/>
			<point x="732" y="638"/>
			<point x="732" y="580" type="curve" smooth="yes"/>
			<point x="732" y="0" type="line"/>
			<point x="732" y="0"/>
			<point x="732" y="0"/>
			<point x="732" y="0" type="curve"/>
			<point x="898" y="0" type="line"/>
			<point x="898" y="0"/>
			<point x="898" y="0"/>
			<point x="898" y="0" type="curve"/>
			<point x="898" y="488" type="line" smooth="yes"/>
			<point x="898" y="620"/>
			<point x="950" y="780"/>
			<point x="1102" y="780" type="curve" smooth="yes"/>
			<point x="1302" y="780"/>
			<point x="1302" y="638"/>
			<point x="1302" y="580" type="curve" smooth="yes"/>
			<point x="1302" y="0" type="line"/>
			<point x="1302" y="0"/>
			<point x="1302" y="0"/>
			<point x="1302" y="0" type="curve"/>
			<point x="1468" y="0" type="line"/>
			<point x="1468" y="0"/>
			<point x="1468" y="0"/>
			<point x="1468" y="0" type="curve"/>
		</contour>
	</outline>
</glyph>
<glyph name="n" format="2">
	<unicode hex="006E"/>
	<advance width="1060"/>
	<outline>
		<contour>
			<point x="898" y="594" type="line" smooth="yes"/>
			<point x="898" y="742"/>
			<point x="858" y="910"/>
			<point x="616" y="910" type="curve" smooth="yes"/>
			<point x="458" y="910"/>
			<point x="362" y="818"/>
			<point x="316" y="758" type="curve"/>
			<point x="316" y="758" type="line"/>
			<point x="316" y="900" type="line"/>
			<point x="316" y="900"/>
			<point x="316" y="900"/>
			<point x="316" y="900" type="curve"/>
			<point x="162" y="900" type="line"/>
			<point x="162" y="900"/>
			<point x="162" y="900"/>
			<point x="162" y="900" type="curve"/>
			<point x="162" y="0" type="line"/>
			<point x="162" y="0"/>
			<point x="162" y="0"/>
			<point x="162" y="0" type="curve"/>
			<point x="328" y="0" type="line"/>
			<point x="328" y="0"/>
			<point x="328" y="0"/>
			<point x="328" y="0" type="curve"/>
			<point x="328" y="488" type="line" smooth="yes"/>
			<point x="328" y="620"/>
			<point x="380" y="780"/>
			<point x="532" y="780" type="curve" smooth="yes"/>
			<point x="732" y="780"/>
			<point x="732" y="638"/>
			<point x="732" y="580" type="curve" smooth="yes"/>
			<point x="732" y="0" type="line"/>
			<point x="732" y="0"/>
			<point x="732" y="0"/>
			<point x="732" y="0" type="curve"/>
			<point x="898" y="0" type="line"/>
			<point x="898" y="0"/>
			<point x="898" y="0"/>
			<point x="898" y="0" type="curve"/>
		</contour>
	</outline>
</glyph>
<glyph name="o" format="2">
	<unicode hex="006F"/>
	<advance width="1026"/>
	<outline>
		<contour>
			<point x="966" y="440" type="curve" smooth="yes"/>
			<point x="966" y="702"/>
			<point x="766" y="922"/>
			<point x="512" y="922" type="curve" smooth="yes"/>
			<point x="264" y="922"/>
			<point x="60" y="706"/>
			<point x="60" y="440" type="curve" smooth="yes"/>
			<point x="60" y="176"/>
			<point x="270" y="-22"/>
			<point x="512" y="-22" type="curve" smooth="yes"/>
			<point x="760" y="-22"/>
			<point x="966" y="180"/>
		</contour>
		<contour>
			<point x="514" y="114" type="curve" smooth="yes"/>
			<point x="360" y="114"/>
			<point x="226" y="234"/>
			<point x="226" y="460" type="curve" smooth="yes"/>
			<point x="226" y="694"/>
			<point x="376" y="792"/>
			<point x="512" y="792" type="curve" smooth="yes"/>
			<point x="656" y="792"/>
			<point x="800" y="690"/>
			<point x="800" y="460" type="curve" smooth="yes"/>
			<point x="800" y="228"/>
			<point x="660" y="114"/>
		</contour>
	</outline>
</glyph>
<glyph name="p" format="2">
	<unicode hex="0070"/>
	<advance width="1060"/>
	<outline>
		<contour>
			<point x="332" y="92" type="line"/>
			<point x="406" y="22"/>
			<point x="506" y="-22"/>
			<point x="610" y="-22" type="curve" smooth="yes"/>
			<point x="812" y="-22"/>
			<point x="988" y="176"/>
			<point x="988" y="446" type="curve" smooth="yes"/>
			<point x="988" y="686"/>
			<point x="862" y="910"/>
			<point x="668" y="910" type="curve" smooth="yes"/>
			<point x="612" y="910"/>
			<point x="464" y="900"/>
			<point x="326" y="792" type="curve"/>
			<point x="326" y="888" type="line"/>
			<point x="326" y="888"/>
			<point x="326" y="888"/>
			<point x="326" y="888" type="curve"/>
			<point x="166" y="888" type="line"/>
			<point x="166" y="888"/>
			<point x="166" y="888"/>
			<point x="166" y="888" type="curve"/>
			<point x="166" y="-388" type="line"/>
			<point x="166" y="-388"/>
			<point x="166" y="-388"/>
			<point x="166" y="-388" type="curve"/>
			<point x="332" y="-388" type="line"/>
			<point x="332" y="-388"/>
			<point x="332" y="-388"/>
			<point x="332" y="-388" type="curve"/>
		</contour>
		<contour>
			<point x="332" y="664" type="line"/>
			<point x="358" y="700"/>
			<point x="432" y="774"/>
			<point x="546" y="774" type="curve" smooth="yes"/>
			<point x="696" y="774"/>
			<point x="822" y="632"/>
			<point x="822" y="444" type="curve" smooth="yes"/>
			<point x="822" y="252"/>
			<point x="682" y="108"/>
			<point x="526" y="108" type="curve" smooth="yes"/>
			<point x="490" y="108"/>
			<point x="452" y="116"/>
			<point x="415" y="140" type="curve" smooth="yes"/>
			<point x="386" y="159"/>
			<point x="358" y="189"/>
			<point x="332" y="232" type="curve"/>
		</contour>
	</outline>
</glyph>
<glyph name="q" format="2">
  <advance width="530"/>
  <unicode hex="0071"/>
  <outline>
    <contour>
      <point x="447" y="455" type="line"/>
      <point x="367" y="455" type="line"/>
      <point x="367" y="387" type="line"/>
      <point x="349" y="406"/>
      <point x="304" y="455"/>
      <point x="225" y="455" type="curve" smooth="yes"/>
      <point x="124" y="455"/>
      <point x="36" y="356"/>
      <point x="36" y="221" type="curve" smooth="yes"/>
      <point x="36" y="96"/>
      <point x="108" y="-11"/>
      <point x="207" y="-11" type="curve" smooth="yes"/>
      <point x="272" y="-11"/>
      <point x="330" y="19"/>
      <point x="364" y="49" type="curve"/>
      <point x="364" y="-194" type="line"/>
      <point x="447" y="-194" type="line"/>
    </contour>
    <contour>
      <point x="367" y="141" type="line" smooth="yes"/>
      <point x="367" y="127"/>
      <point x="367" y="110"/>
      <point x="332" y="82" type="curve" smooth="yes"/>
      <point x="311" y="64"/>
      <point x="284" y="54"/>
      <point x="257" y="54" type="curve" smooth="yes"/>
      <point x="181" y="54"/>
      <point x="119" y="129"/>
      <point x="119" y="221" type="curve" smooth="yes"/>
      <point x="119" y="320"/>
      <point x="191" y="387"/>
      <point x="267" y="387" type="curve" smooth="yes"/>
      <point x="333" y="387"/>
      <point x="367" y="320"/>
      <point x="367" y="279" type="curve" smooth="yes"/>
    </contour>
  </outline>
</glyph>
<glyph name="r" format="2">
	<unicode hex="0072"/>
	<advance width="702"/>
	<outline>
		<contour>
			<point x="326" y="426" type="line" smooth="yes"/>
			<point x="326" y="636"/>
			<point x="490" y="764"/>
			<point x="672" y="766" type="curve"/>
			<point x="672" y="766"/>
			<point x="672" y="766"/>
			<point x="672" y="766" type="curve"/>
			<point x="672" y="910" type="line"/>
			<point x="672" y="910"/>
			<point x="672" y="910"/>
			<point x="672" y="910" type="curve"/>
			<point x="528" y="908"/>
			<point x="396" y="836"/>
			<point x="314" y="718" type="curve"/>
			<point x="314" y="718" type="line"/>
			<point x="314" y="900" type="line"/>
			<point x="314" y="900"/>
			<point x="314" y="900"/>
			<point x="314" y="900" type="curve"/>
			<point x="166" y="900" type="line"/>
			<point x="166" y="900"/>
			<point x="166" y="900"/>
			<point x="166" y="900" type="curve"/>
			<point x="166" y="0" type="line"/>
			<point x="166" y="0"/>
			<point x="166" y="0"/>
			<point x="166" y="0" type="curve"/>
			<point x="326" y="0" type="line"/>
			<point x="326" y="0"/>
			<point x="326" y="0"/>
			<point x="326" y="0" type="curve"/>
		</contour>
	</outline>
</glyph>
<glyph name="s" format="2">
	<unicode hex="0073"/>
	<advance width="786"/>
	<outline>
		<contour>
			<point x="740" y="258" type="curve" smooth="yes"/>
			<point x="740" y="328"/>
			<point x="712" y="398"/>
			<point x="642" y="458" type="curve" smooth="yes"/>
			<point x="574" y="516"/>
			<point x="514" y="528"/>
			<point x="390" y="552" type="curve" smooth="yes"/>
			<point x="318" y="566"/>
			<point x="218" y="584"/>
			<point x="218" y="678" type="curve" smooth="yes"/>
			<point x="218" y="796"/>
			<point x="360" y="796"/>
			<point x="390" y="796" type="curve" smooth="yes"/>
			<point x="536" y="796"/>
			<point x="622" y="750"/>
			<point x="680" y="718" type="curve"/>
			<point x="680" y="718"/>
			<point x="680" y="718"/>
			<point x="680" y="718" type="curve"/>
			<point x="680" y="718"/>
			<point x="680" y="718"/>
			<point x="680" y="718" type="curve"/>
			<point x="689" y="765"/>
			<point x="697" y="811"/>
			<point x="706" y="858" type="curve"/>
			<point x="664" y="877"/>
			<point x="626" y="890"/>
			<point x="591" y="900" type="curve" smooth="yes"/>
			<point x="521" y="918"/>
			<point x="462" y="922"/>
			<point x="408" y="922" type="curve" smooth="yes"/>
			<point x="362" y="922"/>
			<point x="68" y="922"/>
			<point x="68" y="658" type="curve" smooth="yes"/>
			<point x="68" y="562"/>
			<point x="124" y="500"/>
			<point x="148" y="480" type="curve" smooth="yes"/>
			<point x="224" y="416"/>
			<point x="276" y="404"/>
			<point x="412" y="378" type="curve" smooth="yes"/>
			<point x="476" y="366"/>
			<point x="590" y="344"/>
			<point x="590" y="242" type="curve" smooth="yes"/>
			<point x="590" y="112"/>
			<point x="428" y="112"/>
			<point x="402" y="112" type="curve" smooth="yes"/>
			<point x="284" y="112"/>
			<point x="170" y="152"/>
			<point x="84" y="212" type="curve"/>
			<point x="84" y="212"/>
			<point x="84" y="212"/>
			<point x="84" y="212" type="curve"/>
			<point x="84" y="212"/>
			<point x="84" y="212"/>
			<point x="84" y="212" type="curve"/>
			<point x="75" y="163"/>
			<point x="67" y="115"/>
			<point x="58" y="66" type="curve"/>
			<point x="112" y="37"/>
			<point x="166" y="17"/>
			<point x="218" y="3" type="curve" smooth="yes"/>
			<point x="283" y="-15"/>
			<point x="346" y="-22"/>
			<point x="402" y="-22" type="curve" smooth="yes"/>
			<point x="476" y="-22"/>
			<point x="576" y="-8"/>
			<point x="648" y="48" type="curve" smooth="yes"/>
			<point x="702" y="90"/>
			<point x="740" y="156"/>
		</contour>
	</outline>
</glyph>
<glyph name="t" format="2">
	<unicode hex="0074"/>
	<advance width="742"/>
	<outline>
		<contour>
			<point x="362" y="764" type="line"/>
			<point x="650" y="764" type="line"/>
			<point x="650" y="764"/>
			<point x="650" y="764"/>
			<point x="650" y="764" type="curve"/>
			<point x="650" y="888" type="line"/>
			<point x="650" y="888"/>
			<point x="650" y="888"/>
			<point x="650" y="888" type="curve"/>
			<point x="362" y="888" type="line"/>
			<point x="362" y="1142" type="line"/>
			<point x="362" y="1142"/>
			<point x="362" y="1142"/>
			<point x="362" y="1142" type="curve"/>
			<point x="214" y="1142" type="line"/>
			<point x="214" y="1142"/>
			<point x="214" y="1142"/>
			<point x="214" y="1142" type="curve"/>
			<point x="214" y="888" type="line"/>
			<point x="38" y="888" type="line"/>
			<point x="38" y="888"/>
			<point x="38" y="888"/>
			<point x="38" y="888" type="curve"/>
			<point x="38" y="764" type="line"/>
			<point x="38" y="764"/>
			<point x="38" y="764"/>
			<point x="38" y="764" type="curve"/>
			<point x="208" y="764" type="line"/>
			<point x="208" y="252" type="line" smooth="yes"/>
			<point x="208" y="134"/>
			<point x="234" y="-22"/>
			<point x="380" y="-22" type="curve" smooth="yes"/>
			<point x="468" y="-22"/>
			<point x="572" y="-4"/>
			<point x="684" y="52" type="curve"/>
			<point x="684" y="52"/>
			<point x="684" y="52"/>
			<point x="684" y="52" type="curve"/>
			<point x="673" y="94"/>
			<point x="661" y="136"/>
			<point x="650" y="178" type="curve"/>
			<point x="650" y="178"/>
			<point x="650" y="178"/>
			<point x="650" y="178" type="curve"/>
			<point x="650" y="178"/>
			<point x="650" y="178"/>
			<point x="650" y="178" type="curve"/>
			<point x="598" y="138"/>
			<point x="528" y="114"/>
			<point x="466" y="114" type="curve" smooth="yes"/>
			<point x="388" y="114"/>
			<point x="362" y="184"/>
			<point x="362" y="288" type="curve" smooth="yes"/>
		</contour>
	</outline>
</glyph>
<glyph name="u" format="2">
	<unicode hex="0075"/>
	<advance width="530"/>
	<outline>
		<contour>
			<point x="186" y="-11" type="curve" smooth="yes"/>
			<point x="244" y="-11"/>
			<point x="322" y="6"/>
			<point x="369" y="48" type="curve"/>
			<point x="369" y="0" type="line"/>
			<point x="369" y="0"/>
			<point x="369" y="0"/>
			<point x="369" y="0" type="curve"/>
			<point x="449" y="0" type="line"/>
			<point x="449" y="0"/>
			<point x="449" y="0"/>
			<point x="449" y="0" type="curve"/>
			<point x="449" y="444" type="line"/>
			<point x="449" y="444"/>
			<point x="449" y="444"/>
			<point x="449" y="444" type="curve"/>
			<point x="366" y="444" type="line"/>
			<point x="366" y="444"/>
			<point x="366" y="444"/>
			<point x="366" y="444" type="curve"/>
			<point x="366" y="155" type="line" smooth="yes"/>
			<point x="366" y="75"/>
			<point x="303" y="48"/>
			<point x="243" y="48" type="curve" smooth="yes"/>
			<point x="171" y="48"/>
			<point x="164" y="71"/>
			<point x="164" y="114" type="curve" smooth="yes"/>
			<point x="164" y="444" type="line"/>
			<point x="164" y="444"/>
			<point x="164" y="444"/>
			<point x="164" y="444" type="curve"/>
			<point x="81" y="444" type="line"/>
			<point x="81" y="444"/>
			<point x="81" y="444"/>
			<point x="81" y="444" type="curve"/>
			<point x="81" y="109" type="line" smooth="yes"/>
			<point x="81" y="24"/>
			<point x="115" y="-11"/>
		</contour>
	</outline>
</glyph>
<glyph name="v" format="2">
	<unicode hex="0076"/>
	<advance width="946"/>
	<outline>
		<contour>
			<point x="380" y="0" type="line"/>
			<point x="380" y="0"/>
			<point x="380" y="0"/>
			<point x="380" y="0" type="curve"/>
			<point x="566" y="0" type="line"/>
			<point x="566" y="0"/>
			<point x="566" y="0"/>
			<point x="566" y="0" type="curve"/>
			<point x="918" y="888" type="line"/>
			<point x="918" y="888"/>
			<point x="918" y="888"/>
			<point x="918" y="888" type="curve"/>
			<point x="918" y="888"/>
			<point x="918" y="888"/>
			<point x="918" y="888" type="curve"/>
			<point x="760" y="888" type="line"/>
			<point x="760" y="888"/>
			<point x="760" y="888"/>
			<point x="760" y="888" type="curve"/>
			<point x="602" y="482" type="line" smooth="yes"/>
			<point x="562" y="378"/>
			<point x="488" y="184"/>
			<point x="478" y="110" type="curve"/>
			<point x="474" y="110" type="line"/>
			<point x="470" y="144"/>
			<point x="466" y="182"/>
			<point x="354" y="470" type="curve" smooth="yes"/>
			<point x="192" y="888" type="line"/>
			<point x="192" y="888"/>
			<point x="192" y="888"/>
			<point x="192" y="888" type="curve"/>
			<point x="28" y="888" type="line"/>
			<point x="28" y="888"/>
			<point x="28" y="888"/>
			<point x="28" y="888" type="curve"/>
			<point x="28" y="888"/>
			<point x="28" y="888"/>
			<point x="28" y="888" type="curve"/>
		</contour>
	</outline>
</glyph>
<glyph name="w" format="2">
	<unicode hex="0077"/>
	<advance width="702"/>
	<outline>
		<contour>
			<point x="155" y="0" type="line"/>
			<point x="155" y="0"/>
			<point x="155" y="0"/>
			<point x="155" y="0" type="curve"/>
			<point x="238" y="0" type="line"/>
			<point x="238" y="0"/>
			<point x="238" y="0"/>
			<point x="238" y="0" type="curve"/>
			<point x="308" y="226"/>
			<point x="342" y="330"/>
			<point x="346" y="387" type="curve"/>
			<point x="347" y="387" type="line"/>
			<point x="355" y="337"/>
			<point x="369" y="279"/>
			<point x="379" y="247" type="curve" smooth="yes"/>
			<point x="404.308" y="164.749"/>
			<point x="429.616" y="82.498"/>
			<point x="455" y="0" type="curve"/>
			<point x="455" y="0"/>
			<point x="455" y="0"/>
			<point x="455" y="0" type="curve"/>
			<point x="546" y="0" type="line"/>
			<point x="546" y="0"/>
			<point x="546" y="0"/>
			<point x="546" y="0" type="curve"/>
			<point x="687" y="444" type="line"/>
			<point x="687" y="444"/>
			<point x="687" y="444"/>
			<point x="687" y="444" type="curve"/>
			<point x="610" y="444" type="line"/>
			<point x="610" y="444"/>
			<point x="610" y="444"/>
			<point x="610" y="444" type="curve"/>
			<point x="594.682" y="395.715"/>
			<point x="579.364" y="347.43"/>
			<point x="564" y="299" type="curve" smooth="yes"/>
			<point x="534" y="203"/>
			<point x="502" y="93"/>
			<point x="498" y="56" type="curve"/>
			<point x="497" y="56" type="line"/>
			<point x="491" y="98"/>
			<point x="470" y="166"/>
			<point x="453" y="222" type="curve" smooth="yes"/>
			<point x="384" y="444" type="line"/>
			<point x="384" y="444"/>
			<point x="384" y="444"/>
			<point x="384" y="444" type="curve"/>
			<point x="310" y="444" type="line"/>
			<point x="310" y="444"/>
			<point x="310" y="444"/>
			<point x="310" y="444" type="curve"/>
			<point x="278" y="346"/>
			<point x="207" y="122"/>
			<point x="203" y="59" type="curve"/>
			<point x="202" y="59" type="line"/>
			<point x="199" y="96"/>
			<point x="173" y="187"/>
			<point x="154" y="249" type="curve" smooth="yes"/>
			<point x="94" y="444" type="line"/>
			<point x="94" y="444"/>
			<point x="94" y="444"/>
			<point x="94" y="444" type="curve"/>
			<point x="14" y="444" type="line"/>
			<point x="14" y="444"/>
			<point x="14" y="444"/>
			<point x="14" y="444" type="curve"/>
		</contour>
	</outline>
</glyph>
<glyph name="x" format="2">
	<unicode hex="0078"/>
	<advance width="473"/>
	<outline>
		<contour>
			<point x="199" y="229" type="line"/>
			<point x="0" y="0" type="line"/>
			<point x="0" y="0"/>
			<point x="0" y="0"/>
			<point x="0" y="0" type="curve"/>
			<point x="0" y="0"/>
			<point x="0" y="0"/>
			<point x="0" y="0" type="curve"/>
			<point x="87" y="0" type="line"/>
			<point x="87" y="0"/>
			<point x="87" y="0"/>
			<point x="87" y="0" type="curve"/>
			<point x="234" y="187" type="line"/>
			<point x="385" y="0" type="line"/>
			<point x="385" y="0"/>
			<point x="385" y="0"/>
			<point x="385" y="0" type="curve"/>
			<point x="473" y="0" type="line"/>
			<point x="473" y="0"/>
			<point x="473" y="0"/>
			<point x="473" y="0" type="curve"/>
			<point x="473" y="0"/>
			<point x="473" y="0"/>
			<point x="473" y="0" type="curve"/>
			<point x="268" y="229" type="line"/>
			<point x="456" y="444" type="line"/>
			<point x="456" y="444"/>
			<point x="456" y="444"/>
			<point x="456" y="444" type="curve"/>
			<point x="456" y="444"/>
			<point x="456" y="444"/>
			<point x="456" y="444" type="curve"/>
			<point x="369" y="444" type="line"/>
			<point x="369" y="444"/>
			<point x="369" y="444"/>
			<point x="369" y="444" type="curve"/>
			<point x="324.045" y="389.721"/>
			<point x="279.09" y="335.442"/>
			<point x="234" y="281" type="curve"/>
			<point x="93" y="444" type="line"/>
			<point x="93" y="444"/>
			<point x="93" y="444"/>
			<point x="93" y="444" type="curve"/>
			<point x="6" y="444" type="line"/>
			<point x="6" y="444"/>
			<point x="6" y="444"/>
			<point x="6" y="444" type="curve"/>
			<point x="6" y="444"/>
			<point x="6" y="444"/>
			<point x="6" y="444" type="curve"/>
		</contour>
	</outline>
</glyph>
<glyph name="y" format="2">
	<unicode hex="0079"/>
	<advance width="946"/>
	<outline>
		<contour>
			<point x="918" y="888" type="line"/>
			<point x="918" y="888"/>
			<point x="918" y="888"/>
			<point x="918" y="888" type="curve"/>
			<point x="918" y="888"/>
			<point x="918" y="888"/>
			<point x="918" y="888" type="curve"/>
			<point x="760" y="888" type="line"/>
			<point x="760" y="888"/>
			<point x="760" y="888"/>
			<point x="760" y="888" type="curve"/>
			<point x="608" y="524"/>
			<point x="498" y="258"/>
			<point x="488" y="118" type="curve"/>
			<point x="488" y="120" type="line"/>
			<point x="472" y="276"/>
			<point x="276" y="706"/>
			<point x="196" y="888" type="curve"/>
			<point x="196" y="888"/>
			<point x="196" y="888"/>
			<point x="196" y="888" type="curve"/>
			<point x="28" y="888" type="line"/>
			<point x="28" y="888"/>
			<point x="28" y="888"/>
			<point x="28" y="888" type="curve"/>
			<point x="28" y="888"/>
			<point x="28" y="888"/>
			<point x="28" y="888" type="curve"/>
			<point x="428" y="0" type="line"/>
			<point x="403" y="-59"/>
			<point x="379" y="-119"/>
			<point x="354" y="-178" type="curve" smooth="yes"/>
			<point x="302" y="-290"/>
			<point x="264" y="-290"/>
			<point x="236" y="-290" type="curve" smooth="yes"/>
			<point x="204" y="-290"/>
			<point x="134" y="-282"/>
			<point x="74" y="-256" type="curve"/>
			<point x="74" y="-256"/>
			<point x="74" y="-256"/>
			<point x="74" y="-256" type="curve"/>
			<point x="74" y="-256"/>
			<point x="74" y="-256"/>
			<point x="74" y="-256" type="curve"/>
			<point x="78" y="-302"/>
			<point x="82" y="-348"/>
			<point x="86" y="-394" type="curve"/>
			<point x="92" y="-396"/>
			<point x="166" y="-410"/>
			<point x="234" y="-410" type="curve" smooth="yes"/>
			<point x="288" y="-410"/>
			<point x="374" y="-410"/>
			<point x="474" y="-172" type="curve" smooth="yes"/>
		</contour>
	</outline>
</glyph>
<glyph name="z" format="2">
	<unicode hex="007A"/>
	<advance width="446"/>
	<outline>
		<contour>
			<point x="297" y="382" type="line"/>
			<point x="29" y="43" type="line"/>
			<point x="29" y="43"/>
			<point x="29" y="43"/>
			<point x="29" y="43" type="curve"/>
			<point x="29" y="0" type="line"/>
			<point x="29" y="0"/>
			<point x="29" y="0"/>
			<point x="29" y="0" type="curve"/>
			<point x="413" y="0" type="line"/>
			<point x="413" y="0"/>
			<point x="413" y="0"/>
			<point x="413" y="0" type="curve"/>
			<point x="413" y="66" type="line"/>
			<point x="413" y="66"/>
			<point x="413" y="66"/>
			<point x="413" y="66" type="curve"/>
			<point x="363.05" y="66"/>
			<point x="313.1" y="66"/>
			<point x="263" y="66" type="curve" smooth="yes"/>
			<point x="251" y="66"/>
			<point x="239" y="65"/>
			<point x="227" y="65" type="curve" smooth="yes"/>
			<point x="143" y="65" type="line"/>
			<point x="410" y="403" type="line"/>
			<point x="410" y="403"/>
			<point x="410" y="403"/>
			<point x="410" y="403" type="curve"/>
			<point x="410" y="444" type="line"/>
			<point x="410" y="444"/>
			<point x="410" y="444"/>
			<point x="410" y="444" type="curve"/>
			<point x="43" y="444" type="line"/>
			<point x="43" y="444"/>
			<point x="43" y="444"/>
			<point x="43" y="444" type="curve"/>
			<point x="43" y="381" type="line"/>
			<point x="43" y="381"/>
			<point x="43" y="381"/>
			<point x="43" y="381" type="curve"/>
			<point x="89.953" y="381"/>
			<point x="136.906" y="381"/>
			<point x="184" y="381" type="curve" smooth="yes"/>
			<point x="196" y="381"/>
			<point x="208" y="382"/>
			<point x="220" y="382" type="curve" smooth="yes"/>
		</contour>
	</outline>
</glyph>
<glyph name="exclamdown" format="2">
	<unicode hex="00A1"/>
	<advance width="325"/>
	<outline>
		<contour>
			<point x="201" y="133" type="curve" smooth="yes"/>
			<point x="200" y="196"/>
			<point x="199.002" y="259.54"/>
			<point x="198" y="323" type="curve"/>
			<point x="198" y="323"/>
			<point x="198" y="323"/>
			<point x="198" y="323" type="curve"/>
			<point x="128" y="323" type="line"/>
			<point x="128" y="323"/>
			<point x="128" y="323"/>
			<point x="128" y="323" type="curve"/>
			<point x="127.001" y="259.73"/>
			<point x="126" y="196"/>
			<point x="125" y="133" type="curve" smooth="yes"/>
			<point x="123" y="24"/>
			<point x="121.67" y="-84.782"/>
			<point x="120" y="-194" type="curve"/>
			<point x="120" y="-194"/>
			<point x="120" y="-194"/>
			<point x="120" y="-194" type="curve"/>
			<point x="206" y="-194" type="line"/>
			<point x="206" y="-194"/>
			<point x="206" y="-194"/>
			<point x="206" y="-194" type="curve"/>
			<point x="204.335" y="-85.109"/>
			<point x="203" y="24"/>
		</contour>
		<contour>
			<point x="206" y="500" type="line"/>
			<point x="206" y="500"/>
			<point x="206" y="500"/>
			<point x="206" y="500" type="curve"/>
			<point x="120" y="500" type="line"/>
			<point x="120" y="500"/>
			<point x="120" y="500"/>
			<point x="120" y="500" type="curve"/>
			<point x="120" y="414" type="line"/>
			<point x="120" y="414"/>
			<point x="120" y="414"/>
			<point x="120" y="414" type="curve"/>
			<point x="206" y="414" type="line"/>
			<point x="206" y="414"/>
			<point x="206" y="414"/>
			<point x="206" y="414" type="curve"/>
		</contour>
	</outline>
</glyph>
<glyph name="dieresis" format="2">
	<unicode hex="00A8"/>
	<advance width="513"/>
	<outline>
		<contour>
			<point x="202" y="684" type="line"/>
			<point x="112" y="684" type="line"/>
			<point x="112" y="594" type="line"/>
			<point x="202" y="594" type="line"/>
		</contour>
		<contour>
			<point x="401" y="684" type="line"/>
			<point x="311" y="684" type="line"/>
			<point x="311" y="594" type="line"/>
			<point x="401" y="594" type="line"/>
		</contour>
	</outline>
</glyph>
<glyph name="macron" format="2">
	<unicode hex="00AF"/>
	<advance width="1026"/>
	<outline>
		<contour>
			<point x="884" y="1132" type="curve"/>
			<point x="884" y="1270" type="line"/>
			<point x="884" y="1270"/>
			<point x="884" y="1270"/>
			<point x="884" y="1270" type="curve"/>
			<point x="142" y="1270" type="line"/>
			<point x="142" y="1270"/>
			<point x="142" y="1270"/>
			<point x="142" y="1270" type="curve"/>
			<point x="142" y="1132" type="line"/>
			<point x="142" y="1132"/>
			<point x="142" y="1132"/>
			<point x="142" y="1132" type="curve"/>
			<point x="884" y="1132" type="line"/>
			<point x="884" y="1132"/>
			<point x="884" y="1132"/>
		</contour>
	</outline>
</glyph>
<glyph name="acute" format="2">
	<unicode hex="00B4"/>
	<advance width="1026"/>
	<outline>
		<contour>
			<point x="854" y="1388" type="line"/>
			<point x="854" y="1388"/>
			<point x="854" y="1388"/>
			<point x="854" y="1388" type="curve"/>
			<point x="854" y="1388"/>
			<point x="854" y="1388"/>
			<point x="854" y="1388" type="curve"/>
			<point x="688" y="1388" type="line"/>
			<point x="688" y="1388"/>
			<point x="688" y="1388"/>
			<point x="688" y="1388" type="curve"/>
			<point x="420" y="1054" type="line"/>
			<point x="420" y="1054"/>
			<point x="420" y="1054"/>
			<point x="420" y="1054" type="curve"/>
			<point x="420" y="1054"/>
			<point x="420" y="1054"/>
			<point x="420" y="1054" type="curve"/>
			<point x="550" y="1054" type="line"/>
			<point x="550" y="1054"/>
			<point x="550" y="1054"/>
			<point x="550" y="1054" type="curve"/>
		</contour>
	</outline>
</glyph>
<glyph name="cedilla" format="2">
	<unicode hex="00B8"/>
	<advance width="456"/>
	<outline>
		<contour>
			<point x="289" y="-24" type="line"/>
			<point x="289" y="-24"/>
			<point x="289" y="-24"/>
			<point x="289" y="-24" type="curve"/>
			<point x="289" y="-24"/>
			<point x="289" y="-24"/>
			<point x="289" y="-24" type="curve"/>
			<point x="224" y="-24" type="line"/>
			<point x="224" y="-24"/>
			<point x="224" y="-24"/>
			<point x="224" y="-24" type="curve"/>
			<point x="198.692" y="-79.944"/>
			<point x="173.384" y="-135.888"/>
			<point x="148" y="-192" type="curve"/>
			<point x="148" y="-192"/>
			<point x="148" y="-192"/>
			<point x="148" y="-192" type="curve"/>
			<point x="148" y="-192"/>
			<point x="148" y="-192"/>
			<point x="148" y="-192" type="curve"/>
			<point x="222" y="-192" type="line"/>
			<point x="222" y="-192"/>
			<point x="222" y="-192"/>
			<point x="222" y="-192" type="curve"/>
		</contour>
	</outline>
</glyph>
<glyph name="questiondown" format="2">
	<unicode hex="00BF"/>
	<advance width="970"/>
	<outline>
		<contour>
			<point x="542" y="828" type="curve"/>
			<point x="542" y="1000" type="line"/>
			<point x="542" y="1000"/>
			<point x="542" y="1000"/>
			<point x="542" y="1000" type="curve"/>
			<point x="370" y="1000" type="line"/>
			<point x="370" y="1000"/>
			<point x="370" y="1000"/>
			<point x="370" y="1000" type="curve"/>
			<point x="370" y="828" type="line"/>
			<point x="370" y="828"/>
			<point x="370" y="828"/>
			<point x="370" y="828" type="curve"/>
			<point x="542" y="828" type="line"/>
			<point x="542" y="828"/>
			<point x="542" y="828"/>
		</contour>
		<contour>
			<point x="114" y="-98" type="curve" smooth="yes"/>
			<point x="114" y="-254"/>
			<point x="196" y="-410"/>
			<point x="460" y="-410" type="curve" smooth="yes"/>
			<point x="566" y="-410"/>
			<point x="710" y="-386"/>
			<point x="854" y="-304" type="curve"/>
			<point x="854" y="-304"/>
			<point x="854" y="-304"/>
			<point x="854" y="-304" type="curve"/>
			<point x="838" y="-259"/>
			<point x="822" y="-215"/>
			<point x="806" y="-170" type="curve"/>
			<point x="806" y="-170"/>
			<point x="806" y="-170"/>
			<point x="806" y="-170" type="curve"/>
			<point x="806" y="-170"/>
			<point x="806" y="-170"/>
			<point x="806" y="-170" type="curve"/>
			<point x="674" y="-262"/>
			<point x="540" y="-280"/>
			<point x="458" y="-280" type="curve" smooth="yes"/>
			<point x="338" y="-280"/>
			<point x="280" y="-234"/>
			<point x="280" y="-102" type="curve" smooth="yes"/>
			<point x="280" y="-12"/>
			<point x="310" y="16"/>
			<point x="334" y="44" type="curve" smooth="yes"/>
			<point x="504" y="232"/>
			<point x="526" y="432"/>
			<point x="526" y="582" type="curve" smooth="yes"/>
			<point x="526" y="646" type="line"/>
			<point x="526" y="646"/>
			<point x="526" y="646"/>
			<point x="526" y="646" type="curve"/>
			<point x="386" y="646" type="line"/>
			<point x="386" y="646"/>
			<point x="386" y="646"/>
			<point x="386" y="646" type="curve"/>
			<point x="386" y="536" type="line" smooth="yes"/>
			<point x="386" y="464"/>
			<point x="370" y="300"/>
			<point x="216" y="146" type="curve" smooth="yes"/>
			<point x="174" y="102"/>
			<point x="114" y="42"/>
		</contour>
	</outline>
</glyph>
<glyph name="AE" format="2">
	<unicode hex="00C6"/>
	<advance width="885"/>
	<outline>
		<contour>
			<point x="431" y="219" type="line"/>
			<point x="431" y="0" type="line"/>
			<point x="431" y="0"/>
			<point x="431" y="0"/>
			<point x="431" y="0" type="curve"/>
			<point x="842" y="0" type="line"/>
			<point x="842" y="0"/>
			<point x="842" y="0"/>
			<point x="842" y="0" type="curve"/>
			<point x="842" y="76" type="line"/>
			<point x="842" y="76"/>
			<point x="842" y="76"/>
			<point x="842" y="76" type="curve"/>
			<point x="736.772" y="75.334"/>
			<point x="631.544" y="74.668"/>
			<point x="526" y="74" type="curve"/>
			<point x="526" y="328" type="line"/>
			<point x="799" y="328" type="line"/>
			<point x="799" y="328"/>
			<point x="799" y="328"/>
			<point x="799" y="328" type="curve"/>
			<point x="799" y="393" type="line"/>
			<point x="799" y="393"/>
			<point x="799" y="393"/>
			<point x="799" y="393" type="curve"/>
			<point x="526" y="393" type="line"/>
			<point x="526" y="626" type="line"/>
			<point x="626.566" y="625.334"/>
			<point x="727.132" y="624.668"/>
			<point x="828" y="624" type="curve"/>
			<point x="828" y="624"/>
			<point x="828" y="624"/>
			<point x="828" y="624" type="curve"/>
			<point x="828" y="694" type="line"/>
			<point x="828" y="694"/>
			<point x="828" y="694"/>
			<point x="828" y="694" type="curve"/>
			<point x="320" y="694" type="line"/>
			<point x="320" y="694"/>
			<point x="320" y="694"/>
			<point x="320" y="694" type="curve"/>
			<point x="29" y="0" type="line"/>
			<point x="29" y="0"/>
			<point x="29" y="0"/>
			<point x="29" y="0" type="curve"/>
			<point x="29" y="0"/>
			<point x="29" y="0"/>
			<point x="29" y="0" type="curve"/>
			<point x="109" y="0" type="line"/>
			<point x="109" y="0"/>
			<point x="109" y="0"/>
			<point x="109" y="0" type="curve"/>
			<point x="200" y="219" type="line"/>
		</contour>
		<contour>
			<point x="225" y="278" type="line"/>
			<point x="371" y="626" type="line"/>
			<point x="431" y="626" type="line"/>
			<point x="431" y="278" type="line"/>
		</contour>
	</outline>
</glyph>
<glyph name="Oslash" format="2">
	<unicode hex="00D8"/>
	<advance width="1598"/>
	<outline>
		<contour>
			<point x="490" y="34" type="line"/>
			<point x="586" y="-16"/>
			<point x="686" y="-44"/>
			<point x="798" y="-44" type="curve" smooth="yes"/>
			<point x="1170" y="-44"/>
			<point x="1482" y="278"/>
			<point x="1482" y="688" type="curve" smooth="yes"/>
			<point x="1482" y="932"/>
			<point x="1374" y="1146"/>
			<point x="1218" y="1274" type="curve"/>
			<point x="1252" y="1333"/>
			<point x="1286" y="1393"/>
			<point x="1320" y="1452" type="curve"/>
			<point x="1320" y="1452"/>
			<point x="1320" y="1452"/>
			<point x="1320" y="1452" type="curve"/>
			<point x="1281" y="1475"/>
			<point x="1241" y="1497"/>
			<point x="1202" y="1520" type="curve"/>
			<point x="1202" y="1520"/>
			<point x="1202" y="1520"/>
			<point x="1202" y="1520" type="curve"/>
			<point x="1106" y="1354" type="line"/>
			<point x="1026" y="1396"/>
			<point x="914" y="1432"/>
			<point x="798" y="1432" type="curve" smooth="yes"/>
			<point x="426" y="1432"/>
			<point x="114" y="1104"/>
			<point x="114" y="688" type="curve" smooth="yes"/>
			<point x="114" y="422"/>
			<point x="246" y="216"/>
			<point x="378" y="112" type="curve"/>
			<point x="344" y="53"/>
			<point x="310" y="-5"/>
			<point x="276" y="-64" type="curve"/>
			<point x="276" y="-64"/>
			<point x="276" y="-64"/>
			<point x="276" y="-64" type="curve"/>
			<point x="315" y="-87"/>
			<point x="355" y="-109"/>
			<point x="394" y="-132" type="curve"/>
			<point x="394" y="-132"/>
			<point x="394" y="-132"/>
			<point x="394" y="-132" type="curve"/>
		</contour>
		<contour>
			<point x="452" y="238" type="line"/>
			<point x="342" y="360"/>
			<point x="296" y="524"/>
			<point x="296" y="688" type="curve" smooth="yes"/>
			<point x="296" y="1082"/>
			<point x="540" y="1302"/>
			<point x="798" y="1302" type="curve" smooth="yes"/>
			<point x="868" y="1302"/>
			<point x="946" y="1286"/>
			<point x="1036" y="1236" type="curve"/>
		</contour>
		<contour>
			<point x="1142" y="1146" type="line"/>
			<point x="1282" y="992"/>
			<point x="1300" y="796"/>
			<point x="1300" y="688" type="curve" smooth="yes"/>
			<point x="1300" y="304"/>
			<point x="1058" y="86"/>
			<point x="798" y="86" type="curve" smooth="yes"/>
			<point x="706" y="86"/>
			<point x="630" y="112"/>
			<point x="560" y="152" type="curve"/>
		</contour>
	</outline>
</glyph>
<glyph name="germandbls" format="2">
	<unicode hex="00DF"/>
	<advance width="493"/>
	<outline>
		<contour>
			<point x="341" y="409" type="curve"/>
			<point x="417" y="455"/>
			<point x="436" y="518"/>
			<point x="436" y="557" type="curve" smooth="yes"/>
			<point x="436" y="639"/>
			<point x="357" y="705"/>
			<point x="259" y="705" type="curve" smooth="yes"/>
			<point x="183" y="705"/>
			<point x="83" y="660"/>
			<point x="83" y="549" type="curve" smooth="yes"/>
			<point x="83" y="0" type="line"/>
			<point x="83" y="0"/>
			<point x="83" y="0"/>
			<point x="83" y="0" type="curve"/>
			<point x="163" y="0" type="line"/>
			<point x="163" y="0"/>
			<point x="163" y="0"/>
			<point x="163" y="0" type="curve"/>
			<point x="163" y="547" type="line" smooth="yes"/>
			<point x="163" y="563"/>
			<point x="162" y="640"/>
			<point x="259" y="640" type="curve" smooth="yes"/>
			<point x="315" y="640"/>
			<point x="354" y="607"/>
			<point x="354" y="557" type="curve" smooth="yes"/>
			<point x="354" y="511"/>
			<point x="319" y="446"/>
			<point x="220" y="444" type="curve"/>
			<point x="220" y="444"/>
			<point x="220" y="444"/>
			<point x="220" y="444" type="curve"/>
			<point x="220" y="379" type="line"/>
			<point x="220" y="379"/>
			<point x="220" y="379"/>
			<point x="220" y="379" type="curve"/>
			<point x="321" y="377"/>
			<point x="382" y="284"/>
			<point x="382" y="180" type="curve" smooth="yes"/>
			<point x="382" y="95"/>
			<point x="335" y="54"/>
			<point x="283" y="54" type="curve" smooth="yes"/>
			<point x="273" y="54"/>
			<point x="245" y="56"/>
			<point x="216" y="69" type="curve"/>
			<point x="216" y="69"/>
			<point x="216" y="69"/>
			<point x="216" y="69" type="curve"/>
			<point x="193" y="7" type="line"/>
			<point x="193" y="7"/>
			<point x="193" y="7"/>
			<point x="193" y="7" type="curve"/>
			<point x="224" y="-6"/>
			<point x="259" y="-11"/>
			<point x="283" y="-11" type="curve" smooth="yes"/>
			<point x="385" y="-11"/>
			<point x="464" y="73"/>
			<point x="464" y="179" type="curve" smooth="yes"/>
			<point x="464" y="280"/>
			<point x="411" y="366"/>
		</contour>
	</outline>
</glyph>
<glyph name="ae" format="2">
	<unicode hex="00E6"/>
	<advance width="1484"/>
	<outline>
		<contour>
			<point x="332" y="-22" type="curve" smooth="yes"/>
			<point x="392" y="-22"/>
			<point x="670" y="-22"/>
			<point x="780" y="128" type="curve"/>
			<point x="850" y="50"/>
			<point x="966" y="-22"/>
			<point x="1116" y="-22" type="curve" smooth="yes"/>
			<point x="1226" y="-22"/>
			<point x="1332" y="16"/>
			<point x="1414" y="76" type="curve"/>
			<point x="1414" y="76"/>
			<point x="1414" y="76"/>
			<point x="1414" y="76" type="curve"/>
			<point x="1410" y="122"/>
			<point x="1406" y="168"/>
			<point x="1402" y="214" type="curve"/>
			<point x="1402" y="214"/>
			<point x="1402" y="214"/>
			<point x="1402" y="214" type="curve"/>
			<point x="1402" y="214"/>
			<point x="1402" y="214"/>
			<point x="1402" y="214" type="curve"/>
			<point x="1288" y="118"/>
			<point x="1166" y="108"/>
			<point x="1118" y="108" type="curve" smooth="yes"/>
			<point x="964" y="108"/>
			<point x="834" y="240"/>
			<point x="824" y="438" type="curve"/>
			<point x="1424" y="438" type="line"/>
			<point x="1424" y="438"/>
			<point x="1424" y="438"/>
			<point x="1424" y="438" type="curve"/>
			<point x="1424" y="728"/>
			<point x="1312" y="922"/>
			<point x="1084" y="922" type="curve" smooth="yes"/>
			<point x="1008" y="922"/>
			<point x="886" y="900"/>
			<point x="770" y="770" type="curve"/>
			<point x="704" y="868"/>
			<point x="606" y="922"/>
			<point x="482" y="922" type="curve" smooth="yes"/>
			<point x="352" y="922"/>
			<point x="258" y="890"/>
			<point x="158" y="834" type="curve"/>
			<point x="158" y="834"/>
			<point x="158" y="834"/>
			<point x="158" y="834" type="curve"/>
			<point x="163" y="787"/>
			<point x="167" y="739"/>
			<point x="172" y="692" type="curve"/>
			<point x="172" y="692"/>
			<point x="172" y="692"/>
			<point x="172" y="692" type="curve"/>
			<point x="172" y="692"/>
			<point x="172" y="692"/>
			<point x="172" y="692" type="curve"/>
			<point x="238" y="742"/>
			<point x="334" y="796"/>
			<point x="480" y="796" type="curve" smooth="yes"/>
			<point x="530" y="796"/>
			<point x="658" y="768"/>
			<point x="658" y="574" type="curve" smooth="yes"/>
			<point x="658" y="496" type="line"/>
			<point x="374" y="494"/>
			<point x="94" y="416"/>
			<point x="94" y="234" type="curve" smooth="yes"/>
			<point x="94" y="176"/>
			<point x="126" y="-22"/>
		</contour>
		<contour>
			<point x="668" y="260" type="curve" smooth="yes"/>
			<point x="668" y="218"/>
			<point x="668" y="172"/>
			<point x="598" y="138" type="curve" smooth="yes"/>
			<point x="544" y="114"/>
			<point x="470" y="108"/>
			<point x="436" y="108" type="curve" smooth="yes"/>
			<point x="312" y="108"/>
			<point x="248" y="170"/>
			<point x="248" y="236" type="curve" smooth="yes"/>
			<point x="248" y="292"/>
			<point x="294" y="322"/>
			<point x="404" y="350" type="curve" smooth="yes"/>
			<point x="490" y="372"/>
			<point x="598" y="382"/>
			<point x="658" y="380" type="curve"/>
			<point x="664" y="362"/>
			<point x="668" y="314"/>
		</contour>
		<contour>
			<point x="836" y="556" type="line"/>
			<point x="870" y="692"/>
			<point x="970" y="792"/>
			<point x="1084" y="792" type="curve" smooth="yes"/>
			<point x="1162" y="792"/>
			<point x="1270" y="744"/>
			<point x="1300" y="556" type="curve"/>
		</contour>
	</outline>
</glyph>
<glyph name="oslash" format="2">
	<unicode hex="00F8"/>
	<advance width="513"/>
	<outline>
		<contour>
			<point x="470" y="526" type="line"/>
			<point x="413" y="558" type="line"/>
			<point x="346" y="441" type="line"/>
			<point x="332" y="448"/>
			<point x="298" y="461"/>
			<point x="257" y="461" type="curve" smooth="yes"/>
			<point x="131" y="461"/>
			<point x="32" y="351"/>
			<point x="32" y="220" type="curve" smooth="yes"/>
			<point x="32" y="117"/>
			<point x="91" y="63"/>
			<point x="114" y="42" type="curve"/>
			<point x="43" y="-81" type="line"/>
			<point x="100" y="-113" type="line"/>
			<point x="169" y="7" type="line"/>
			<point x="184" y="0"/>
			<point x="218" y="-11"/>
			<point x="256" y="-11" type="curve" smooth="yes"/>
			<point x="378" y="-11"/>
			<point x="481" y="89"/>
			<point x="481" y="220" type="curve" smooth="yes"/>
			<point x="481" y="290"/>
			<point x="452" y="359"/>
			<point x="400" y="405" type="curve"/>
		</contour>
		<contour>
			<point x="149" y="103" type="line"/>
			<point x="114" y="144"/>
			<point x="111" y="195"/>
			<point x="111" y="220" type="curve" smooth="yes"/>
			<point x="111" y="333"/>
			<point x="178" y="396"/>
			<point x="257" y="396" type="curve" smooth="yes"/>
			<point x="276" y="396"/>
			<point x="295" y="392"/>
			<point x="312" y="385" type="curve"/>
		</contour>
		<contour>
			<point x="364" y="344" type="line"/>
			<point x="392" y="310"/>
			<point x="402" y="263"/>
			<point x="402" y="220" type="curve" smooth="yes"/>
			<point x="402" y="104"/>
			<point x="328" y="54"/>
			<point x="257" y="54" type="curve" smooth="yes"/>
			<point x="239" y="54"/>
			<point x="220" y="57"/>
			<point x="203" y="64" type="curve"/>
		</contour>
	</outline>
</glyph>
<glyph name="dotlessi" format="2">
	<unicode hex="0131"/>
	<advance width="490"/>
	<outline>
		<contour>
			<point x="164" y="888" type="curve"/>
			<point x="164" y="0" type="line"/>
			<point x="164" y="0"/>
			<point x="164" y="0"/>
			<point x="164" y="0" type="curve"/>
			<point x="324" y="0" type="line"/>
			<point x="324" y="0"/>
			<point x="324" y="0"/>
			<point x="324" y="0" type="curve"/>
			<point x="324" y="888" type="line"/>
			<point x="324" y="888"/>
			<point x="324" y="888"/>
			<point x="324" y="888" type="curve"/>
			<point x="164" y="888" type="line"/>
			<point x="164" y="888"/>
			<point x="164" y="888"/>
		</contour>
	</outline>
</glyph>
<glyph name="OE" format="2">
	<unicode hex="0152"/>
	<advance width="1000"/>
	<outline>
		<contour>
			<point x="369" y="-22" type="curve" smooth="yes"/>
			<point x="382" y="-22"/>
			<point x="403" y="-22"/>
			<point x="449" y="-11" type="curve" smooth="yes"/>
			<point x="501" y="0"/>
			<point x="526" y="0"/>
			<point x="536" y="0" type="curve" smooth="yes"/>
			<point x="956" y="0" type="line"/>
			<point x="956" y="0"/>
			<point x="956" y="0"/>
			<point x="956" y="0" type="curve"/>
			<point x="956" y="76" type="line"/>
			<point x="956" y="76"/>
			<point x="956" y="76"/>
			<point x="956" y="76" type="curve"/>
			<point x="830.459" y="76"/>
			<point x="704.918" y="76"/>
			<point x="579" y="76" type="curve"/>
			<point x="579" y="328" type="line"/>
			<point x="913" y="328" type="line"/>
			<point x="913" y="328"/>
			<point x="913" y="328"/>
			<point x="913" y="328" type="curve"/>
			<point x="913" y="393" type="line"/>
			<point x="913" y="393"/>
			<point x="913" y="393"/>
			<point x="913" y="393" type="curve"/>
			<point x="579" y="393" type="line"/>
			<point x="579" y="624" type="line"/>
			<point x="699.879" y="624"/>
			<point x="820.758" y="624"/>
			<point x="942" y="624" type="curve"/>
			<point x="942" y="624"/>
			<point x="942" y="624"/>
			<point x="942" y="624" type="curve"/>
			<point x="942" y="694" type="line"/>
			<point x="942" y="694"/>
			<point x="942" y="694"/>
			<point x="942" y="694" type="curve"/>
			<point x="536" y="694" type="line" smooth="yes"/>
			<point x="525" y="694"/>
			<point x="501" y="694"/>
			<point x="449" y="705" type="curve" smooth="yes"/>
			<point x="410" y="714"/>
			<point x="387" y="716"/>
			<point x="370" y="716" type="curve" smooth="yes"/>
			<point x="189" y="716"/>
			<point x="29" y="556"/>
			<point x="29" y="344" type="curve" smooth="yes"/>
			<point x="29" y="134"/>
			<point x="191" y="-22"/>
		</contour>
		<contour>
			<point x="374" y="43" type="curve" smooth="yes"/>
			<point x="230" y="43"/>
			<point x="122" y="189"/>
			<point x="122" y="359" type="curve" smooth="yes"/>
			<point x="122" y="523"/>
			<point x="233" y="651"/>
			<point x="374" y="651" type="curve" smooth="yes"/>
			<point x="458" y="651"/>
			<point x="474" y="621"/>
			<point x="482" y="556" type="curve" smooth="yes"/>
			<point x="486" y="524"/>
			<point x="486" y="437"/>
			<point x="486" y="346" type="curve" smooth="yes"/>
			<point x="486" y="306"/>
			<point x="485" y="267"/>
			<point x="485" y="227" type="curve" smooth="yes"/>
			<point x="484" y="88"/>
			<point x="478" y="43"/>
		</contour>
	</outline>
</glyph>
<glyph name="oe" format="2">
	<unicode hex="0153"/>
	<advance width="799"/>
	<outline>
		<contour>
			<point x="248" y="-11" type="curve" smooth="yes"/>
			<point x="306" y="-11"/>
			<point x="376" y="14"/>
			<point x="429" y="88" type="curve"/>
			<point x="466" y="31"/>
			<point x="536" y="-11"/>
			<point x="615" y="-11" type="curve" smooth="yes"/>
			<point x="670" y="-11"/>
			<point x="723" y="8"/>
			<point x="764" y="38" type="curve"/>
			<point x="758" y="107" type="line"/>
			<point x="701" y="59"/>
			<point x="640" y="54"/>
			<point x="616" y="54" type="curve" smooth="yes"/>
			<point x="539" y="54"/>
			<point x="474" y="120"/>
			<point x="469" y="219" type="curve"/>
			<point x="769" y="219" type="line"/>
			<point x="769" y="362"/>
			<point x="713" y="461"/>
			<point x="599" y="461" type="curve" smooth="yes"/>
			<point x="528" y="461"/>
			<point x="464" y="421"/>
			<point x="427" y="364" type="curve"/>
			<point x="396" y="409"/>
			<point x="334" y="461"/>
			<point x="248" y="461" type="curve" smooth="yes"/>
			<point x="130" y="461"/>
			<point x="30" y="357"/>
			<point x="30" y="225" type="curve" smooth="yes"/>
			<point x="30" y="92"/>
			<point x="130" y="-11"/>
		</contour>
		<contour>
			<point x="248" y="54" type="curve" smooth="yes"/>
			<point x="175" y="54"/>
			<point x="107" y="113"/>
			<point x="107" y="230" type="curve" smooth="yes"/>
			<point x="107" y="345"/>
			<point x="178" y="396"/>
			<point x="248" y="396" type="curve" smooth="yes"/>
			<point x="315" y="396"/>
			<point x="386" y="348"/>
			<point x="386" y="230" type="curve" smooth="yes"/>
			<point x="386" y="110"/>
			<point x="318" y="54"/>
		</contour>
		<contour>
			<point x="475" y="278" type="line"/>
			<point x="492" y="346"/>
			<point x="542" y="396"/>
			<point x="599" y="396" type="curve" smooth="yes"/>
			<point x="638" y="396"/>
			<point x="692" y="372"/>
			<point x="707" y="278" type="curve"/>
		</contour>
	</outline>
</glyph>
<glyph name="circumflex" format="2">
	<unicode hex="02C6"/>
	<advance width="1026"/>
	<outline>
		<contour>
			<point x="580" y="1388" type="line"/>
			<point x="580" y="1388"/>
			<point x="580" y="1388"/>
			<point x="580" y="1388" type="curve"/>
			<point x="446" y="1388" type="line"/>
			<point x="446" y="1388"/>
			<point x="446" y="1388"/>
			<point x="446" y="1388" type="curve"/>
			<point x="160" y="1054" type="line"/>
			<point x="160" y="1054"/>
			<point x="160" y="1054"/>
			<point x="160" y="1054" type="curve"/>
			<point x="203" y="1054"/>
			<point x="247" y="1054"/>
			<point x="290" y="1054" type="curve"/>
			<point x="290" y="1054" type="line"/>
			<point x="290" y="1054"/>
			<point x="290" y="1054"/>
			<point x="290" y="1054" type="curve"/>
			<point x="512" y="1296" type="line"/>
			<point x="736" y="1054" type="line"/>
			<point x="736" y="1054"/>
			<point x="736" y="1054"/>
			<point x="736" y="1054" type="curve"/>
			<point x="866" y="1054" type="line"/>
			<point x="866" y="1054"/>
			<point x="866" y="1054"/>
			<point x="866" y="1054" type="curve"/>
			<point x="866" y="1054"/>
			<point x="866" y="1054"/>
			<point x="866" y="1054" type="curve"/>
		</contour>
	</outline>
</glyph>
<glyph name="caron" format="2">
	<unicode hex="02C7"/>
	<advance width="513"/>
	<outline>
		<contour>
			<point x="433" y="654" type="line"/>
			<point x="368" y="654" type="line"/>
			<point x="257" y="533" type="line"/>
			<point x="145" y="654" type="line"/>
			<point x="80" y="654" type="line"/>
			<point x="223" y="487" type="line"/>
			<point x="290" y="487" type="line"/>
		</contour>
	</outline>
</glyph>
<glyph name="breve" format="2">
	<unicode hex="02D8"/>
	<advance width="1026"/>
	<outline>
		<contour>
			<point x="512" y="1028" type="curve" smooth="yes"/>
			<point x="692" y="1028"/>
			<point x="858" y="1170"/>
			<point x="862" y="1388" type="curve"/>
			<point x="862" y="1388"/>
			<point x="862" y="1388"/>
			<point x="862" y="1388" type="curve"/>
			<point x="732" y="1388" type="line"/>
			<point x="732" y="1388"/>
			<point x="732" y="1388"/>
			<point x="732" y="1388" type="curve"/>
			<point x="726" y="1236"/>
			<point x="606" y="1170"/>
			<point x="514" y="1170" type="curve" smooth="yes"/>
			<point x="416" y="1170"/>
			<point x="300" y="1240"/>
			<point x="294" y="1388" type="curve"/>
			<point x="294" y="1388"/>
			<point x="294" y="1388"/>
			<point x="294" y="1388" type="curve"/>
			<point x="164" y="1388" type="line"/>
			<point x="164" y="1388"/>
			<point x="164" y="1388"/>
			<point x="164" y="1388" type="curve"/>
			<point x="168" y="1164"/>
			<point x="340" y="1028"/>
		</contour>
	</outline>
</glyph>
<glyph name="dotaccent" format="2">
	<unicode hex="02D9"/>
	<advance width="570"/>
	<outline>
		<contour>
			<point x="380" y="1368" type="curve"/>
			<point x="188" y="1368" type="line"/>
			<point x="188" y="1368"/>
			<point x="188" y="1368"/>
			<point x="188" y="1368" type="curve"/>
			<point x="188" y="1176" type="line"/>
			<point x="188" y="1176"/>
			<point x="188" y="1176"/>
			<point x="188" y="1176" type="curve"/>
			<point x="380" y="1176" type="line"/>
			<point x="380" y="1176"/>
			<point x="380" y="1176"/>
			<point x="380" y="1176" type="curve"/>
			<point x="380" y="1368" type="line"/>
			<point x="380" y="1368"/>
			<point x="380" y="1368"/>
		</contour>
	</outline>
</glyph>
<glyph name="ring" format="2">
	<unicode hex="02DA"/>
	<advance width="1372"/>
	<outline>
		<contour>
			<point x="916" y="1220" type="curve" smooth="yes"/>
			<point x="916" y="1312"/>
			<point x="816" y="1388"/>
			<point x="686" y="1388" type="curve" smooth="yes"/>
			<point x="550" y="1388"/>
			<point x="456" y="1306"/>
			<point x="456" y="1222" type="curve" smooth="yes"/>
			<point x="456" y="1130"/>
			<point x="556" y="1054"/>
			<point x="686" y="1054" type="curve" smooth="yes"/>
			<point x="822" y="1054"/>
			<point x="916" y="1136"/>
		</contour>
		<contour>
			<point x="686" y="1138" type="curve" smooth="yes"/>
			<point x="644" y="1138"/>
			<point x="572" y="1150"/>
			<point x="572" y="1220" type="curve" smooth="yes"/>
			<point x="572" y="1294"/>
			<point x="642" y="1304"/>
			<point x="686" y="1304" type="curve" smooth="yes"/>
			<point x="728" y="1304"/>
			<point x="800" y="1292"/>
			<point x="800" y="1222" type="curve" smooth="yes"/>
			<point x="800" y="1148"/>
			<point x="730" y="1138"/>
		</contour>
	</outline>
</glyph>
<glyph name="tilde" format="2">
	<unicode hex="02DC"/>
	<advance width="1026"/>
	<outline>
		<contour>
			<point x="648" y="1240" type="curve" smooth="yes"/>
			<point x="602" y="1240"/>
			<point x="556" y="1270"/>
			<point x="522" y="1294" type="curve" smooth="yes"/>
			<point x="472" y="1326"/>
			<point x="428" y="1356"/>
			<point x="374" y="1356" type="curve" smooth="yes"/>
			<point x="272" y="1356"/>
			<point x="174" y="1264"/>
			<point x="172" y="1110" type="curve"/>
			<point x="172" y="1110"/>
			<point x="172" y="1110"/>
			<point x="172" y="1110" type="curve"/>
			<point x="302" y="1110" type="line"/>
			<point x="302" y="1110"/>
			<point x="302" y="1110"/>
			<point x="302" y="1110" type="curve"/>
			<point x="302" y="1154"/>
			<point x="316" y="1226"/>
			<point x="378" y="1226" type="curve" smooth="yes"/>
			<point x="424" y="1226"/>
			<point x="470" y="1196"/>
			<point x="504" y="1172" type="curve" smooth="yes"/>
			<point x="554" y="1140"/>
			<point x="598" y="1110"/>
			<point x="652" y="1110" type="curve" smooth="yes"/>
			<point x="754" y="1110"/>
			<point x="852" y="1202"/>
			<point x="854" y="1356" type="curve"/>
			<point x="854" y="1356"/>
			<point x="854" y="1356"/>
			<point x="854" y="1356" type="curve"/>
			<point x="724" y="1356" type="line"/>
			<point x="724" y="1356"/>
			<point x="724" y="1356"/>
			<point x="724" y="1356" type="curve"/>
			<point x="724" y="1312"/>
			<point x="710" y="1240"/>
		</contour>
	</outline>
</glyph>
<glyph name="hungarumlaut" format="2">
  <advance width="513"/>
  <unicode hex="02DD"/>
  <outline>
    <contour>
      <point x="256" y="694" type="line"/>
      <point x="173" y="694" type="line"/>
      <point x="110" y="527" type="line"/>
      <point x="175" y="527" type="line"/>
    </contour>
    <contour>
      <point x="427" y="694" type="line"/>
      <point x="344" y="694" type="line"/>
      <point x="281" y="527" type="line"/>
      <point x="346" y="527" type="line"/>
    </contour>
  </outline>
</glyph>
<glyph name="endash" format="2">
	<unicode hex="2013"/>
	<advance width="513"/>
	<outline>
		<contour>
			<point x="513" y="242" type="line"/>
			<point x="513" y="307" type="line"/>
			<point x="0" y="307" type="line"/>
			<point x="0" y="242" type="line"/>
		</contour>
	</outline>
</glyph>
<glyph name="emdash" format="2">
	<unicode hex="2014"/>
	<advance width="1027"/>
	<outline>
		<contour>
			<point x="1027" y="242" type="curve"/>
			<point x="1027" y="307" type="line"/>
			<point x="1027" y="307"/>
			<point x="1027" y="307"/>
			<point x="1027" y="307" type="curve"/>
			<point x="0" y="307" type="line"/>
			<point x="0" y="307"/>
			<point x="0" y="307"/>
			<point x="0" y="307" type="curve"/>
			<point x="0" y="242" type="line"/>
			<point x="0" y="242"/>
			<point x="0" y="242"/>
			<point x="0" y="242" type="curve"/>
			<point x="1027" y="242" type="line"/>
			<point x="1027" y="242"/>
			<point x="1027" y="242"/>
		</contour>
	</outline>
</glyph>
<glyph name="quoteleft" format="2">
	<unicode hex="2018"/>
	<advance width="285"/>
	<outline>
		<contour>
			<point x="186" y="694" type="line"/>
			<point x="143" y="694" type="line"/>
			<point x="99" y="566" type="line"/>
			<point x="99" y="481" type="line"/>
			<point x="185" y="481" type="line"/>
			<point x="185" y="567" type="line"/>
			<point x="159" y="567" type="line"/>
		</contour>
	</outline>
</glyph>
<glyph name="quoteright" format="2">
	<unicode hex="2019"/>
	<advance width="285"/>
	<outline>
		<contour>
			<point x="125" y="608" type="line"/>
			<point x="98" y="481" type="line"/>
			<point x="98" y="481"/>
			<point x="98" y="481"/>
			<point x="98" y="481" type="curve"/>
			<point x="98" y="481"/>
			<point x="98" y="481"/>
			<point x="98" y="481" type="curve"/>
			<point x="141" y="481" type="line"/>
			<point x="141" y="481"/>
			<point x="141" y="481"/>
			<point x="141" y="481" type="curve"/>
			<point x="185" y="609" type="line"/>
			<point x="185" y="694" type="line"/>
			<point x="185" y="694"/>
			<point x="185" y="694"/>
			<point x="185" y="694" type="curve"/>
			<point x="99" y="694" type="line"/>
			<point x="99" y="694"/>
			<point x="99" y="694"/>
			<point x="99" y="694" type="curve"/>
			<point x="99" y="608" type="line"/>
			<point x="99" y="608"/>
			<point x="99" y="608"/>
			<point x="99" y="608" type="curve"/>
		</contour>
	</outline>
</glyph>
<glyph name="quotedblleft" format="2">
	<unicode hex="201C"/>
	<advance width="513"/>
	<outline>
		<contour>
			<point x="280" y="694" type="line"/>
			<point x="280" y="694"/>
			<point x="280" y="694"/>
			<point x="280" y="694" type="curve"/>
			<point x="280" y="694"/>
			<point x="280" y="694"/>
			<point x="280" y="694" type="curve"/>
			<point x="237" y="694" type="line"/>
			<point x="237" y="694"/>
			<point x="237" y="694"/>
			<point x="237" y="694" type="curve"/>
			<point x="193" y="566" type="line"/>
			<point x="193" y="481" type="line"/>
			<point x="193" y="481"/>
			<point x="193" y="481"/>
			<point x="193" y="481" type="curve"/>
			<point x="279" y="481" type="line"/>
			<point x="279" y="481"/>
			<point x="279" y="481"/>
			<point x="279" y="481" type="curve"/>
			<point x="279" y="567" type="line"/>
			<point x="279" y="567"/>
			<point x="279" y="567"/>
			<point x="279" y="567" type="curve"/>
			<point x="253" y="567" type="line"/>
		</contour>
		<contour>
			<point x="480" y="694" type="line"/>
			<point x="480" y="694"/>
			<point x="480" y="694"/>
			<point x="480" y="694" type="curve"/>
			<point x="480" y="694"/>
			<point x="480" y="694"/>
			<point x="480" y="694" type="curve"/>
			<point x="437" y="694" type="line"/>
			<point x="437" y="694"/>
			<point x="437" y="694"/>
			<point x="437" y="694" type="curve"/>
			<point x="393" y="566" type="line"/>
			<point x="393" y="481" type="line"/>
			<point x="393" y="481"/>
			<point x="393" y="481"/>
			<point x="393" y="481" type="curve"/>
			<point x="479" y="481" type="line"/>
			<point x="479" y="481"/>
			<point x="479" y="481"/>
			<point x="479" y="481" type="curve"/>
			<point x="479" y="567" type="line"/>
			<point x="479" y="567"/>
			<point x="479" y="567"/>
			<point x="479" y="567" type="curve"/>
			<point x="453" y="567" type="line"/>
		</contour>
	</outline>
</glyph>
<glyph name="quotedblright" format="2">
	<unicode hex="201D"/>
	<advance width="1026"/>
	<outline>
		<contour>
			<point x="240" y="1218" type="line"/>
			<point x="240" y="1388" type="line"/>
			<point x="240" y="1388"/>
			<point x="240" y="1388"/>
			<point x="240" y="1388" type="curve"/>
			<point x="68" y="1388" type="line"/>
			<point x="68" y="1388"/>
			<point x="68" y="1388"/>
			<point x="68" y="1388" type="curve"/>
			<point x="68" y="1216" type="line"/>
			<point x="68" y="1216"/>
			<point x="68" y="1216"/>
			<point x="68" y="1216" type="curve"/>
			<point x="120" y="1216" type="line"/>
			<point x="66" y="962" type="line"/>
			<point x="66" y="962"/>
			<point x="66" y="962"/>
			<point x="66" y="962" type="curve"/>
			<point x="66" y="962"/>
			<point x="66" y="962"/>
			<point x="66" y="962" type="curve"/>
			<point x="152" y="962" type="line"/>
			<point x="152" y="962"/>
			<point x="152" y="962"/>
			<point x="152" y="962" type="curve"/>
		</contour>
		<contour>
			<point x="640" y="1218" type="line"/>
			<point x="640" y="1388" type="line"/>
			<point x="640" y="1388"/>
			<point x="640" y="1388"/>
			<point x="640" y="1388" type="curve"/>
			<point x="468" y="1388" type="line"/>
			<point x="468" y="1388"/>
			<point x="468" y="1388"/>
			<point x="468" y="1388" type="curve"/>
			<point x="468" y="1216" type="line"/>
			<point x="468" y="1216"/>
			<point x="468" y="1216"/>
			<point x="468" y="1216" type="curve"/>
			<point x="520" y="1216" type="line"/>
			<point x="466" y="962" type="line"/>
			<point x="466" y="962"/>
			<point x="466" y="962"/>
			<point x="466" y="962" type="curve"/>
			<point x="466" y="962"/>
			<point x="466" y="962"/>
			<point x="466" y="962" type="curve"/>
			<point x="552" y="962" type="line"/>
			<point x="552" y="962"/>
			<point x="552" y="962"/>
			<point x="552" y="962" type="curve"/>
		</contour>
	</outline>
</glyph>
<glyph name="fi" format="2">
	<unicode hex="FB01"/>
	<advance width="1100"/>
	<outline>
		<contour>
			<point x="940" y="1390" type="curve"/>
			<point x="768" y="1390" type="line"/>
			<point x="768" y="1390"/>
			<point x="768" y="1390"/>
			<point x="768" y="1390" type="curve"/>
			<point x="768" y="1218" type="line"/>
			<point x="768" y="1218"/>
			<point x="768" y="1218"/>
			<point x="768" y="1218" type="curve"/>
			<point x="940" y="1218" type="line"/>
			<point x="940" y="1218"/>
			<point x="940" y="1218"/>
			<point x="940" y="1218" type="curve"/>
			<point x="940" y="1390" type="line"/>
			<point x="940" y="1390"/>
			<point x="940" y="1390"/>
		</contour>
		<contour>
			<point x="934" y="888" type="curve"/>
			<point x="774" y="888" type="line"/>
			<point x="774" y="888"/>
			<point x="774" y="888"/>
			<point x="774" y="888" type="curve"/>
			<point x="774" y="0" type="line"/>
			<point x="774" y="0"/>
			<point x="774" y="0"/>
			<point x="774" y="0" type="curve"/>
			<point x="934" y="0" type="line"/>
			<point x="934" y="0"/>
			<point x="934" y="0"/>
			<point x="934" y="0" type="curve"/>
			<point x="934" y="888" type="line"/>
			<point x="934" y="888"/>
			<point x="934" y="888"/>
		</contour>
		<contour>
			<point x="206" y="764" type="line"/>
			<point x="206" y="0" type="line"/>
			<point x="206" y="0"/>
			<point x="206" y="0"/>
			<point x="206" y="0" type="curve"/>
			<point x="366" y="0" type="line"/>
			<point x="366" y="0"/>
			<point x="366" y="0"/>
			<point x="366" y="0" type="curve"/>
			<point x="366" y="764" type="line"/>
			<point x="606" y="764" type="line"/>
			<point x="606" y="764"/>
			<point x="606" y="764"/>
			<point x="606" y="764" type="curve"/>
			<point x="606" y="888" type="line"/>
			<point x="606" y="888"/>
			<point x="606" y="888"/>
			<point x="606" y="888" type="curve"/>
			<point x="360" y="888" type="line"/>
			<point x="360" y="1124" type="line" smooth="yes"/>
			<point x="360" y="1252"/>
			<point x="434" y="1280"/>
			<point x="482" y="1280" type="curve" smooth="yes"/>
			<point x="518" y="1280"/>
			<point x="564" y="1272"/>
			<point x="606" y="1242" type="curve"/>
			<point x="606" y="1242"/>
			<point x="606" y="1242"/>
			<point x="606" y="1242" type="curve"/>
			<point x="606" y="1242"/>
			<point x="606" y="1242"/>
			<point x="606" y="1242" type="curve"/>
			<point x="606" y="1388" type="line"/>
			<point x="606" y="1388"/>
			<point x="606" y="1388"/>
			<point x="606" y="1388" type="curve"/>
			<point x="590" y="1394"/>
			<point x="540" y="1410"/>
			<point x="482" y="1410" type="curve" smooth="yes"/>
			<point x="330" y="1410"/>
			<point x="206" y="1268"/>
			<point x="206" y="1066" type="curve" smooth="yes"/>
			<point x="206" y="888" type="line"/>
			<point x="56" y="888" type="line"/>
			<point x="56" y="888"/>
			<point x="56" y="888"/>
			<point x="56" y="888" type="curve"/>
			<point x="56" y="764" type="line"/>
			<point x="56" y="764"/>
			<point x="56" y="764"/>
			<point x="56" y="764" type="curve"/>
		</contour>
	</outline>
</glyph>
<glyph name="fl" format="2">
	<unicode hex="FB02"/>
	<advance width="1100"/>
	<outline>
		<contour>
			<point x="206" y="764" type="line"/>
			<point x="206" y="0" type="line"/>
			<point x="206" y="0"/>
			<point x="206" y="0"/>
			<point x="206" y="0" type="curve"/>
			<point x="366" y="0" type="line"/>
			<point x="366" y="0"/>
			<point x="366" y="0"/>
			<point x="366" y="0" type="curve"/>
			<point x="366" y="764" type="line"/>
			<point x="606" y="764" type="line"/>
			<point x="606" y="764"/>
			<point x="606" y="764"/>
			<point x="606" y="764" type="curve"/>
			<point x="606" y="888" type="line"/>
			<point x="606" y="888"/>
			<point x="606" y="888"/>
			<point x="606" y="888" type="curve"/>
			<point x="360" y="888" type="line"/>
			<point x="360" y="1124" type="line" smooth="yes"/>
			<point x="360" y="1252"/>
			<point x="434" y="1280"/>
			<point x="482" y="1280" type="curve" smooth="yes"/>
			<point x="534" y="1280"/>
			<point x="582" y="1260"/>
			<point x="606" y="1246" type="curve"/>
			<point x="606" y="1246"/>
			<point x="606" y="1246"/>
			<point x="606" y="1246" type="curve"/>
			<point x="606" y="1246"/>
			<point x="606" y="1246"/>
			<point x="606" y="1246" type="curve"/>
			<point x="606" y="1388" type="line"/>
			<point x="606" y="1388"/>
			<point x="606" y="1388"/>
			<point x="606" y="1388" type="curve"/>
			<point x="590" y="1394"/>
			<point x="540" y="1410"/>
			<point x="482" y="1410" type="curve" smooth="yes"/>
			<point x="330" y="1410"/>
			<point x="206" y="1268"/>
			<point x="206" y="1066" type="curve" smooth="yes"/>
			<point x="206" y="888" type="line"/>
			<point x="56" y="888" type="line"/>
			<point x="56" y="888"/>
			<point x="56" y="888"/>
			<point x="56" y="888" type="curve"/>
			<point x="56" y="764" type="line"/>
			<point x="56" y="764"/>
			<point x="56" y="764"/>
			<point x="56" y="764" type="curve"/>
		</contour>
		<contour>
			<point x="934" y="1388" type="curve"/>
			<point x="774" y="1388" type="line"/>
			<point x="774" y="1388"/>
			<point x="774" y="1388"/>
			<point x="774" y="1388" type="curve"/>
			<point x="774" y="0" type="line"/>
			<point x="774" y="0"/>
			<point x="774" y="0"/>
			<point x="774" y="0" type="curve"/>
			<point x="934" y="0" type="line"/>
			<point x="934" y="0"/>
			<point x="934" y="0"/>
			<point x="934" y="0" type="curve"/>
			<point x="934" y="1388" type="line"/>
			<point x="934" y="1388"/>
			<point x="934" y="1388"/>
		</contour>
	</outline>
</glyph>
<glyph name="I" format="2">
	<advance width="287"/>
	<outline>
		<contour>
			<point x="95" y="694" type="line"/>
			<point x="95" y="694"/>
			<point x="95" y="694"/>
			<point x="95" y="694" type="curve"/>
			<point x="95" y="0" type="line"/>
			<point x="95" y="0"/>
			<point x="95" y="0"/>
			<point x="95" y="0" type="curve"/>
			<point x="191" y="0" type="line"/>
			<point x="191" y="0"/>
			<point x="191" y="0"/>
			<point x="191" y="0" type="curve"/>
			<point x="191" y="694" type="line"/>
			<point x="191" y="694"/>
			<point x="191" y="694"/>
			<point x="191" y="694" type="curve"/>
		</contour>
	</outline>
</glyph>
<glyph name="dotlessj" format="2">
	<advance width="273"/>
	<outline>
		<contour>
			<point x="191" y="444" type="line"/>
			<point x="111" y="444" type="line"/>
			<point x="111" y="-68" type="line" smooth="yes"/>
			<point x="111" y="-134"/>
			<point x="51" y="-137"/>
			<point x="35" y="-137" type="curve" smooth="yes"/>
			<point x="7" y="-137"/>
			<point x="-18" y="-126"/>
			<point x="-40" y="-106" type="curve"/>
			<point x="-63" y="-171" type="line"/>
			<point x="-13" y="-199"/>
			<point x="35" y="-205"/>
			<point x="61" y="-205" type="curve" smooth="yes"/>
			<point x="129" y="-205"/>
			<point x="191" y="-151"/>
			<point x="191" y="-59" type="curve" smooth="yes"/>
		</contour>
	</outline>
</glyph>
<glyph name="ff" format="2">
	<advance width="1198"/>
	<outline>
		<contour>
			<point x="366" y="764" type="line"/>
			<point x="590" y="764" type="line"/>
			<point x="590" y="764"/>
			<point x="590" y="764"/>
			<point x="590" y="764" type="curve"/>
			<point x="590" y="888" type="line"/>
			<point x="590" y="888"/>
			<point x="590" y="888"/>
			<point x="590" y="888" type="curve"/>
			<point x="360" y="888" type="line"/>
			<point x="360" y="1120" type="line" smooth="yes"/>
			<point x="360" y="1262"/>
			<point x="488" y="1280"/>
			<point x="548" y="1280" type="curve" smooth="yes"/>
			<point x="568" y="1280"/>
			<point x="630" y="1280"/>
			<point x="714" y="1246" type="curve"/>
			<point x="714" y="1246"/>
			<point x="714" y="1246"/>
			<point x="714" y="1246" type="curve"/>
			<point x="714" y="1246"/>
			<point x="714" y="1246"/>
			<point x="714" y="1246" type="curve"/>
			<point x="714" y="1388" type="line"/>
			<point x="714" y="1388"/>
			<point x="714" y="1388"/>
			<point x="714" y="1388" type="curve"/>
			<point x="674" y="1398"/>
			<point x="614" y="1410"/>
			<point x="550" y="1410" type="curve" smooth="yes"/>
			<point x="350" y="1410"/>
			<point x="206" y="1260"/>
			<point x="206" y="1064" type="curve" smooth="yes"/>
			<point x="206" y="888" type="line"/>
			<point x="56" y="888" type="line"/>
			<point x="56" y="888"/>
			<point x="56" y="888"/>
			<point x="56" y="888" type="curve"/>
			<point x="56" y="764" type="line"/>
			<point x="56" y="764"/>
			<point x="56" y="764"/>
			<point x="56" y="764" type="curve"/>
			<point x="206" y="764" type="line"/>
			<point x="206" y="0" type="line"/>
			<point x="206" y="0"/>
			<point x="206" y="0"/>
			<point x="206" y="0" type="curve"/>
			<point x="366" y="0" type="line"/>
			<point x="366" y="0"/>
			<point x="366" y="0"/>
			<point x="366" y="0" type="curve"/>
		</contour>
		<contour>
			<point x="936" y="764" type="line"/>
			<point x="1160" y="764" type="line"/>
			<point x="1160" y="764"/>
			<point x="1160" y="764"/>
			<point x="1160" y="764" type="curve"/>
			<point x="1160" y="888" type="line"/>
			<point x="1160" y="888"/>
			<point x="1160" y="888"/>
			<point x="1160" y="888" type="curve"/>
			<point x="930" y="888" type="line"/>
			<point x="930" y="1120" type="line" smooth="yes"/>
			<point x="930" y="1262"/>
			<point x="1058" y="1280"/>
			<point x="1118" y="1280" type="curve" smooth="yes"/>
			<point x="1138" y="1280"/>
			<point x="1200" y="1280"/>
			<point x="1284" y="1246" type="curve"/>
			<point x="1284" y="1246"/>
			<point x="1284" y="1246"/>
			<point x="1284" y="1246" type="curve"/>
			<point x="1284" y="1246"/>
			<point x="1284" y="1246"/>
			<point x="1284" y="1246" type="curve"/>
			<point x="1284" y="1388" type="line"/>
			<point x="1284" y="1388"/>
			<point x="1284" y="1388"/>
			<point x="1284" y="1388" type="curve"/>
			<point x="1244" y="1398"/>
			<point x="1184" y="1410"/>
			<point x="1120" y="1410" type="curve" smooth="yes"/>
			<point x="920" y="1410"/>
			<point x="776" y="1260"/>
			<point x="776" y="1064" type="curve" smooth="yes"/>
			<point x="776" y="0" type="line"/>
			<point x="776" y="0"/>
			<point x="776" y="0"/>
			<point x="776" y="0" type="curve"/>
			<point x="936" y="0" type="line"/>
			<point x="936" y="0"/>
			<point x="936" y="0"/>
			<point x="936" y="0" type="curve"/>
		</contour>
	</outline>
</glyph>
<glyph name="ffi" format="2">
	<advance width="1672"/>
	<outline>
		<contour>
			<point x="206" y="1064" type="curve" smooth="yes"/>
			<point x="206" y="888" type="line"/>
			<point x="56" y="888" type="line"/>
			<point x="56" y="888"/>
			<point x="56" y="888"/>
			<point x="56" y="888" type="curve"/>
			<point x="56" y="764" type="line"/>
			<point x="56" y="764"/>
			<point x="56" y="764"/>
			<point x="56" y="764" type="curve"/>
			<point x="206" y="764" type="line"/>
			<point x="206" y="0" type="line"/>
			<point x="206" y="0"/>
			<point x="206" y="0"/>
			<point x="206" y="0" type="curve"/>
			<point x="366" y="0" type="line"/>
			<point x="366" y="0"/>
			<point x="366" y="0"/>
			<point x="366" y="0" type="curve"/>
			<point x="366" y="764" type="line"/>
			<point x="604" y="764" type="line"/>
			<point x="604" y="764"/>
			<point x="604" y="764"/>
			<point x="604" y="764" type="curve"/>
			<point x="604" y="888" type="line"/>
			<point x="604" y="888"/>
			<point x="604" y="888"/>
			<point x="604" y="888" type="curve"/>
			<point x="360" y="888" type="line"/>
			<point x="360" y="1122" type="line" smooth="yes"/>
			<point x="360" y="1260"/>
			<point x="464" y="1280"/>
			<point x="512" y="1280" type="curve" smooth="yes"/>
			<point x="590" y="1280"/>
			<point x="654" y="1248"/>
			<point x="656" y="1246" type="curve"/>
			<point x="656" y="1246"/>
			<point x="656" y="1246"/>
			<point x="656" y="1246" type="curve"/>
			<point x="656" y="1246"/>
			<point x="656" y="1246"/>
			<point x="656" y="1246" type="curve"/>
			<point x="656" y="1388" type="line"/>
			<point x="656" y="1388"/>
			<point x="656" y="1388"/>
			<point x="656" y="1388" type="curve"/>
			<point x="616" y="1400"/>
			<point x="562" y="1410"/>
			<point x="514" y="1410" type="curve" smooth="yes"/>
			<point x="342" y="1410"/>
			<point x="206" y="1268"/>
		</contour>
		<contour>
			<point x="936" y="764" type="line"/>
			<point x="1174" y="764" type="line"/>
			<point x="1174" y="764"/>
			<point x="1174" y="764"/>
			<point x="1174" y="764" type="curve"/>
			<point x="1174" y="888" type="line"/>
			<point x="1174" y="888"/>
			<point x="1174" y="888"/>
			<point x="1174" y="888" type="curve"/>
			<point x="930" y="888" type="line"/>
			<point x="930" y="1124" type="line" smooth="yes"/>
			<point x="930" y="1250"/>
			<point x="1000" y="1280"/>
			<point x="1052" y="1280" type="curve" smooth="yes"/>
			<point x="1120" y="1280"/>
			<point x="1172" y="1246"/>
			<point x="1174" y="1244" type="curve"/>
			<point x="1174" y="1244"/>
			<point x="1174" y="1244"/>
			<point x="1174" y="1244" type="curve"/>
			<point x="1174" y="1244"/>
			<point x="1174" y="1244"/>
			<point x="1174" y="1244" type="curve"/>
			<point x="1174" y="1390" type="line"/>
			<point x="1174" y="1390"/>
			<point x="1174" y="1390"/>
			<point x="1174" y="1390" type="curve"/>
			<point x="1130" y="1404"/>
			<point x="1114" y="1410"/>
			<point x="1052" y="1410" type="curve" smooth="yes"/>
			<point x="896" y="1410"/>
			<point x="776" y="1264"/>
			<point x="776" y="1066" type="curve" smooth="yes"/>
			<point x="776" y="0" type="line"/>
			<point x="776" y="0"/>
			<point x="776" y="0"/>
			<point x="776" y="0" type="curve"/>
			<point x="936" y="0" type="line"/>
			<point x="936" y="0"/>
			<point x="936" y="0"/>
			<point x="936" y="0" type="curve"/>
		</contour>
		<contour>
			<point x="1504" y="888" type="curve"/>
			<point x="1344" y="888" type="line"/>
			<point x="1344" y="888"/>
			<point x="1344" y="888"/>
			<point x="1344" y="888" type="curve"/>
			<point x="1344" y="0" type="line"/>
			<point x="1344" y="0"/>
			<point x="1344" y="0"/>
			<point x="1344" y="0" type="curve"/>
			<point x="1504" y="0" type="line"/>
			<point x="1504" y="0"/>
			<point x="1504" y="0"/>
			<point x="1504" y="0" type="curve"/>
			<point x="1504" y="888" type="line"/>
			<point x="1504" y="888"/>
			<point x="1504" y="888"/>
		</contour>
		<contour>
			<point x="1510" y="1390" type="curve"/>
			<point x="1338" y="1390" type="line"/>
			<point x="1338" y="1390"/>
			<point x="1338" y="1390"/>
			<point x="1338" y="1390" type="curve"/>
			<point x="1338" y="1218" type="line"/>
			<point x="1338" y="1218"/>
			<point x="1338" y="1218"/>
			<point x="1338" y="1218" type="curve"/>
			<point x="1510" y="1218" type="line"/>
			<point x="1510" y="1218"/>
			<point x="1510" y="1218"/>
			<point x="1510" y="1218" type="curve"/>
			<point x="1510" y="1390" type="line"/>
			<point x="1510" y="1390"/>
			<point x="1510" y="1390"/>
		</contour>
	</outline>
</glyph>
<glyph name="ffl" format="2">
	<advance width="1672"/>
	<outline>
		<contour>
			<point x="366" y="764" type="line"/>
			<point x="604" y="764" type="line"/>
			<point x="604" y="764"/>
			<point x="604" y="764"/>
			<point x="604" y="764" type="curve"/>
			<point x="604" y="888" type="line"/>
			<point x="604" y="888"/>
			<point x="604" y="888"/>
			<point x="604" y="888" type="curve"/>
			<point x="360" y="888" type="line"/>
			<point x="360" y="1122" type="line" smooth="yes"/>
			<point x="360" y="1260"/>
			<point x="464" y="1280"/>
			<point x="512" y="1280" type="curve" smooth="yes"/>
			<point x="590" y="1280"/>
			<point x="654" y="1248"/>
			<point x="656" y="1246" type="curve"/>
			<point x="656" y="1246"/>
			<point x="656" y="1246"/>
			<point x="656" y="1246" type="curve"/>
			<point x="656" y="1246"/>
			<point x="656" y="1246"/>
			<point x="656" y="1246" type="curve"/>
			<point x="656" y="1388" type="line"/>
			<point x="656" y="1388"/>
			<point x="656" y="1388"/>
			<point x="656" y="1388" type="curve"/>
			<point x="616" y="1400"/>
			<point x="562" y="1410"/>
			<point x="514" y="1410" type="curve" smooth="yes"/>
			<point x="342" y="1410"/>
			<point x="206" y="1268"/>
			<point x="206" y="1064" type="curve" smooth="yes"/>
			<point x="206" y="888" type="line"/>
			<point x="56" y="888" type="line"/>
			<point x="56" y="888"/>
			<point x="56" y="888"/>
			<point x="56" y="888" type="curve"/>
			<point x="56" y="764" type="line"/>
			<point x="56" y="764"/>
			<point x="56" y="764"/>
			<point x="56" y="764" type="curve"/>
			<point x="206" y="764" type="line"/>
			<point x="206" y="0" type="line"/>
			<point x="206" y="0"/>
			<point x="206" y="0"/>
			<point x="206" y="0" type="curve"/>
			<point x="366" y="0" type="line"/>
			<point x="366" y="0"/>
			<point x="366" y="0"/>
			<point x="366" y="0" type="curve"/>
		</contour>
		<contour>
			<point x="1504" y="1388" type="curve"/>
			<point x="1344" y="1388" type="line"/>
			<point x="1344" y="1388"/>
			<point x="1344" y="1388"/>
			<point x="1344" y="1388" type="curve"/>
			<point x="1344" y="0" type="line"/>
			<point x="1344" y="0"/>
			<point x="1344" y="0"/>
			<point x="1344" y="0" type="curve"/>
			<point x="1504" y="0" type="line"/>
			<point x="1504" y="0"/>
			<point x="1504" y="0"/>
			<point x="1504" y="0" type="curve"/>
			<point x="1504" y="1388" type="line"/>
			<point x="1504" y="1388"/>
			<point x="1504" y="1388"/>
		</contour>
		<contour>
			<point x="936" y="764" type="line"/>
			<point x="1174" y="764" type="line"/>
			<point x="1174" y="764"/>
			<point x="1174" y="764"/>
			<point x="1174" y="764" type="curve"/>
			<point x="1174" y="888" type="line"/>
			<point x="1174" y="888"/>
			<point x="1174" y="888"/>
			<point x="1174" y="888" type="curve"/>
			<point x="930" y="888" type="line"/>
			<point x="930" y="1124" type="line" smooth="yes"/>
			<point x="930" y="1250"/>
			<point x="1000" y="1280"/>
			<point x="1052" y="1280" type="curve" smooth="yes"/>
			<point x="1110" y="1280"/>
			<point x="1160" y="1254"/>
			<point x="1174" y="1246" type="curve"/>
			<point x="1174" y="1246"/>
			<point x="1174" y="1246"/>
			<point x="1174" y="1246" type="curve"/>
			<point x="1174" y="1246"/>
			<point x="1174" y="1246"/>
			<point x="1174" y="1246" type="curve"/>
			<point x="1174" y="1388" type="line"/>
			<point x="1174" y="1388"/>
			<point x="1174" y="1388"/>
			<point x="1174" y="1388" type="curve"/>
			<point x="1160" y="1394"/>
			<point x="1110" y="1410"/>
			<point x="1050" y="1410" type="curve" smooth="yes"/>
			<point x="902" y="1410"/>
			<point x="776" y="1270"/>
			<point x="776" y="1066" type="curve" smooth="yes"/>
			<point x="776" y="0" type="line"/>
			<point x="776" y="0"/>
			<point x="776" y="0"/>
			<point x="776" y="0" type="curve"/>
			<point x="936" y="0" type="line"/>
			<point x="936" y="0"/>
			<point x="936" y="0"/>
			<point x="936" y="0" type="curve"/>
		</contour>
	</outline>
</glyph>
<glyph name="j" format="2">
	<advance width="273"/>
	<outline>
		<contour>
			<point x="95" y="684" type="curve"/>
			<point x="95" y="588" type="line"/>
			<point x="95" y="588"/>
			<point x="95" y="588"/>
			<point x="95" y="588" type="curve"/>
			<point x="191" y="588" type="line"/>
			<point x="191" y="588"/>
			<point x="191" y="588"/>
			<point x="191" y="588" type="curve"/>
			<point x="191" y="684" type="line"/>
			<point x="191" y="684"/>
			<point x="191" y="684"/>
			<point x="191" y="684" type="curve"/>
			<point x="95" y="684" type="line"/>
			<point x="95" y="684"/>
			<point x="95" y="684"/>
		</contour>
		<contour>
			<point x="111" y="-65" type="line" smooth="yes"/>
			<point x="111" y="-105"/>
			<point x="84" y="-137"/>
			<point x="32" y="-137" type="curve" smooth="yes"/>
			<point x="9" y="-137"/>
			<point x="-21" y="-129"/>
			<point x="-46" y="-106" type="curve"/>
			<point x="-46" y="-106"/>
			<point x="-46" y="-106"/>
			<point x="-46" y="-106" type="curve"/>
			<point x="-46" y="-106"/>
			<point x="-46" y="-106"/>
			<point x="-46" y="-106" type="curve"/>
			<point x="-63" y="-171" type="line"/>
			<point x="-63" y="-171"/>
			<point x="-63" y="-171"/>
			<point x="-63" y="-171" type="curve"/>
			<point x="-13" y="-199"/>
			<point x="35" y="-205"/>
			<point x="61" y="-205" type="curve" smooth="yes"/>
			<point x="129" y="-205"/>
			<point x="191" y="-151"/>
			<point x="191" y="-59" type="curve" smooth="yes"/>
			<point x="191" y="444" type="line"/>
			<point x="191" y="444"/>
			<point x="191" y="444"/>
			<point x="191" y="444" type="curve"/>
			<point x="111" y="444" type="line"/>
			<point x="111" y="444"/>
			<point x="111" y="444"/>
			<point x="111" y="444" type="curve"/>
		</contour>
	</outline>
</glyph>
<glyph name="l" format="2">
	<advance width="245"/>
	<outline>
		<contour>
			<point x="82" y="694" type="curve"/>
			<point x="82" y="0" type="line"/>
			<point x="82" y="0"/>
			<point x="82" y="0"/>
			<point x="82" y="0" type="curve"/>
			<point x="162" y="0" type="line"/>
			<point x="162" y="0"/>
			<point x="162" y="0"/>
			<point x="162" y="0" type="curve"/>
			<point x="162" y="694" type="line"/>
			<point x="162" y="694"/>
			<point x="162" y="694"/>
			<point x="162" y="694" type="curve"/>
			<point x="82" y="694" type="line"/>
			<point x="82" y="694"/>
			<point x="82" y="694"/>
		</contour>
	</outline>
</glyph>
<glyph name="sfthyphen" format="2">
	<advance width="342"/>
	<outline>
		<contour>
			<point x="285" y="191" type="curve"/>
			<point x="285" y="211.646"/>
			<point x="285" y="232.292"/>
			<point x="285" y="253" type="curve"/>
			<point x="285" y="253"/>
			<point x="285" y="253"/>
			<point x="285" y="253" type="curve"/>
			<point x="193.758" y="253"/>
			<point x="102.516" y="253"/>
			<point x="11" y="253" type="curve"/>
			<point x="11" y="253"/>
			<point x="11" y="253"/>
			<point x="11" y="253" type="curve"/>
			<point x="11" y="232.354"/>
			<point x="11" y="211.708"/>
			<point x="11" y="191" type="curve"/>
			<point x="11" y="191"/>
			<point x="11" y="191"/>
			<point x="11" y="191" type="curve"/>
			<point x="102.242" y="191"/>
			<point x="193.484" y="191"/>
			<point x="285" y="191" type="curve"/>
			<point x="285" y="191"/>
			<point x="285" y="191"/>
		</contour>
	</outline>
</glyph>
